G75*
%MOIN*%
%OFA0B0*%
%FSLAX25Y25*%
%IPPOS*%
%LPD*%
%AMOC8*
5,1,8,0,0,1.08239X$1,22.5*
%
%ADD10C,0.02500*%
%ADD11R,0.04331X0.03937*%
%ADD12R,0.02500X0.05000*%
%ADD13R,0.07874X0.04724*%
%ADD14R,0.05315X0.02362*%
%ADD15C,0.07400*%
%ADD16R,0.02756X0.10236*%
%ADD17R,0.03150X0.14173*%
%ADD18R,0.03150X0.10236*%
%ADD19C,0.00700*%
%ADD20C,0.01200*%
%ADD21C,0.00800*%
%ADD22C,0.01000*%
%ADD23C,0.02900*%
D10*
X0234833Y0048500D03*
X0141333Y0142000D03*
D11*
X0169987Y0130000D03*
X0176680Y0130000D03*
X0199987Y0130000D03*
X0206680Y0130000D03*
X0209987Y0120000D03*
X0216680Y0120000D03*
X0201680Y0120000D03*
X0194987Y0120000D03*
X0181680Y0120000D03*
X0174987Y0120000D03*
X0166680Y0120000D03*
X0159987Y0120000D03*
X0164987Y0070000D03*
X0171680Y0070000D03*
X0204987Y0070000D03*
X0211680Y0070000D03*
D12*
X0191533Y0130000D03*
X0188333Y0130000D03*
X0185133Y0130000D03*
D13*
X0143865Y0106024D03*
X0143865Y0083976D03*
X0232802Y0083976D03*
X0232802Y0106024D03*
D14*
X0218333Y0100906D03*
X0218333Y0096969D03*
X0218333Y0093031D03*
X0218333Y0089094D03*
X0158333Y0089094D03*
X0158333Y0093031D03*
X0158333Y0096969D03*
X0158333Y0100906D03*
D15*
X0168333Y0050000D03*
X0178333Y0050000D03*
X0188333Y0050000D03*
X0198333Y0050000D03*
X0208333Y0050000D03*
D16*
X0198333Y0082992D03*
X0193333Y0082992D03*
X0188333Y0082992D03*
X0183333Y0082992D03*
X0178333Y0082992D03*
X0178333Y0107008D03*
X0183333Y0107008D03*
X0188333Y0107008D03*
X0193333Y0107008D03*
X0198333Y0107008D03*
D17*
X0166680Y0084961D03*
D18*
X0209987Y0082992D03*
X0209987Y0107008D03*
X0166680Y0107008D03*
D19*
X0163333Y0115000D02*
X0158333Y0110000D01*
X0158333Y0100906D01*
X0158302Y0097000D02*
X0158333Y0096969D01*
X0153833Y0093000D02*
X0151333Y0095500D01*
X0151333Y0110000D01*
X0153333Y0110000D01*
X0151333Y0110000D02*
X0151333Y0121000D01*
X0160333Y0130000D01*
X0169987Y0130000D01*
X0176680Y0130000D02*
X0185133Y0130000D01*
X0188333Y0130000D02*
X0188333Y0126000D01*
X0187333Y0125000D02*
X0162333Y0125000D01*
X0166680Y0120000D02*
X0174987Y0120000D01*
X0174987Y0116654D01*
X0173333Y0115000D01*
X0181680Y0116654D02*
X0181680Y0120000D01*
X0181680Y0116654D02*
X0183333Y0115000D01*
X0183333Y0107008D01*
X0178333Y0107008D02*
X0178333Y0096969D01*
X0171833Y0096969D02*
X0171680Y0096815D01*
X0178333Y0093031D02*
X0178333Y0092500D01*
X0178333Y0082992D01*
X0178333Y0065000D01*
X0188333Y0075000D02*
X0188333Y0082992D01*
X0193333Y0082992D02*
X0193333Y0075000D01*
X0198333Y0070000D01*
X0204987Y0070000D01*
X0204987Y0066346D01*
X0206333Y0065000D01*
X0208333Y0065000D01*
X0203333Y0075000D02*
X0199833Y0075000D01*
X0198333Y0076500D01*
X0198333Y0082992D01*
X0218333Y0089094D02*
X0218333Y0075000D01*
X0213333Y0093000D02*
X0213365Y0093031D01*
X0218333Y0096969D02*
X0226365Y0096969D01*
X0228333Y0095000D01*
X0222239Y0100906D02*
X0218333Y0100906D01*
X0222239Y0100906D02*
X0223333Y0102000D01*
X0223333Y0125000D01*
X0218333Y0130000D01*
X0206680Y0130000D01*
X0206680Y0132654D01*
X0205333Y0134000D01*
X0160333Y0134000D01*
X0149333Y0123000D01*
X0149333Y0093000D01*
X0153239Y0089094D01*
X0158333Y0089094D01*
X0158333Y0080000D01*
X0158302Y0093000D02*
X0158333Y0093031D01*
X0153865Y0093031D01*
X0153833Y0093000D01*
X0193333Y0107008D02*
X0193333Y0115000D01*
X0194987Y0116654D01*
X0194987Y0120000D01*
X0201680Y0120000D02*
X0209987Y0120000D01*
X0216680Y0120000D02*
X0216680Y0116654D01*
X0218333Y0115000D01*
X0198333Y0107008D02*
X0198333Y0096969D01*
X0199987Y0130000D02*
X0191533Y0130000D01*
D20*
X0198333Y0096969D02*
X0178333Y0096969D01*
X0171833Y0096969D01*
X0158333Y0096969D01*
X0171680Y0096815D02*
X0171680Y0070000D01*
X0171680Y0061654D01*
X0178333Y0055000D01*
X0178333Y0050000D01*
X0211680Y0070000D02*
X0211680Y0073346D01*
X0213333Y0075000D01*
X0213333Y0093000D01*
X0213333Y0095000D01*
X0211365Y0096969D01*
X0198333Y0096969D01*
X0213365Y0093031D02*
X0218333Y0093031D01*
D21*
X0183333Y0082992D02*
X0183333Y0070000D01*
X0185333Y0068000D01*
X0198333Y0055000D01*
X0198333Y0050000D01*
X0208333Y0050000D02*
X0208333Y0055000D01*
X0188333Y0075000D01*
X0178333Y0065000D02*
X0188333Y0055000D01*
X0188333Y0050000D01*
X0158333Y0096969D02*
X0154365Y0096969D01*
X0153333Y0098000D01*
X0153333Y0106000D01*
X0156333Y0109000D01*
X0156333Y0120000D01*
X0156333Y0123000D01*
X0158333Y0125000D01*
X0162333Y0125000D01*
X0159987Y0120000D02*
X0156333Y0120000D01*
X0187333Y0125000D02*
X0188333Y0126000D01*
D22*
X0140433Y0079914D02*
X0140433Y0047100D01*
X0164013Y0047100D01*
X0163886Y0047275D01*
X0163514Y0048004D01*
X0163261Y0048782D01*
X0163148Y0049500D01*
X0167833Y0049500D01*
X0167833Y0050500D01*
X0163148Y0050500D01*
X0163261Y0051218D01*
X0163514Y0051996D01*
X0163886Y0052725D01*
X0164367Y0053388D01*
X0164946Y0053966D01*
X0165608Y0054447D01*
X0166337Y0054819D01*
X0167116Y0055072D01*
X0167833Y0055186D01*
X0167833Y0050500D01*
X0168833Y0050500D01*
X0168833Y0055186D01*
X0169551Y0055072D01*
X0170329Y0054819D01*
X0171059Y0054447D01*
X0171721Y0053966D01*
X0172300Y0053388D01*
X0172781Y0052725D01*
X0173152Y0051996D01*
X0173224Y0051776D01*
X0173755Y0053059D01*
X0175274Y0054578D01*
X0175436Y0054645D01*
X0170727Y0059354D01*
X0170727Y0059354D01*
X0169380Y0060701D01*
X0169380Y0066331D01*
X0168810Y0066331D01*
X0168192Y0066950D01*
X0168073Y0066831D01*
X0167731Y0066634D01*
X0167350Y0066531D01*
X0165471Y0066531D01*
X0165471Y0069516D01*
X0164503Y0069516D01*
X0164503Y0066531D01*
X0162624Y0066531D01*
X0162243Y0066634D01*
X0161900Y0066831D01*
X0161621Y0067110D01*
X0161424Y0067453D01*
X0161322Y0067834D01*
X0161322Y0069516D01*
X0164503Y0069516D01*
X0164503Y0070484D01*
X0161322Y0070484D01*
X0161322Y0072166D01*
X0161424Y0072547D01*
X0161621Y0072890D01*
X0161900Y0073169D01*
X0162243Y0073366D01*
X0162624Y0073468D01*
X0164503Y0073468D01*
X0164503Y0070484D01*
X0165471Y0070484D01*
X0165471Y0073468D01*
X0167350Y0073468D01*
X0167731Y0073366D01*
X0168073Y0073169D01*
X0168192Y0073050D01*
X0168810Y0073668D01*
X0169380Y0073668D01*
X0169380Y0076595D01*
X0168959Y0076174D01*
X0164401Y0076174D01*
X0163405Y0077170D01*
X0163405Y0092751D01*
X0164401Y0093747D01*
X0168959Y0093747D01*
X0169380Y0093326D01*
X0169380Y0094669D01*
X0162691Y0094669D01*
X0162691Y0091146D01*
X0162608Y0091063D01*
X0162691Y0090980D01*
X0162691Y0087209D01*
X0161695Y0086213D01*
X0160383Y0086213D01*
X0160383Y0082405D01*
X0161004Y0081784D01*
X0161483Y0080627D01*
X0161483Y0079373D01*
X0161004Y0078216D01*
X0160118Y0077330D01*
X0158960Y0076850D01*
X0157707Y0076850D01*
X0156549Y0077330D01*
X0155663Y0078216D01*
X0155183Y0079373D01*
X0155183Y0080627D01*
X0155663Y0081784D01*
X0156283Y0082405D01*
X0156283Y0086213D01*
X0154972Y0086213D01*
X0154141Y0087044D01*
X0152390Y0087044D01*
X0151189Y0088245D01*
X0147283Y0092151D01*
X0147283Y0101961D01*
X0140433Y0101961D01*
X0140433Y0088039D01*
X0148506Y0088039D01*
X0149502Y0087043D01*
X0149502Y0080910D01*
X0148506Y0079914D01*
X0140433Y0079914D01*
X0140433Y0078949D02*
X0155359Y0078949D01*
X0155183Y0079948D02*
X0148540Y0079948D01*
X0149502Y0080946D02*
X0155316Y0080946D01*
X0155823Y0081945D02*
X0149502Y0081945D01*
X0149502Y0082943D02*
X0156283Y0082943D01*
X0156283Y0083942D02*
X0149502Y0083942D01*
X0149502Y0084940D02*
X0156283Y0084940D01*
X0156283Y0085939D02*
X0149502Y0085939D01*
X0149502Y0086937D02*
X0154248Y0086937D01*
X0151498Y0087936D02*
X0148609Y0087936D01*
X0150500Y0088934D02*
X0140433Y0088934D01*
X0140433Y0089933D02*
X0149501Y0089933D01*
X0148503Y0090932D02*
X0140433Y0090932D01*
X0140433Y0091930D02*
X0147504Y0091930D01*
X0147283Y0092929D02*
X0140433Y0092929D01*
X0140433Y0093927D02*
X0147283Y0093927D01*
X0147283Y0094926D02*
X0140433Y0094926D01*
X0140433Y0095924D02*
X0147283Y0095924D01*
X0147283Y0096923D02*
X0140433Y0096923D01*
X0140433Y0097921D02*
X0147283Y0097921D01*
X0147283Y0098920D02*
X0140433Y0098920D01*
X0140433Y0099918D02*
X0147283Y0099918D01*
X0147283Y0100917D02*
X0140433Y0100917D01*
X0140433Y0101915D02*
X0147283Y0101915D01*
X0155433Y0103575D02*
X0155433Y0105130D01*
X0157203Y0106900D01*
X0158433Y0108130D01*
X0158433Y0116331D01*
X0162856Y0116331D01*
X0163475Y0116950D01*
X0163593Y0116831D01*
X0163935Y0116634D01*
X0164317Y0116531D01*
X0166196Y0116531D01*
X0166196Y0119516D01*
X0167164Y0119516D01*
X0167164Y0120484D01*
X0170345Y0120484D01*
X0170345Y0122166D01*
X0170243Y0122547D01*
X0170045Y0122890D01*
X0169985Y0122950D01*
X0171682Y0122950D01*
X0171621Y0122890D01*
X0171424Y0122547D01*
X0171322Y0122166D01*
X0171322Y0120484D01*
X0174503Y0120484D01*
X0174503Y0119516D01*
X0175471Y0119516D01*
X0175471Y0116531D01*
X0177350Y0116531D01*
X0177731Y0116634D01*
X0178073Y0116831D01*
X0178192Y0116950D01*
X0178810Y0116331D01*
X0179630Y0116331D01*
X0179630Y0115804D01*
X0181283Y0114151D01*
X0181283Y0113826D01*
X0181251Y0113826D01*
X0180833Y0113408D01*
X0180415Y0113826D01*
X0176251Y0113826D01*
X0175255Y0112830D01*
X0175255Y0101186D01*
X0176251Y0100190D01*
X0176283Y0100190D01*
X0176283Y0099268D01*
X0162422Y0099268D01*
X0162491Y0099527D01*
X0162491Y0100815D01*
X0158424Y0100815D01*
X0158424Y0100996D01*
X0162491Y0100996D01*
X0162491Y0102284D01*
X0162389Y0102666D01*
X0162191Y0103008D01*
X0161912Y0103287D01*
X0161570Y0103484D01*
X0161188Y0103587D01*
X0158424Y0103587D01*
X0158424Y0100996D01*
X0158243Y0100996D01*
X0158243Y0103587D01*
X0155478Y0103587D01*
X0155433Y0103575D01*
X0155433Y0103912D02*
X0163405Y0103912D01*
X0163405Y0102914D02*
X0162245Y0102914D01*
X0162491Y0101915D02*
X0163405Y0101915D01*
X0163405Y0101186D02*
X0164401Y0100190D01*
X0168959Y0100190D01*
X0169955Y0101186D01*
X0169955Y0112830D01*
X0168959Y0113826D01*
X0164401Y0113826D01*
X0163405Y0112830D01*
X0163405Y0101186D01*
X0163674Y0100917D02*
X0158424Y0100917D01*
X0158424Y0101915D02*
X0158243Y0101915D01*
X0158243Y0102914D02*
X0158424Y0102914D01*
X0155433Y0104911D02*
X0163405Y0104911D01*
X0163405Y0105909D02*
X0156212Y0105909D01*
X0157211Y0106908D02*
X0163405Y0106908D01*
X0163405Y0107906D02*
X0158209Y0107906D01*
X0158433Y0108905D02*
X0163405Y0108905D01*
X0163405Y0109903D02*
X0158433Y0109903D01*
X0158433Y0110902D02*
X0163405Y0110902D01*
X0163405Y0111900D02*
X0158433Y0111900D01*
X0158433Y0112899D02*
X0163474Y0112899D01*
X0169886Y0112899D02*
X0175324Y0112899D01*
X0175255Y0111900D02*
X0169955Y0111900D01*
X0169955Y0110902D02*
X0175255Y0110902D01*
X0175255Y0109903D02*
X0169955Y0109903D01*
X0169955Y0108905D02*
X0175255Y0108905D01*
X0175255Y0107906D02*
X0169955Y0107906D01*
X0169955Y0106908D02*
X0175255Y0106908D01*
X0175255Y0105909D02*
X0169955Y0105909D01*
X0169955Y0104911D02*
X0175255Y0104911D01*
X0175255Y0103912D02*
X0169955Y0103912D01*
X0169955Y0102914D02*
X0175255Y0102914D01*
X0175255Y0101915D02*
X0169955Y0101915D01*
X0169686Y0100917D02*
X0175524Y0100917D01*
X0176283Y0099918D02*
X0162491Y0099918D01*
X0162691Y0093927D02*
X0169380Y0093927D01*
X0163582Y0092929D02*
X0162691Y0092929D01*
X0162691Y0091930D02*
X0163405Y0091930D01*
X0163405Y0090932D02*
X0162691Y0090932D01*
X0162691Y0089933D02*
X0163405Y0089933D01*
X0163405Y0088934D02*
X0162691Y0088934D01*
X0162691Y0087936D02*
X0163405Y0087936D01*
X0163405Y0086937D02*
X0162419Y0086937D01*
X0163405Y0085939D02*
X0160383Y0085939D01*
X0160383Y0084940D02*
X0163405Y0084940D01*
X0163405Y0083942D02*
X0160383Y0083942D01*
X0160383Y0082943D02*
X0163405Y0082943D01*
X0163405Y0081945D02*
X0160843Y0081945D01*
X0161351Y0080946D02*
X0163405Y0080946D01*
X0163405Y0079948D02*
X0161483Y0079948D01*
X0161308Y0078949D02*
X0163405Y0078949D01*
X0163405Y0077951D02*
X0160739Y0077951D01*
X0159207Y0076952D02*
X0163622Y0076952D01*
X0169380Y0075954D02*
X0140433Y0075954D01*
X0140433Y0076952D02*
X0157460Y0076952D01*
X0155928Y0077951D02*
X0140433Y0077951D01*
X0140433Y0074955D02*
X0169380Y0074955D01*
X0169380Y0073957D02*
X0140433Y0073957D01*
X0140433Y0072958D02*
X0161690Y0072958D01*
X0161322Y0071960D02*
X0140433Y0071960D01*
X0140433Y0070961D02*
X0161322Y0070961D01*
X0161322Y0068964D02*
X0140433Y0068964D01*
X0140433Y0067966D02*
X0161322Y0067966D01*
X0161764Y0066967D02*
X0140433Y0066967D01*
X0140433Y0065969D02*
X0169380Y0065969D01*
X0169380Y0064970D02*
X0140433Y0064970D01*
X0140433Y0063972D02*
X0169380Y0063972D01*
X0169380Y0062973D02*
X0140433Y0062973D01*
X0140433Y0061975D02*
X0169380Y0061975D01*
X0169380Y0060976D02*
X0140433Y0060976D01*
X0140433Y0059978D02*
X0170103Y0059978D01*
X0171101Y0058979D02*
X0140433Y0058979D01*
X0140433Y0057981D02*
X0172100Y0057981D01*
X0173099Y0056982D02*
X0140433Y0056982D01*
X0140433Y0055984D02*
X0174097Y0055984D01*
X0175096Y0054985D02*
X0169818Y0054985D01*
X0168833Y0054985D02*
X0167833Y0054985D01*
X0166848Y0054985D02*
X0140433Y0054985D01*
X0140433Y0053987D02*
X0164974Y0053987D01*
X0164077Y0052988D02*
X0140433Y0052988D01*
X0140433Y0051990D02*
X0163512Y0051990D01*
X0163225Y0050991D02*
X0140433Y0050991D01*
X0140433Y0049993D02*
X0167833Y0049993D01*
X0167833Y0050991D02*
X0168833Y0050991D01*
X0168833Y0051990D02*
X0167833Y0051990D01*
X0167833Y0052988D02*
X0168833Y0052988D01*
X0168833Y0053987D02*
X0167833Y0053987D01*
X0171693Y0053987D02*
X0174683Y0053987D01*
X0173726Y0052988D02*
X0172590Y0052988D01*
X0173154Y0051990D02*
X0173313Y0051990D01*
X0163519Y0047996D02*
X0140433Y0047996D01*
X0140433Y0048994D02*
X0163228Y0048994D01*
X0200334Y0065969D02*
X0202937Y0065969D01*
X0202937Y0066331D02*
X0202937Y0065497D01*
X0204283Y0064151D01*
X0205484Y0062950D01*
X0205929Y0062950D01*
X0206549Y0062330D01*
X0207707Y0061850D01*
X0208960Y0061850D01*
X0210118Y0062330D01*
X0211004Y0063216D01*
X0211483Y0064373D01*
X0211483Y0065627D01*
X0211191Y0066331D01*
X0214549Y0066331D01*
X0215545Y0067327D01*
X0215545Y0072673D01*
X0214902Y0073316D01*
X0215633Y0074047D01*
X0215633Y0086413D01*
X0218243Y0086413D01*
X0218243Y0089004D01*
X0218424Y0089004D01*
X0218424Y0089185D01*
X0222491Y0089185D01*
X0222491Y0090473D01*
X0222391Y0090846D01*
X0222691Y0091146D01*
X0222691Y0094917D01*
X0222689Y0094919D01*
X0225183Y0094919D01*
X0225183Y0094373D01*
X0225663Y0093216D01*
X0226549Y0092330D01*
X0227707Y0091850D01*
X0228960Y0091850D01*
X0230118Y0092330D01*
X0231004Y0093216D01*
X0231483Y0094373D01*
X0231483Y0095627D01*
X0231004Y0096784D01*
X0230118Y0097670D01*
X0228960Y0098150D01*
X0228082Y0098150D01*
X0227214Y0099018D01*
X0223251Y0099018D01*
X0224289Y0100056D01*
X0225383Y0101151D01*
X0225383Y0125849D01*
X0225035Y0126197D01*
X0226676Y0125600D01*
X0229991Y0125600D01*
X0233106Y0126734D01*
X0235645Y0128865D01*
X0236233Y0129883D01*
X0236233Y0110086D01*
X0228161Y0110086D01*
X0227165Y0109090D01*
X0227165Y0102957D01*
X0228161Y0101961D01*
X0236233Y0101961D01*
X0236233Y0088039D01*
X0228161Y0088039D01*
X0227165Y0087043D01*
X0227165Y0080910D01*
X0228161Y0079914D01*
X0236233Y0079914D01*
X0236233Y0051113D01*
X0235420Y0051450D01*
X0234247Y0051450D01*
X0233162Y0051001D01*
X0232332Y0050171D01*
X0231883Y0049087D01*
X0231883Y0047913D01*
X0232220Y0047100D01*
X0212977Y0047100D01*
X0213733Y0048926D01*
X0213733Y0051074D01*
X0212911Y0053059D01*
X0211392Y0054578D01*
X0210433Y0054975D01*
X0210433Y0055870D01*
X0209203Y0057100D01*
X0198353Y0067950D01*
X0201122Y0067950D01*
X0201122Y0067327D01*
X0202117Y0066331D01*
X0202937Y0066331D01*
X0203464Y0064970D02*
X0201333Y0064970D01*
X0202331Y0063972D02*
X0204462Y0063972D01*
X0205461Y0062973D02*
X0203330Y0062973D01*
X0204328Y0061975D02*
X0207406Y0061975D01*
X0209261Y0061975D02*
X0236233Y0061975D01*
X0236233Y0062973D02*
X0210761Y0062973D01*
X0211317Y0063972D02*
X0236233Y0063972D01*
X0236233Y0064970D02*
X0211483Y0064970D01*
X0211342Y0065969D02*
X0236233Y0065969D01*
X0236233Y0066967D02*
X0215185Y0066967D01*
X0215545Y0067966D02*
X0236233Y0067966D01*
X0236233Y0068964D02*
X0215545Y0068964D01*
X0215545Y0069963D02*
X0236233Y0069963D01*
X0236233Y0070961D02*
X0215545Y0070961D01*
X0215545Y0071960D02*
X0236233Y0071960D01*
X0236233Y0072958D02*
X0215259Y0072958D01*
X0215543Y0073957D02*
X0236233Y0073957D01*
X0236233Y0074955D02*
X0215633Y0074955D01*
X0215633Y0075954D02*
X0236233Y0075954D01*
X0236233Y0076952D02*
X0215633Y0076952D01*
X0215633Y0077951D02*
X0236233Y0077951D01*
X0236233Y0078949D02*
X0215633Y0078949D01*
X0215633Y0079948D02*
X0228127Y0079948D01*
X0227165Y0080946D02*
X0215633Y0080946D01*
X0215633Y0081945D02*
X0227165Y0081945D01*
X0227165Y0082943D02*
X0215633Y0082943D01*
X0215633Y0083942D02*
X0227165Y0083942D01*
X0227165Y0084940D02*
X0215633Y0084940D01*
X0215633Y0085939D02*
X0227165Y0085939D01*
X0227165Y0086937D02*
X0222136Y0086937D01*
X0222191Y0086992D02*
X0222389Y0087334D01*
X0222491Y0087716D01*
X0222491Y0089004D01*
X0218424Y0089004D01*
X0218424Y0086413D01*
X0221188Y0086413D01*
X0221570Y0086516D01*
X0221912Y0086713D01*
X0222191Y0086992D01*
X0222491Y0087936D02*
X0228058Y0087936D01*
X0222491Y0088934D02*
X0236233Y0088934D01*
X0236233Y0089933D02*
X0222491Y0089933D01*
X0222476Y0090932D02*
X0236233Y0090932D01*
X0236233Y0091930D02*
X0229153Y0091930D01*
X0227514Y0091930D02*
X0222691Y0091930D01*
X0222691Y0092929D02*
X0225950Y0092929D01*
X0225368Y0093927D02*
X0222691Y0093927D01*
X0229512Y0097921D02*
X0236233Y0097921D01*
X0236233Y0096923D02*
X0230866Y0096923D01*
X0231360Y0095924D02*
X0236233Y0095924D01*
X0236233Y0094926D02*
X0231483Y0094926D01*
X0231298Y0093927D02*
X0236233Y0093927D01*
X0236233Y0092929D02*
X0230717Y0092929D01*
X0218424Y0088934D02*
X0218243Y0088934D01*
X0218243Y0087936D02*
X0218424Y0087936D01*
X0218424Y0086937D02*
X0218243Y0086937D01*
X0211033Y0089810D02*
X0207708Y0089810D01*
X0206712Y0088814D01*
X0206712Y0077170D01*
X0207708Y0076174D01*
X0211033Y0076174D01*
X0211033Y0075953D01*
X0209380Y0074299D01*
X0209380Y0073668D01*
X0208810Y0073668D01*
X0208333Y0073192D01*
X0207856Y0073668D01*
X0202117Y0073668D01*
X0201122Y0072673D01*
X0201122Y0072050D01*
X0199182Y0072050D01*
X0195383Y0075849D01*
X0195383Y0076174D01*
X0195415Y0076174D01*
X0195975Y0076733D01*
X0196034Y0076674D01*
X0196376Y0076476D01*
X0196758Y0076374D01*
X0198144Y0076374D01*
X0198144Y0082803D01*
X0198522Y0082803D01*
X0198522Y0076374D01*
X0199909Y0076374D01*
X0200290Y0076476D01*
X0200632Y0076674D01*
X0200912Y0076953D01*
X0201109Y0077295D01*
X0201211Y0077677D01*
X0201211Y0082803D01*
X0198522Y0082803D01*
X0198522Y0083181D01*
X0198144Y0083181D01*
X0198144Y0089610D01*
X0196758Y0089610D01*
X0196376Y0089508D01*
X0196034Y0089311D01*
X0195975Y0089251D01*
X0195415Y0089810D01*
X0191251Y0089810D01*
X0190833Y0089392D01*
X0190415Y0089810D01*
X0186251Y0089810D01*
X0185833Y0089392D01*
X0185415Y0089810D01*
X0181251Y0089810D01*
X0180833Y0089392D01*
X0180415Y0089810D01*
X0180383Y0089810D01*
X0180383Y0090095D01*
X0181004Y0090716D01*
X0181483Y0091873D01*
X0181483Y0093127D01*
X0181004Y0094284D01*
X0180620Y0094669D01*
X0210412Y0094669D01*
X0211033Y0094047D01*
X0211033Y0089810D01*
X0211033Y0089933D02*
X0180383Y0089933D01*
X0181093Y0090932D02*
X0211033Y0090932D01*
X0211033Y0091930D02*
X0181483Y0091930D01*
X0181483Y0092929D02*
X0211033Y0092929D01*
X0211033Y0093927D02*
X0181152Y0093927D01*
X0198144Y0088934D02*
X0198522Y0088934D01*
X0198522Y0089610D02*
X0198522Y0083181D01*
X0201211Y0083181D01*
X0201211Y0088308D01*
X0201109Y0088689D01*
X0200912Y0089031D01*
X0200632Y0089311D01*
X0200290Y0089508D01*
X0199909Y0089610D01*
X0198522Y0089610D01*
X0198522Y0087936D02*
X0198144Y0087936D01*
X0198144Y0086937D02*
X0198522Y0086937D01*
X0198522Y0085939D02*
X0198144Y0085939D01*
X0198144Y0084940D02*
X0198522Y0084940D01*
X0198522Y0083942D02*
X0198144Y0083942D01*
X0198522Y0082943D02*
X0206712Y0082943D01*
X0206712Y0081945D02*
X0201211Y0081945D01*
X0201211Y0080946D02*
X0206712Y0080946D01*
X0206712Y0079948D02*
X0201211Y0079948D01*
X0201211Y0078949D02*
X0206712Y0078949D01*
X0206712Y0077951D02*
X0201211Y0077951D01*
X0200911Y0076952D02*
X0206930Y0076952D01*
X0210036Y0074955D02*
X0196277Y0074955D01*
X0195383Y0075954D02*
X0211033Y0075954D01*
X0209380Y0073957D02*
X0197276Y0073957D01*
X0198274Y0072958D02*
X0201407Y0072958D01*
X0198522Y0076952D02*
X0198144Y0076952D01*
X0198144Y0077951D02*
X0198522Y0077951D01*
X0198522Y0078949D02*
X0198144Y0078949D01*
X0198144Y0079948D02*
X0198522Y0079948D01*
X0198522Y0080946D02*
X0198144Y0080946D01*
X0198144Y0081945D02*
X0198522Y0081945D01*
X0201211Y0083942D02*
X0206712Y0083942D01*
X0206712Y0084940D02*
X0201211Y0084940D01*
X0201211Y0085939D02*
X0206712Y0085939D01*
X0206712Y0086937D02*
X0201211Y0086937D01*
X0201211Y0087936D02*
X0206712Y0087936D01*
X0206832Y0088934D02*
X0200967Y0088934D01*
X0212318Y0099268D02*
X0213976Y0097610D01*
X0213976Y0098854D01*
X0214059Y0098937D01*
X0213976Y0099020D01*
X0213976Y0102791D01*
X0214972Y0103787D01*
X0221283Y0103787D01*
X0221283Y0124151D01*
X0217484Y0127950D01*
X0210545Y0127950D01*
X0210545Y0127327D01*
X0209549Y0126331D01*
X0203810Y0126331D01*
X0203333Y0126808D01*
X0202856Y0126331D01*
X0197117Y0126331D01*
X0196122Y0127327D01*
X0196122Y0127950D01*
X0194483Y0127950D01*
X0194483Y0126796D01*
X0193487Y0125800D01*
X0190433Y0125800D01*
X0190433Y0125130D01*
X0188203Y0122900D01*
X0186463Y0122900D01*
X0186413Y0122950D01*
X0185268Y0122950D01*
X0185545Y0122673D01*
X0185545Y0117327D01*
X0184725Y0116507D01*
X0185383Y0115849D01*
X0185383Y0113826D01*
X0185415Y0113826D01*
X0185833Y0113408D01*
X0186251Y0113826D01*
X0190415Y0113826D01*
X0190833Y0113408D01*
X0191251Y0113826D01*
X0191283Y0113826D01*
X0191283Y0115849D01*
X0191942Y0116507D01*
X0191122Y0117327D01*
X0191122Y0122673D01*
X0192117Y0123668D01*
X0197856Y0123668D01*
X0198333Y0123192D01*
X0198810Y0123668D01*
X0204549Y0123668D01*
X0205545Y0122673D01*
X0205545Y0122050D01*
X0206122Y0122050D01*
X0206122Y0122673D01*
X0207117Y0123668D01*
X0212856Y0123668D01*
X0213475Y0123050D01*
X0213593Y0123169D01*
X0213935Y0123366D01*
X0214317Y0123468D01*
X0216196Y0123468D01*
X0216196Y0120484D01*
X0217164Y0120484D01*
X0220345Y0120484D01*
X0220345Y0122166D01*
X0220243Y0122547D01*
X0220045Y0122890D01*
X0219766Y0123169D01*
X0219424Y0123366D01*
X0219043Y0123468D01*
X0217164Y0123468D01*
X0217164Y0120484D01*
X0217164Y0119516D01*
X0220345Y0119516D01*
X0220345Y0117834D01*
X0220243Y0117453D01*
X0220045Y0117110D01*
X0219766Y0116831D01*
X0219424Y0116634D01*
X0219043Y0116531D01*
X0217164Y0116531D01*
X0217164Y0119516D01*
X0216196Y0119516D01*
X0216196Y0116531D01*
X0214317Y0116531D01*
X0213935Y0116634D01*
X0213593Y0116831D01*
X0213475Y0116950D01*
X0212856Y0116331D01*
X0207117Y0116331D01*
X0206122Y0117327D01*
X0206122Y0117950D01*
X0205545Y0117950D01*
X0205545Y0117327D01*
X0204549Y0116331D01*
X0198810Y0116331D01*
X0198333Y0116808D01*
X0197856Y0116331D01*
X0197037Y0116331D01*
X0197037Y0115804D01*
X0195383Y0114151D01*
X0195383Y0113826D01*
X0195415Y0113826D01*
X0195833Y0113408D01*
X0196251Y0113826D01*
X0200415Y0113826D01*
X0201411Y0112830D01*
X0201411Y0101186D01*
X0200415Y0100190D01*
X0200383Y0100190D01*
X0200383Y0099268D01*
X0212318Y0099268D01*
X0212666Y0098920D02*
X0214042Y0098920D01*
X0213976Y0099918D02*
X0200383Y0099918D01*
X0201142Y0100917D02*
X0206981Y0100917D01*
X0206712Y0101186D02*
X0207708Y0100190D01*
X0212266Y0100190D01*
X0213262Y0101186D01*
X0213262Y0112830D01*
X0212266Y0113826D01*
X0207708Y0113826D01*
X0206712Y0112830D01*
X0206712Y0101186D01*
X0206712Y0101915D02*
X0201411Y0101915D01*
X0201411Y0102914D02*
X0206712Y0102914D01*
X0206712Y0103912D02*
X0201411Y0103912D01*
X0201411Y0104911D02*
X0206712Y0104911D01*
X0206712Y0105909D02*
X0201411Y0105909D01*
X0201411Y0106908D02*
X0206712Y0106908D01*
X0206712Y0107906D02*
X0201411Y0107906D01*
X0201411Y0108905D02*
X0206712Y0108905D01*
X0206712Y0109903D02*
X0201411Y0109903D01*
X0201411Y0110902D02*
X0206712Y0110902D01*
X0206712Y0111900D02*
X0201411Y0111900D01*
X0201343Y0112899D02*
X0206781Y0112899D01*
X0213193Y0112899D02*
X0221283Y0112899D01*
X0221283Y0113897D02*
X0195383Y0113897D01*
X0196128Y0114896D02*
X0221283Y0114896D01*
X0221283Y0115894D02*
X0197037Y0115894D01*
X0191556Y0116893D02*
X0185111Y0116893D01*
X0185338Y0115894D02*
X0191329Y0115894D01*
X0191283Y0114896D02*
X0185383Y0114896D01*
X0185383Y0113897D02*
X0191283Y0113897D01*
X0191122Y0117891D02*
X0185545Y0117891D01*
X0185545Y0118890D02*
X0191122Y0118890D01*
X0191122Y0119888D02*
X0185545Y0119888D01*
X0185545Y0120887D02*
X0191122Y0120887D01*
X0191122Y0121885D02*
X0185545Y0121885D01*
X0185334Y0122884D02*
X0191333Y0122884D01*
X0190184Y0124881D02*
X0220553Y0124881D01*
X0221283Y0123882D02*
X0189186Y0123882D01*
X0193567Y0125879D02*
X0219555Y0125879D01*
X0218556Y0126878D02*
X0210096Y0126878D01*
X0210545Y0127876D02*
X0217558Y0127876D01*
X0225353Y0125879D02*
X0225908Y0125879D01*
X0225383Y0124881D02*
X0236233Y0124881D01*
X0236233Y0125879D02*
X0230758Y0125879D01*
X0233106Y0126734D02*
X0233106Y0126734D01*
X0233278Y0126878D02*
X0236233Y0126878D01*
X0236233Y0127876D02*
X0234468Y0127876D01*
X0235645Y0128865D02*
X0235645Y0128865D01*
X0235645Y0128865D01*
X0235651Y0128875D02*
X0236233Y0128875D01*
X0236228Y0129873D02*
X0236233Y0129873D01*
X0236233Y0123882D02*
X0225383Y0123882D01*
X0225383Y0122884D02*
X0236233Y0122884D01*
X0236233Y0121885D02*
X0225383Y0121885D01*
X0225383Y0120887D02*
X0236233Y0120887D01*
X0236233Y0119888D02*
X0225383Y0119888D01*
X0225383Y0118890D02*
X0236233Y0118890D01*
X0236233Y0117891D02*
X0225383Y0117891D01*
X0225383Y0116893D02*
X0236233Y0116893D01*
X0236233Y0115894D02*
X0225383Y0115894D01*
X0225383Y0114896D02*
X0236233Y0114896D01*
X0236233Y0113897D02*
X0225383Y0113897D01*
X0225383Y0112899D02*
X0236233Y0112899D01*
X0236233Y0111900D02*
X0225383Y0111900D01*
X0225383Y0110902D02*
X0236233Y0110902D01*
X0227978Y0109903D02*
X0225383Y0109903D01*
X0225383Y0108905D02*
X0227165Y0108905D01*
X0227165Y0107906D02*
X0225383Y0107906D01*
X0225383Y0106908D02*
X0227165Y0106908D01*
X0227165Y0105909D02*
X0225383Y0105909D01*
X0225383Y0104911D02*
X0227165Y0104911D01*
X0227165Y0103912D02*
X0225383Y0103912D01*
X0225383Y0102914D02*
X0227208Y0102914D01*
X0225383Y0101915D02*
X0236233Y0101915D01*
X0236233Y0100917D02*
X0225149Y0100917D01*
X0224151Y0099918D02*
X0236233Y0099918D01*
X0236233Y0098920D02*
X0227313Y0098920D01*
X0221283Y0103912D02*
X0213262Y0103912D01*
X0213262Y0102914D02*
X0214099Y0102914D01*
X0213976Y0101915D02*
X0213262Y0101915D01*
X0212993Y0100917D02*
X0213976Y0100917D01*
X0213976Y0097921D02*
X0213665Y0097921D01*
X0213262Y0104911D02*
X0221283Y0104911D01*
X0221283Y0105909D02*
X0213262Y0105909D01*
X0213262Y0106908D02*
X0221283Y0106908D01*
X0221283Y0107906D02*
X0213262Y0107906D01*
X0213262Y0108905D02*
X0221283Y0108905D01*
X0221283Y0109903D02*
X0213262Y0109903D01*
X0213262Y0110902D02*
X0221283Y0110902D01*
X0221283Y0111900D02*
X0213262Y0111900D01*
X0213418Y0116893D02*
X0213532Y0116893D01*
X0216196Y0116893D02*
X0217164Y0116893D01*
X0217164Y0117891D02*
X0216196Y0117891D01*
X0216196Y0118890D02*
X0217164Y0118890D01*
X0217164Y0119888D02*
X0221283Y0119888D01*
X0221283Y0118890D02*
X0220345Y0118890D01*
X0220345Y0117891D02*
X0221283Y0117891D01*
X0221283Y0116893D02*
X0219828Y0116893D01*
X0220345Y0120887D02*
X0221283Y0120887D01*
X0221283Y0121885D02*
X0220345Y0121885D01*
X0220049Y0122884D02*
X0221283Y0122884D01*
X0217164Y0122884D02*
X0216196Y0122884D01*
X0216196Y0121885D02*
X0217164Y0121885D01*
X0217164Y0120887D02*
X0216196Y0120887D01*
X0206556Y0116893D02*
X0205111Y0116893D01*
X0205545Y0117891D02*
X0206122Y0117891D01*
X0206333Y0122884D02*
X0205334Y0122884D01*
X0196571Y0126878D02*
X0194483Y0126878D01*
X0194483Y0127876D02*
X0196122Y0127876D01*
X0175471Y0118890D02*
X0174503Y0118890D01*
X0174503Y0119516D02*
X0174503Y0116531D01*
X0172624Y0116531D01*
X0172243Y0116634D01*
X0171900Y0116831D01*
X0171621Y0117110D01*
X0171424Y0117453D01*
X0171322Y0117834D01*
X0171322Y0119516D01*
X0174503Y0119516D01*
X0174503Y0119888D02*
X0167164Y0119888D01*
X0167164Y0119516D02*
X0170345Y0119516D01*
X0170345Y0117834D01*
X0170243Y0117453D01*
X0170045Y0117110D01*
X0169766Y0116831D01*
X0169424Y0116634D01*
X0169043Y0116531D01*
X0167164Y0116531D01*
X0167164Y0119516D01*
X0167164Y0118890D02*
X0166196Y0118890D01*
X0166196Y0117891D02*
X0167164Y0117891D01*
X0167164Y0116893D02*
X0166196Y0116893D01*
X0163532Y0116893D02*
X0163418Y0116893D01*
X0169828Y0116893D02*
X0171839Y0116893D01*
X0171322Y0117891D02*
X0170345Y0117891D01*
X0170345Y0118890D02*
X0171322Y0118890D01*
X0171322Y0120887D02*
X0170345Y0120887D01*
X0170345Y0121885D02*
X0171322Y0121885D01*
X0171618Y0122884D02*
X0170049Y0122884D01*
X0174503Y0117891D02*
X0175471Y0117891D01*
X0175471Y0116893D02*
X0174503Y0116893D01*
X0178135Y0116893D02*
X0178249Y0116893D01*
X0179630Y0115894D02*
X0158433Y0115894D01*
X0158433Y0114896D02*
X0180538Y0114896D01*
X0181283Y0113897D02*
X0158433Y0113897D01*
X0164503Y0072958D02*
X0165471Y0072958D01*
X0165471Y0071960D02*
X0164503Y0071960D01*
X0164503Y0070961D02*
X0165471Y0070961D01*
X0164503Y0069963D02*
X0140433Y0069963D01*
X0164503Y0068964D02*
X0165471Y0068964D01*
X0165471Y0067966D02*
X0164503Y0067966D01*
X0164503Y0066967D02*
X0165471Y0066967D01*
X0199336Y0066967D02*
X0201482Y0066967D01*
X0205327Y0060976D02*
X0236233Y0060976D01*
X0236233Y0059978D02*
X0206325Y0059978D01*
X0207324Y0058979D02*
X0236233Y0058979D01*
X0236233Y0057981D02*
X0208323Y0057981D01*
X0209203Y0057100D02*
X0209203Y0057100D01*
X0209321Y0056982D02*
X0236233Y0056982D01*
X0236233Y0055984D02*
X0210320Y0055984D01*
X0210433Y0054985D02*
X0236233Y0054985D01*
X0236233Y0053987D02*
X0211983Y0053987D01*
X0212941Y0052988D02*
X0236233Y0052988D01*
X0236233Y0051990D02*
X0213354Y0051990D01*
X0213733Y0050991D02*
X0233152Y0050991D01*
X0232259Y0049993D02*
X0213733Y0049993D01*
X0213733Y0048994D02*
X0231883Y0048994D01*
X0231883Y0047996D02*
X0213348Y0047996D01*
D23*
X0208333Y0065000D03*
X0203333Y0075000D03*
X0218333Y0075000D03*
X0185333Y0068000D03*
X0158333Y0080000D03*
X0178333Y0092500D03*
X0153333Y0110000D03*
X0163333Y0115000D03*
X0173333Y0115000D03*
X0218333Y0115000D03*
X0228333Y0095000D03*
M02*
