G75*
%MOIN*%
%OFA0B0*%
%FSLAX25Y25*%
%IPPOS*%
%LPD*%
%AMOC8*
5,1,8,0,0,1.08239X$1,22.5*
%
%ADD10C,0.00800*%
%ADD11C,0.00000*%
D10*
X0138333Y0045000D02*
X0238333Y0045000D01*
X0238333Y0145000D01*
X0138333Y0145000D01*
X0138333Y0045000D01*
D11*
X0141833Y0135000D02*
X0141835Y0135161D01*
X0141841Y0135321D01*
X0141851Y0135482D01*
X0141865Y0135642D01*
X0141883Y0135802D01*
X0141904Y0135961D01*
X0141930Y0136120D01*
X0141960Y0136278D01*
X0141993Y0136435D01*
X0142031Y0136592D01*
X0142072Y0136747D01*
X0142117Y0136901D01*
X0142166Y0137054D01*
X0142219Y0137206D01*
X0142275Y0137357D01*
X0142336Y0137506D01*
X0142399Y0137654D01*
X0142467Y0137800D01*
X0142538Y0137944D01*
X0142612Y0138086D01*
X0142690Y0138227D01*
X0142772Y0138365D01*
X0142857Y0138502D01*
X0142945Y0138636D01*
X0143037Y0138768D01*
X0143132Y0138898D01*
X0143230Y0139026D01*
X0143331Y0139151D01*
X0143435Y0139273D01*
X0143542Y0139393D01*
X0143652Y0139510D01*
X0143765Y0139625D01*
X0143881Y0139736D01*
X0144000Y0139845D01*
X0144121Y0139950D01*
X0144245Y0140053D01*
X0144371Y0140153D01*
X0144499Y0140249D01*
X0144630Y0140342D01*
X0144764Y0140432D01*
X0144899Y0140519D01*
X0145037Y0140602D01*
X0145176Y0140682D01*
X0145318Y0140758D01*
X0145461Y0140831D01*
X0145606Y0140900D01*
X0145753Y0140966D01*
X0145901Y0141028D01*
X0146051Y0141086D01*
X0146202Y0141141D01*
X0146355Y0141192D01*
X0146509Y0141239D01*
X0146664Y0141282D01*
X0146820Y0141321D01*
X0146976Y0141357D01*
X0147134Y0141388D01*
X0147292Y0141416D01*
X0147451Y0141440D01*
X0147611Y0141460D01*
X0147771Y0141476D01*
X0147931Y0141488D01*
X0148092Y0141496D01*
X0148253Y0141500D01*
X0148413Y0141500D01*
X0148574Y0141496D01*
X0148735Y0141488D01*
X0148895Y0141476D01*
X0149055Y0141460D01*
X0149215Y0141440D01*
X0149374Y0141416D01*
X0149532Y0141388D01*
X0149690Y0141357D01*
X0149846Y0141321D01*
X0150002Y0141282D01*
X0150157Y0141239D01*
X0150311Y0141192D01*
X0150464Y0141141D01*
X0150615Y0141086D01*
X0150765Y0141028D01*
X0150913Y0140966D01*
X0151060Y0140900D01*
X0151205Y0140831D01*
X0151348Y0140758D01*
X0151490Y0140682D01*
X0151629Y0140602D01*
X0151767Y0140519D01*
X0151902Y0140432D01*
X0152036Y0140342D01*
X0152167Y0140249D01*
X0152295Y0140153D01*
X0152421Y0140053D01*
X0152545Y0139950D01*
X0152666Y0139845D01*
X0152785Y0139736D01*
X0152901Y0139625D01*
X0153014Y0139510D01*
X0153124Y0139393D01*
X0153231Y0139273D01*
X0153335Y0139151D01*
X0153436Y0139026D01*
X0153534Y0138898D01*
X0153629Y0138768D01*
X0153721Y0138636D01*
X0153809Y0138502D01*
X0153894Y0138365D01*
X0153976Y0138227D01*
X0154054Y0138086D01*
X0154128Y0137944D01*
X0154199Y0137800D01*
X0154267Y0137654D01*
X0154330Y0137506D01*
X0154391Y0137357D01*
X0154447Y0137206D01*
X0154500Y0137054D01*
X0154549Y0136901D01*
X0154594Y0136747D01*
X0154635Y0136592D01*
X0154673Y0136435D01*
X0154706Y0136278D01*
X0154736Y0136120D01*
X0154762Y0135961D01*
X0154783Y0135802D01*
X0154801Y0135642D01*
X0154815Y0135482D01*
X0154825Y0135321D01*
X0154831Y0135161D01*
X0154833Y0135000D01*
X0154831Y0134839D01*
X0154825Y0134679D01*
X0154815Y0134518D01*
X0154801Y0134358D01*
X0154783Y0134198D01*
X0154762Y0134039D01*
X0154736Y0133880D01*
X0154706Y0133722D01*
X0154673Y0133565D01*
X0154635Y0133408D01*
X0154594Y0133253D01*
X0154549Y0133099D01*
X0154500Y0132946D01*
X0154447Y0132794D01*
X0154391Y0132643D01*
X0154330Y0132494D01*
X0154267Y0132346D01*
X0154199Y0132200D01*
X0154128Y0132056D01*
X0154054Y0131914D01*
X0153976Y0131773D01*
X0153894Y0131635D01*
X0153809Y0131498D01*
X0153721Y0131364D01*
X0153629Y0131232D01*
X0153534Y0131102D01*
X0153436Y0130974D01*
X0153335Y0130849D01*
X0153231Y0130727D01*
X0153124Y0130607D01*
X0153014Y0130490D01*
X0152901Y0130375D01*
X0152785Y0130264D01*
X0152666Y0130155D01*
X0152545Y0130050D01*
X0152421Y0129947D01*
X0152295Y0129847D01*
X0152167Y0129751D01*
X0152036Y0129658D01*
X0151902Y0129568D01*
X0151767Y0129481D01*
X0151629Y0129398D01*
X0151490Y0129318D01*
X0151348Y0129242D01*
X0151205Y0129169D01*
X0151060Y0129100D01*
X0150913Y0129034D01*
X0150765Y0128972D01*
X0150615Y0128914D01*
X0150464Y0128859D01*
X0150311Y0128808D01*
X0150157Y0128761D01*
X0150002Y0128718D01*
X0149846Y0128679D01*
X0149690Y0128643D01*
X0149532Y0128612D01*
X0149374Y0128584D01*
X0149215Y0128560D01*
X0149055Y0128540D01*
X0148895Y0128524D01*
X0148735Y0128512D01*
X0148574Y0128504D01*
X0148413Y0128500D01*
X0148253Y0128500D01*
X0148092Y0128504D01*
X0147931Y0128512D01*
X0147771Y0128524D01*
X0147611Y0128540D01*
X0147451Y0128560D01*
X0147292Y0128584D01*
X0147134Y0128612D01*
X0146976Y0128643D01*
X0146820Y0128679D01*
X0146664Y0128718D01*
X0146509Y0128761D01*
X0146355Y0128808D01*
X0146202Y0128859D01*
X0146051Y0128914D01*
X0145901Y0128972D01*
X0145753Y0129034D01*
X0145606Y0129100D01*
X0145461Y0129169D01*
X0145318Y0129242D01*
X0145176Y0129318D01*
X0145037Y0129398D01*
X0144899Y0129481D01*
X0144764Y0129568D01*
X0144630Y0129658D01*
X0144499Y0129751D01*
X0144371Y0129847D01*
X0144245Y0129947D01*
X0144121Y0130050D01*
X0144000Y0130155D01*
X0143881Y0130264D01*
X0143765Y0130375D01*
X0143652Y0130490D01*
X0143542Y0130607D01*
X0143435Y0130727D01*
X0143331Y0130849D01*
X0143230Y0130974D01*
X0143132Y0131102D01*
X0143037Y0131232D01*
X0142945Y0131364D01*
X0142857Y0131498D01*
X0142772Y0131635D01*
X0142690Y0131773D01*
X0142612Y0131914D01*
X0142538Y0132056D01*
X0142467Y0132200D01*
X0142399Y0132346D01*
X0142336Y0132494D01*
X0142275Y0132643D01*
X0142219Y0132794D01*
X0142166Y0132946D01*
X0142117Y0133099D01*
X0142072Y0133253D01*
X0142031Y0133408D01*
X0141993Y0133565D01*
X0141960Y0133722D01*
X0141930Y0133880D01*
X0141904Y0134039D01*
X0141883Y0134198D01*
X0141865Y0134358D01*
X0141851Y0134518D01*
X0141841Y0134679D01*
X0141835Y0134839D01*
X0141833Y0135000D01*
X0221833Y0135000D02*
X0221835Y0135161D01*
X0221841Y0135321D01*
X0221851Y0135482D01*
X0221865Y0135642D01*
X0221883Y0135802D01*
X0221904Y0135961D01*
X0221930Y0136120D01*
X0221960Y0136278D01*
X0221993Y0136435D01*
X0222031Y0136592D01*
X0222072Y0136747D01*
X0222117Y0136901D01*
X0222166Y0137054D01*
X0222219Y0137206D01*
X0222275Y0137357D01*
X0222336Y0137506D01*
X0222399Y0137654D01*
X0222467Y0137800D01*
X0222538Y0137944D01*
X0222612Y0138086D01*
X0222690Y0138227D01*
X0222772Y0138365D01*
X0222857Y0138502D01*
X0222945Y0138636D01*
X0223037Y0138768D01*
X0223132Y0138898D01*
X0223230Y0139026D01*
X0223331Y0139151D01*
X0223435Y0139273D01*
X0223542Y0139393D01*
X0223652Y0139510D01*
X0223765Y0139625D01*
X0223881Y0139736D01*
X0224000Y0139845D01*
X0224121Y0139950D01*
X0224245Y0140053D01*
X0224371Y0140153D01*
X0224499Y0140249D01*
X0224630Y0140342D01*
X0224764Y0140432D01*
X0224899Y0140519D01*
X0225037Y0140602D01*
X0225176Y0140682D01*
X0225318Y0140758D01*
X0225461Y0140831D01*
X0225606Y0140900D01*
X0225753Y0140966D01*
X0225901Y0141028D01*
X0226051Y0141086D01*
X0226202Y0141141D01*
X0226355Y0141192D01*
X0226509Y0141239D01*
X0226664Y0141282D01*
X0226820Y0141321D01*
X0226976Y0141357D01*
X0227134Y0141388D01*
X0227292Y0141416D01*
X0227451Y0141440D01*
X0227611Y0141460D01*
X0227771Y0141476D01*
X0227931Y0141488D01*
X0228092Y0141496D01*
X0228253Y0141500D01*
X0228413Y0141500D01*
X0228574Y0141496D01*
X0228735Y0141488D01*
X0228895Y0141476D01*
X0229055Y0141460D01*
X0229215Y0141440D01*
X0229374Y0141416D01*
X0229532Y0141388D01*
X0229690Y0141357D01*
X0229846Y0141321D01*
X0230002Y0141282D01*
X0230157Y0141239D01*
X0230311Y0141192D01*
X0230464Y0141141D01*
X0230615Y0141086D01*
X0230765Y0141028D01*
X0230913Y0140966D01*
X0231060Y0140900D01*
X0231205Y0140831D01*
X0231348Y0140758D01*
X0231490Y0140682D01*
X0231629Y0140602D01*
X0231767Y0140519D01*
X0231902Y0140432D01*
X0232036Y0140342D01*
X0232167Y0140249D01*
X0232295Y0140153D01*
X0232421Y0140053D01*
X0232545Y0139950D01*
X0232666Y0139845D01*
X0232785Y0139736D01*
X0232901Y0139625D01*
X0233014Y0139510D01*
X0233124Y0139393D01*
X0233231Y0139273D01*
X0233335Y0139151D01*
X0233436Y0139026D01*
X0233534Y0138898D01*
X0233629Y0138768D01*
X0233721Y0138636D01*
X0233809Y0138502D01*
X0233894Y0138365D01*
X0233976Y0138227D01*
X0234054Y0138086D01*
X0234128Y0137944D01*
X0234199Y0137800D01*
X0234267Y0137654D01*
X0234330Y0137506D01*
X0234391Y0137357D01*
X0234447Y0137206D01*
X0234500Y0137054D01*
X0234549Y0136901D01*
X0234594Y0136747D01*
X0234635Y0136592D01*
X0234673Y0136435D01*
X0234706Y0136278D01*
X0234736Y0136120D01*
X0234762Y0135961D01*
X0234783Y0135802D01*
X0234801Y0135642D01*
X0234815Y0135482D01*
X0234825Y0135321D01*
X0234831Y0135161D01*
X0234833Y0135000D01*
X0234831Y0134839D01*
X0234825Y0134679D01*
X0234815Y0134518D01*
X0234801Y0134358D01*
X0234783Y0134198D01*
X0234762Y0134039D01*
X0234736Y0133880D01*
X0234706Y0133722D01*
X0234673Y0133565D01*
X0234635Y0133408D01*
X0234594Y0133253D01*
X0234549Y0133099D01*
X0234500Y0132946D01*
X0234447Y0132794D01*
X0234391Y0132643D01*
X0234330Y0132494D01*
X0234267Y0132346D01*
X0234199Y0132200D01*
X0234128Y0132056D01*
X0234054Y0131914D01*
X0233976Y0131773D01*
X0233894Y0131635D01*
X0233809Y0131498D01*
X0233721Y0131364D01*
X0233629Y0131232D01*
X0233534Y0131102D01*
X0233436Y0130974D01*
X0233335Y0130849D01*
X0233231Y0130727D01*
X0233124Y0130607D01*
X0233014Y0130490D01*
X0232901Y0130375D01*
X0232785Y0130264D01*
X0232666Y0130155D01*
X0232545Y0130050D01*
X0232421Y0129947D01*
X0232295Y0129847D01*
X0232167Y0129751D01*
X0232036Y0129658D01*
X0231902Y0129568D01*
X0231767Y0129481D01*
X0231629Y0129398D01*
X0231490Y0129318D01*
X0231348Y0129242D01*
X0231205Y0129169D01*
X0231060Y0129100D01*
X0230913Y0129034D01*
X0230765Y0128972D01*
X0230615Y0128914D01*
X0230464Y0128859D01*
X0230311Y0128808D01*
X0230157Y0128761D01*
X0230002Y0128718D01*
X0229846Y0128679D01*
X0229690Y0128643D01*
X0229532Y0128612D01*
X0229374Y0128584D01*
X0229215Y0128560D01*
X0229055Y0128540D01*
X0228895Y0128524D01*
X0228735Y0128512D01*
X0228574Y0128504D01*
X0228413Y0128500D01*
X0228253Y0128500D01*
X0228092Y0128504D01*
X0227931Y0128512D01*
X0227771Y0128524D01*
X0227611Y0128540D01*
X0227451Y0128560D01*
X0227292Y0128584D01*
X0227134Y0128612D01*
X0226976Y0128643D01*
X0226820Y0128679D01*
X0226664Y0128718D01*
X0226509Y0128761D01*
X0226355Y0128808D01*
X0226202Y0128859D01*
X0226051Y0128914D01*
X0225901Y0128972D01*
X0225753Y0129034D01*
X0225606Y0129100D01*
X0225461Y0129169D01*
X0225318Y0129242D01*
X0225176Y0129318D01*
X0225037Y0129398D01*
X0224899Y0129481D01*
X0224764Y0129568D01*
X0224630Y0129658D01*
X0224499Y0129751D01*
X0224371Y0129847D01*
X0224245Y0129947D01*
X0224121Y0130050D01*
X0224000Y0130155D01*
X0223881Y0130264D01*
X0223765Y0130375D01*
X0223652Y0130490D01*
X0223542Y0130607D01*
X0223435Y0130727D01*
X0223331Y0130849D01*
X0223230Y0130974D01*
X0223132Y0131102D01*
X0223037Y0131232D01*
X0222945Y0131364D01*
X0222857Y0131498D01*
X0222772Y0131635D01*
X0222690Y0131773D01*
X0222612Y0131914D01*
X0222538Y0132056D01*
X0222467Y0132200D01*
X0222399Y0132346D01*
X0222336Y0132494D01*
X0222275Y0132643D01*
X0222219Y0132794D01*
X0222166Y0132946D01*
X0222117Y0133099D01*
X0222072Y0133253D01*
X0222031Y0133408D01*
X0221993Y0133565D01*
X0221960Y0133722D01*
X0221930Y0133880D01*
X0221904Y0134039D01*
X0221883Y0134198D01*
X0221865Y0134358D01*
X0221851Y0134518D01*
X0221841Y0134679D01*
X0221835Y0134839D01*
X0221833Y0135000D01*
M02*
