G75*
%MOIN*%
%OFA0B0*%
%FSLAX25Y25*%
%IPPOS*%
%LPD*%
%AMOC8*
5,1,8,0,0,1.08239X$1,22.5*
%
%ADD10C,0.00800*%
%ADD11R,0.02500X0.05000*%
%ADD12C,0.07400*%
%ADD13C,0.02500*%
%ADD14C,0.01000*%
%ADD15C,0.02900*%
%ADD16C,0.00700*%
D10*
X0142329Y0047900D02*
X0145131Y0047900D01*
X0143730Y0047900D02*
X0143730Y0052104D01*
X0145131Y0050702D01*
X0146933Y0051403D02*
X0149735Y0048601D01*
X0149035Y0047900D01*
X0147634Y0047900D01*
X0146933Y0048601D01*
X0146933Y0051403D01*
X0147634Y0052104D01*
X0149035Y0052104D01*
X0149735Y0051403D01*
X0149735Y0048601D01*
X0151537Y0050702D02*
X0152938Y0047900D01*
X0154339Y0050702D01*
X0178333Y0075000D02*
X0185333Y0068000D01*
X0178333Y0075000D02*
X0163333Y0075000D01*
X0158333Y0080000D01*
D11*
X0221562Y0065000D03*
X0225105Y0065000D03*
D12*
X0208333Y0050000D03*
X0198333Y0050000D03*
X0188333Y0050000D03*
X0178333Y0050000D03*
X0168333Y0050000D03*
D13*
X0234833Y0048500D03*
X0141333Y0142000D03*
D14*
X0140433Y0129883D02*
X0140433Y0048974D01*
X0141459Y0050000D01*
X0141630Y0050000D01*
X0141630Y0052973D01*
X0142236Y0053580D01*
X0142860Y0054204D01*
X0144600Y0054204D01*
X0145464Y0053339D01*
X0145682Y0053122D01*
X0146750Y0054190D01*
X0146764Y0054204D01*
X0146764Y0054204D01*
X0148165Y0054204D01*
X0148165Y0054204D01*
X0148325Y0054204D01*
X0148503Y0054204D01*
X0148503Y0054204D01*
X0149905Y0054204D01*
X0151135Y0052973D01*
X0151135Y0052973D01*
X0151218Y0052891D01*
X0151376Y0052970D01*
X0152938Y0052449D01*
X0154500Y0052970D01*
X0156056Y0052192D01*
X0156607Y0050541D01*
X0154886Y0047100D01*
X0164013Y0047100D01*
X0163886Y0047275D01*
X0163514Y0048004D01*
X0163261Y0048782D01*
X0163148Y0049500D01*
X0167833Y0049500D01*
X0167833Y0050500D01*
X0163148Y0050500D01*
X0163261Y0051218D01*
X0163514Y0051996D01*
X0163886Y0052725D01*
X0164367Y0053388D01*
X0164946Y0053966D01*
X0165608Y0054447D01*
X0166337Y0054819D01*
X0167116Y0055072D01*
X0167833Y0055186D01*
X0167833Y0050500D01*
X0168833Y0050500D01*
X0168833Y0055186D01*
X0169551Y0055072D01*
X0170329Y0054819D01*
X0171059Y0054447D01*
X0171721Y0053966D01*
X0172300Y0053388D01*
X0172781Y0052725D01*
X0173152Y0051996D01*
X0173224Y0051776D01*
X0173755Y0053059D01*
X0175274Y0054578D01*
X0177259Y0055400D01*
X0179407Y0055400D01*
X0181392Y0054578D01*
X0182911Y0053059D01*
X0183333Y0052040D01*
X0183755Y0053059D01*
X0185274Y0054578D01*
X0187259Y0055400D01*
X0189407Y0055400D01*
X0191392Y0054578D01*
X0192911Y0053059D01*
X0193333Y0052040D01*
X0193755Y0053059D01*
X0195274Y0054578D01*
X0197259Y0055400D01*
X0199407Y0055400D01*
X0201392Y0054578D01*
X0202911Y0053059D01*
X0203333Y0052040D01*
X0203755Y0053059D01*
X0205274Y0054578D01*
X0207259Y0055400D01*
X0209407Y0055400D01*
X0211392Y0054578D01*
X0212911Y0053059D01*
X0213733Y0051074D01*
X0213733Y0048926D01*
X0212977Y0047100D01*
X0232220Y0047100D01*
X0231883Y0047913D01*
X0231883Y0049087D01*
X0232332Y0050171D01*
X0233162Y0051001D01*
X0234247Y0051450D01*
X0235420Y0051450D01*
X0236233Y0051113D01*
X0236233Y0129883D01*
X0235645Y0128865D01*
X0235645Y0128865D01*
X0235645Y0128865D01*
X0233106Y0126734D01*
X0233106Y0126734D01*
X0229991Y0125600D01*
X0226676Y0125600D01*
X0223561Y0126734D01*
X0223561Y0126734D01*
X0221021Y0128865D01*
X0221021Y0128865D01*
X0219364Y0131735D01*
X0219364Y0131735D01*
X0218788Y0135000D01*
X0218788Y0135000D01*
X0219364Y0138265D01*
X0219364Y0138265D01*
X0221021Y0141135D01*
X0221021Y0141135D01*
X0221021Y0141135D01*
X0223124Y0142900D01*
X0153542Y0142900D01*
X0155645Y0141135D01*
X0155645Y0141135D01*
X0157303Y0138265D01*
X0157303Y0138265D01*
X0157878Y0135000D01*
X0157878Y0135000D01*
X0157303Y0131735D01*
X0157303Y0131735D01*
X0155645Y0128865D01*
X0155645Y0128865D01*
X0155645Y0128865D01*
X0153106Y0126734D01*
X0153106Y0126734D01*
X0149991Y0125600D01*
X0146676Y0125600D01*
X0143561Y0126734D01*
X0143561Y0126734D01*
X0141021Y0128865D01*
X0140433Y0129883D01*
X0140433Y0129873D02*
X0140439Y0129873D01*
X0140433Y0128875D02*
X0141015Y0128875D01*
X0140433Y0127876D02*
X0142199Y0127876D01*
X0143389Y0126878D02*
X0140433Y0126878D01*
X0140433Y0125879D02*
X0145908Y0125879D01*
X0140433Y0124881D02*
X0236233Y0124881D01*
X0236233Y0125879D02*
X0230758Y0125879D01*
X0233278Y0126878D02*
X0236233Y0126878D01*
X0236233Y0127876D02*
X0234468Y0127876D01*
X0235651Y0128875D02*
X0236233Y0128875D01*
X0236228Y0129873D02*
X0236233Y0129873D01*
X0225908Y0125879D02*
X0150758Y0125879D01*
X0153278Y0126878D02*
X0223389Y0126878D01*
X0222199Y0127876D02*
X0154468Y0127876D01*
X0155651Y0128875D02*
X0221015Y0128875D01*
X0220439Y0129873D02*
X0156228Y0129873D01*
X0156804Y0130872D02*
X0219862Y0130872D01*
X0219340Y0131870D02*
X0157327Y0131870D01*
X0157503Y0132869D02*
X0219164Y0132869D01*
X0218988Y0133868D02*
X0157679Y0133868D01*
X0157855Y0134866D02*
X0218812Y0134866D01*
X0218941Y0135865D02*
X0157726Y0135865D01*
X0157550Y0136863D02*
X0219117Y0136863D01*
X0219293Y0137862D02*
X0157374Y0137862D01*
X0156959Y0138860D02*
X0219708Y0138860D01*
X0220284Y0139859D02*
X0156382Y0139859D01*
X0155806Y0140857D02*
X0220861Y0140857D01*
X0221880Y0141856D02*
X0154787Y0141856D01*
X0153597Y0142854D02*
X0223070Y0142854D01*
X0236233Y0123882D02*
X0140433Y0123882D01*
X0140433Y0122884D02*
X0236233Y0122884D01*
X0236233Y0121885D02*
X0140433Y0121885D01*
X0140433Y0120887D02*
X0236233Y0120887D01*
X0236233Y0119888D02*
X0140433Y0119888D01*
X0140433Y0118890D02*
X0236233Y0118890D01*
X0236233Y0117891D02*
X0140433Y0117891D01*
X0140433Y0116893D02*
X0236233Y0116893D01*
X0236233Y0115894D02*
X0140433Y0115894D01*
X0140433Y0114896D02*
X0236233Y0114896D01*
X0236233Y0113897D02*
X0140433Y0113897D01*
X0140433Y0112899D02*
X0152100Y0112899D01*
X0151549Y0112670D02*
X0150663Y0111784D01*
X0150183Y0110627D01*
X0150183Y0109373D01*
X0150663Y0108216D01*
X0151549Y0107330D01*
X0152707Y0106850D01*
X0153584Y0106850D01*
X0167484Y0092950D01*
X0175183Y0092950D01*
X0175183Y0091873D01*
X0175663Y0090716D01*
X0176549Y0089830D01*
X0177707Y0089350D01*
X0178960Y0089350D01*
X0180118Y0089830D01*
X0181004Y0090716D01*
X0181483Y0091873D01*
X0181483Y0092950D01*
X0225929Y0092950D01*
X0226549Y0092330D01*
X0227707Y0091850D01*
X0228960Y0091850D01*
X0230118Y0092330D01*
X0231004Y0093216D01*
X0231483Y0094373D01*
X0231483Y0095627D01*
X0231004Y0096784D01*
X0230118Y0097670D01*
X0228960Y0098150D01*
X0227707Y0098150D01*
X0226549Y0097670D01*
X0225929Y0097050D01*
X0169182Y0097050D01*
X0156483Y0109749D01*
X0156483Y0110627D01*
X0156004Y0111784D01*
X0155118Y0112670D01*
X0153960Y0113150D01*
X0152707Y0113150D01*
X0151549Y0112670D01*
X0150779Y0111900D02*
X0140433Y0111900D01*
X0140433Y0110902D02*
X0150297Y0110902D01*
X0150183Y0109903D02*
X0140433Y0109903D01*
X0140433Y0108905D02*
X0150377Y0108905D01*
X0150972Y0107906D02*
X0140433Y0107906D01*
X0140433Y0106908D02*
X0152567Y0106908D01*
X0154525Y0105909D02*
X0140433Y0105909D01*
X0140433Y0104911D02*
X0155523Y0104911D01*
X0156522Y0103912D02*
X0140433Y0103912D01*
X0140433Y0102914D02*
X0157521Y0102914D01*
X0158519Y0101915D02*
X0140433Y0101915D01*
X0140433Y0100917D02*
X0159518Y0100917D01*
X0160516Y0099918D02*
X0140433Y0099918D01*
X0140433Y0098920D02*
X0161515Y0098920D01*
X0162513Y0097921D02*
X0140433Y0097921D01*
X0140433Y0096923D02*
X0163512Y0096923D01*
X0164510Y0095924D02*
X0140433Y0095924D01*
X0140433Y0094926D02*
X0165509Y0094926D01*
X0166507Y0093927D02*
X0140433Y0093927D01*
X0140433Y0092929D02*
X0175183Y0092929D01*
X0175183Y0091930D02*
X0140433Y0091930D01*
X0140433Y0090932D02*
X0175573Y0090932D01*
X0176446Y0089933D02*
X0140433Y0089933D01*
X0140433Y0088934D02*
X0236233Y0088934D01*
X0236233Y0087936D02*
X0140433Y0087936D01*
X0140433Y0086937D02*
X0236233Y0086937D01*
X0236233Y0085939D02*
X0140433Y0085939D01*
X0140433Y0084940D02*
X0236233Y0084940D01*
X0236233Y0083942D02*
X0140433Y0083942D01*
X0140433Y0082943D02*
X0157208Y0082943D01*
X0157707Y0083150D02*
X0156549Y0082670D01*
X0155663Y0081784D01*
X0155183Y0080627D01*
X0155183Y0079373D01*
X0155663Y0078216D01*
X0156549Y0077330D01*
X0157707Y0076850D01*
X0158513Y0076850D01*
X0161233Y0074130D01*
X0162463Y0072900D01*
X0177463Y0072900D01*
X0182183Y0068180D01*
X0182183Y0067373D01*
X0182663Y0066216D01*
X0183549Y0065330D01*
X0184707Y0064850D01*
X0185960Y0064850D01*
X0187118Y0065330D01*
X0188004Y0066216D01*
X0188483Y0067373D01*
X0188483Y0068627D01*
X0188004Y0069784D01*
X0187118Y0070670D01*
X0185960Y0071150D01*
X0185153Y0071150D01*
X0180433Y0075870D01*
X0179203Y0077100D01*
X0164203Y0077100D01*
X0161483Y0079820D01*
X0161483Y0080627D01*
X0161004Y0081784D01*
X0160118Y0082670D01*
X0158960Y0083150D01*
X0157707Y0083150D01*
X0159459Y0082943D02*
X0236233Y0082943D01*
X0236233Y0081945D02*
X0160843Y0081945D01*
X0161351Y0080946D02*
X0236233Y0080946D01*
X0236233Y0079948D02*
X0161483Y0079948D01*
X0162354Y0078949D02*
X0236233Y0078949D01*
X0236233Y0077951D02*
X0163352Y0077951D01*
X0159410Y0075954D02*
X0140433Y0075954D01*
X0140433Y0076952D02*
X0157460Y0076952D01*
X0155928Y0077951D02*
X0140433Y0077951D01*
X0140433Y0078949D02*
X0155359Y0078949D01*
X0155183Y0079948D02*
X0140433Y0079948D01*
X0140433Y0080946D02*
X0155316Y0080946D01*
X0155823Y0081945D02*
X0140433Y0081945D01*
X0140433Y0074955D02*
X0160408Y0074955D01*
X0161407Y0073957D02*
X0140433Y0073957D01*
X0140433Y0072958D02*
X0162405Y0072958D01*
X0178404Y0071960D02*
X0140433Y0071960D01*
X0140433Y0070961D02*
X0179402Y0070961D01*
X0180401Y0069963D02*
X0140433Y0069963D01*
X0140433Y0068964D02*
X0181399Y0068964D01*
X0182183Y0067966D02*
X0140433Y0067966D01*
X0140433Y0066967D02*
X0182352Y0066967D01*
X0182910Y0065969D02*
X0140433Y0065969D01*
X0140433Y0064970D02*
X0184416Y0064970D01*
X0186250Y0064970D02*
X0205183Y0064970D01*
X0205183Y0064373D02*
X0205183Y0065627D01*
X0205663Y0066784D01*
X0206549Y0067670D01*
X0207707Y0068150D01*
X0208960Y0068150D01*
X0210118Y0067670D01*
X0210738Y0067050D01*
X0218612Y0067050D01*
X0218612Y0068204D01*
X0219608Y0069200D01*
X0223516Y0069200D01*
X0223716Y0069000D01*
X0224980Y0069000D01*
X0224980Y0065125D01*
X0225230Y0065125D01*
X0227855Y0065125D01*
X0227855Y0067697D01*
X0227753Y0068079D01*
X0227555Y0068421D01*
X0227276Y0068700D01*
X0226934Y0068898D01*
X0226552Y0069000D01*
X0225230Y0069000D01*
X0225230Y0065125D01*
X0225230Y0064875D01*
X0227855Y0064875D01*
X0227855Y0062303D01*
X0227753Y0061921D01*
X0227555Y0061579D01*
X0227276Y0061300D01*
X0226934Y0061102D01*
X0226552Y0061000D01*
X0225230Y0061000D01*
X0225230Y0064875D01*
X0224980Y0064875D01*
X0224980Y0061000D01*
X0223716Y0061000D01*
X0223516Y0060800D01*
X0219608Y0060800D01*
X0218612Y0061796D01*
X0218612Y0062950D01*
X0210738Y0062950D01*
X0210118Y0062330D01*
X0208960Y0061850D01*
X0207707Y0061850D01*
X0206549Y0062330D01*
X0205663Y0063216D01*
X0205183Y0064373D01*
X0205350Y0063972D02*
X0140433Y0063972D01*
X0140433Y0062973D02*
X0205905Y0062973D01*
X0207406Y0061975D02*
X0140433Y0061975D01*
X0140433Y0060976D02*
X0219431Y0060976D01*
X0218612Y0061975D02*
X0209261Y0061975D01*
X0205325Y0065969D02*
X0187757Y0065969D01*
X0188315Y0066967D02*
X0205846Y0066967D01*
X0207262Y0067966D02*
X0188483Y0067966D01*
X0188343Y0068964D02*
X0219372Y0068964D01*
X0218612Y0067966D02*
X0209405Y0067966D01*
X0224980Y0067966D02*
X0225230Y0067966D01*
X0225230Y0068964D02*
X0224980Y0068964D01*
X0226686Y0068964D02*
X0236233Y0068964D01*
X0236233Y0067966D02*
X0227783Y0067966D01*
X0227855Y0066967D02*
X0236233Y0066967D01*
X0236233Y0065969D02*
X0227855Y0065969D01*
X0227855Y0063972D02*
X0236233Y0063972D01*
X0236233Y0064970D02*
X0225230Y0064970D01*
X0225230Y0063972D02*
X0224980Y0063972D01*
X0224980Y0062973D02*
X0225230Y0062973D01*
X0225230Y0061975D02*
X0224980Y0061975D01*
X0223692Y0060976D02*
X0236233Y0060976D01*
X0236233Y0059978D02*
X0140433Y0059978D01*
X0140433Y0058979D02*
X0236233Y0058979D01*
X0236233Y0057981D02*
X0140433Y0057981D01*
X0140433Y0056982D02*
X0236233Y0056982D01*
X0236233Y0055984D02*
X0140433Y0055984D01*
X0140433Y0054985D02*
X0166848Y0054985D01*
X0167833Y0054985D02*
X0168833Y0054985D01*
X0169818Y0054985D02*
X0176258Y0054985D01*
X0174683Y0053987D02*
X0171693Y0053987D01*
X0172590Y0052988D02*
X0173726Y0052988D01*
X0173313Y0051990D02*
X0173154Y0051990D01*
X0168833Y0051990D02*
X0167833Y0051990D01*
X0167833Y0052988D02*
X0168833Y0052988D01*
X0168833Y0053987D02*
X0167833Y0053987D01*
X0164974Y0053987D02*
X0150122Y0053987D01*
X0151120Y0052988D02*
X0164077Y0052988D01*
X0163512Y0051990D02*
X0156124Y0051990D01*
X0156457Y0050991D02*
X0163225Y0050991D01*
X0163228Y0048994D02*
X0155833Y0048994D01*
X0156332Y0049993D02*
X0167833Y0049993D01*
X0167833Y0050991D02*
X0168833Y0050991D01*
X0163519Y0047996D02*
X0155334Y0047996D01*
X0146547Y0053987D02*
X0144817Y0053987D01*
X0142643Y0053987D02*
X0140433Y0053987D01*
X0140433Y0052988D02*
X0141645Y0052988D01*
X0141630Y0051990D02*
X0140433Y0051990D01*
X0140433Y0050991D02*
X0141630Y0050991D01*
X0141452Y0049993D02*
X0140433Y0049993D01*
X0140433Y0048994D02*
X0140453Y0048994D01*
X0180409Y0054985D02*
X0186258Y0054985D01*
X0184683Y0053987D02*
X0181983Y0053987D01*
X0182941Y0052988D02*
X0183726Y0052988D01*
X0190409Y0054985D02*
X0196258Y0054985D01*
X0194683Y0053987D02*
X0191983Y0053987D01*
X0192941Y0052988D02*
X0193726Y0052988D01*
X0200409Y0054985D02*
X0206258Y0054985D01*
X0204683Y0053987D02*
X0201983Y0053987D01*
X0202941Y0052988D02*
X0203726Y0052988D01*
X0210409Y0054985D02*
X0236233Y0054985D01*
X0236233Y0053987D02*
X0211983Y0053987D01*
X0212941Y0052988D02*
X0236233Y0052988D01*
X0236233Y0051990D02*
X0213354Y0051990D01*
X0213733Y0050991D02*
X0233152Y0050991D01*
X0232259Y0049993D02*
X0213733Y0049993D01*
X0213733Y0048994D02*
X0231883Y0048994D01*
X0231883Y0047996D02*
X0213348Y0047996D01*
X0227767Y0061975D02*
X0236233Y0061975D01*
X0236233Y0062973D02*
X0227855Y0062973D01*
X0225230Y0065969D02*
X0224980Y0065969D01*
X0224980Y0066967D02*
X0225230Y0066967D01*
X0236233Y0069963D02*
X0187825Y0069963D01*
X0186415Y0070961D02*
X0236233Y0070961D01*
X0236233Y0071960D02*
X0184343Y0071960D01*
X0183345Y0072958D02*
X0236233Y0072958D01*
X0236233Y0073957D02*
X0182346Y0073957D01*
X0181348Y0074955D02*
X0236233Y0074955D01*
X0236233Y0075954D02*
X0180349Y0075954D01*
X0179351Y0076952D02*
X0236233Y0076952D01*
X0236233Y0089933D02*
X0180221Y0089933D01*
X0181093Y0090932D02*
X0236233Y0090932D01*
X0236233Y0091930D02*
X0229153Y0091930D01*
X0227514Y0091930D02*
X0181483Y0091930D01*
X0181483Y0092929D02*
X0225950Y0092929D01*
X0230717Y0092929D02*
X0236233Y0092929D01*
X0236233Y0093927D02*
X0231298Y0093927D01*
X0231483Y0094926D02*
X0236233Y0094926D01*
X0236233Y0095924D02*
X0231360Y0095924D01*
X0230866Y0096923D02*
X0236233Y0096923D01*
X0236233Y0097921D02*
X0229512Y0097921D01*
X0227154Y0097921D02*
X0168311Y0097921D01*
X0167313Y0098920D02*
X0236233Y0098920D01*
X0236233Y0099918D02*
X0166314Y0099918D01*
X0165316Y0100917D02*
X0236233Y0100917D01*
X0236233Y0101915D02*
X0164317Y0101915D01*
X0163319Y0102914D02*
X0236233Y0102914D01*
X0236233Y0103912D02*
X0162320Y0103912D01*
X0161322Y0104911D02*
X0236233Y0104911D01*
X0236233Y0105909D02*
X0160323Y0105909D01*
X0159325Y0106908D02*
X0236233Y0106908D01*
X0236233Y0107906D02*
X0158326Y0107906D01*
X0157328Y0108905D02*
X0236233Y0108905D01*
X0236233Y0109903D02*
X0156483Y0109903D01*
X0156369Y0110902D02*
X0236233Y0110902D01*
X0236233Y0111900D02*
X0155888Y0111900D01*
X0154566Y0112899D02*
X0236233Y0112899D01*
D15*
X0218333Y0115000D03*
X0173333Y0115000D03*
X0163333Y0115000D03*
X0153333Y0110000D03*
X0178333Y0092500D03*
X0158333Y0080000D03*
X0185333Y0068000D03*
X0203333Y0075000D03*
X0218333Y0075000D03*
X0208333Y0065000D03*
X0228333Y0095000D03*
D16*
X0178333Y0095000D01*
X0178333Y0092500D01*
X0178333Y0095000D02*
X0168333Y0095000D01*
X0153333Y0110000D01*
X0208333Y0065000D02*
X0221562Y0065000D01*
M02*
