G75*
%MOIN*%
%OFA0B0*%
%FSLAX25Y25*%
%IPPOS*%
%LPD*%
%AMOC8*
5,1,8,0,0,1.08239X$1,22.5*
%
%ADD10C,0.13800*%
%ADD11C,0.03300*%
%ADD12R,0.05131X0.04737*%
%ADD13R,0.03300X0.05800*%
%ADD14R,0.08674X0.05524*%
%ADD15R,0.06115X0.03162*%
%ADD16C,0.08200*%
%ADD17R,0.03556X0.11036*%
%ADD18R,0.03950X0.14973*%
%ADD19R,0.03950X0.11036*%
D10*
X0148333Y0135000D03*
X0228333Y0135000D03*
D11*
X0141333Y0142000D03*
X0234833Y0048500D03*
D12*
X0211680Y0070000D03*
X0204987Y0070000D03*
X0171680Y0070000D03*
X0164987Y0070000D03*
X0166680Y0120000D03*
X0159987Y0120000D03*
X0174987Y0120000D03*
X0181680Y0120000D03*
X0194987Y0120000D03*
X0201680Y0120000D03*
X0209987Y0120000D03*
X0216680Y0120000D03*
X0206680Y0130000D03*
X0199987Y0130000D03*
X0176680Y0130000D03*
X0169987Y0130000D03*
D13*
X0185133Y0130000D03*
X0188333Y0130000D03*
X0191533Y0130000D03*
D14*
X0232802Y0106024D03*
X0232802Y0083976D03*
X0143865Y0083976D03*
X0143865Y0106024D03*
D15*
X0158333Y0100906D03*
X0158333Y0096969D03*
X0158333Y0093031D03*
X0158333Y0089094D03*
X0218333Y0089094D03*
X0218333Y0093031D03*
X0218333Y0096969D03*
X0218333Y0100906D03*
D16*
X0168333Y0050000D03*
X0178333Y0050000D03*
X0188333Y0050000D03*
X0198333Y0050000D03*
X0208333Y0050000D03*
D17*
X0198333Y0082992D03*
X0193333Y0082992D03*
X0188333Y0082992D03*
X0183333Y0082992D03*
X0178333Y0082992D03*
X0178333Y0107008D03*
X0183333Y0107008D03*
X0188333Y0107008D03*
X0193333Y0107008D03*
X0198333Y0107008D03*
D18*
X0166680Y0084961D03*
D19*
X0209987Y0082992D03*
X0209987Y0107008D03*
X0166680Y0107008D03*
M02*
