G75*
%MOIN*%
%OFA0B0*%
%FSLAX25Y25*%
%IPPOS*%
%LPD*%
%AMOC8*
5,1,8,0,0,1.08239X$1,22.5*
%
%ADD10C,0.13800*%
%ADD11C,0.03300*%
%ADD12R,0.05131X0.04737*%
%ADD13R,0.03300X0.05800*%
%ADD14R,0.08674X0.05524*%
%ADD15R,0.06115X0.03162*%
%ADD16C,0.08200*%
%ADD17R,0.03556X0.11036*%
%ADD18R,0.03950X0.14973*%
%ADD19R,0.03950X0.11036*%
D10*
X0032000Y0126500D03*
X0112000Y0126500D03*
X0134000Y0126500D03*
X0214000Y0126500D03*
X0236000Y0126500D03*
X0316000Y0126500D03*
X0316000Y0228500D03*
X0236000Y0228500D03*
X0214000Y0228500D03*
X0134000Y0228500D03*
X0112000Y0228500D03*
X0032000Y0228500D03*
X0032000Y0330500D03*
X0112000Y0330500D03*
X0134000Y0330500D03*
X0214000Y0330500D03*
X0236000Y0330500D03*
X0316000Y0330500D03*
D11*
X0229000Y0337500D03*
X0220500Y0244000D03*
X0229000Y0235500D03*
X0322500Y0244000D03*
X0322500Y0142000D03*
X0229000Y0133500D03*
X0220500Y0142000D03*
X0127000Y0133500D03*
X0118500Y0142000D03*
X0025000Y0133500D03*
X0118500Y0040000D03*
X0220500Y0040000D03*
X0322500Y0040000D03*
X0127000Y0235500D03*
X0118500Y0244000D03*
X0025000Y0235500D03*
X0025000Y0337500D03*
X0127000Y0337500D03*
D12*
X0145654Y0315500D03*
X0152346Y0315500D03*
X0160654Y0315500D03*
X0167346Y0315500D03*
X0162346Y0325500D03*
X0155654Y0325500D03*
X0180654Y0315500D03*
X0187346Y0315500D03*
X0195654Y0315500D03*
X0202346Y0315500D03*
X0192346Y0325500D03*
X0185654Y0325500D03*
X0247654Y0315500D03*
X0254346Y0315500D03*
X0262654Y0315500D03*
X0269346Y0315500D03*
X0264346Y0325500D03*
X0257654Y0325500D03*
X0282654Y0315500D03*
X0289346Y0315500D03*
X0297654Y0315500D03*
X0304346Y0315500D03*
X0294346Y0325500D03*
X0287654Y0325500D03*
X0292654Y0265500D03*
X0299346Y0265500D03*
X0259346Y0265500D03*
X0252654Y0265500D03*
X0257654Y0223500D03*
X0264346Y0223500D03*
X0262654Y0213500D03*
X0269346Y0213500D03*
X0282654Y0213500D03*
X0289346Y0213500D03*
X0297654Y0213500D03*
X0304346Y0213500D03*
X0294346Y0223500D03*
X0287654Y0223500D03*
X0254346Y0213500D03*
X0247654Y0213500D03*
X0202346Y0213500D03*
X0195654Y0213500D03*
X0187346Y0213500D03*
X0180654Y0213500D03*
X0185654Y0223500D03*
X0192346Y0223500D03*
X0167346Y0213500D03*
X0160654Y0213500D03*
X0152346Y0213500D03*
X0145654Y0213500D03*
X0155654Y0223500D03*
X0162346Y0223500D03*
X0157346Y0265500D03*
X0150654Y0265500D03*
X0190654Y0265500D03*
X0197346Y0265500D03*
X0100346Y0315500D03*
X0093654Y0315500D03*
X0085346Y0315500D03*
X0078654Y0315500D03*
X0083654Y0325500D03*
X0090346Y0325500D03*
X0065346Y0315500D03*
X0058654Y0315500D03*
X0050346Y0315500D03*
X0043654Y0315500D03*
X0053654Y0325500D03*
X0060346Y0325500D03*
X0055346Y0265500D03*
X0048654Y0265500D03*
X0088654Y0265500D03*
X0095346Y0265500D03*
X0090346Y0223500D03*
X0083654Y0223500D03*
X0085346Y0213500D03*
X0078654Y0213500D03*
X0093654Y0213500D03*
X0100346Y0213500D03*
X0065346Y0213500D03*
X0058654Y0213500D03*
X0050346Y0213500D03*
X0043654Y0213500D03*
X0053654Y0223500D03*
X0060346Y0223500D03*
X0055346Y0163500D03*
X0048654Y0163500D03*
X0088654Y0163500D03*
X0095346Y0163500D03*
X0090346Y0121500D03*
X0083654Y0121500D03*
X0085346Y0111500D03*
X0078654Y0111500D03*
X0093654Y0111500D03*
X0100346Y0111500D03*
X0065346Y0111500D03*
X0058654Y0111500D03*
X0050346Y0111500D03*
X0043654Y0111500D03*
X0053654Y0121500D03*
X0060346Y0121500D03*
X0055346Y0061500D03*
X0048654Y0061500D03*
X0088654Y0061500D03*
X0095346Y0061500D03*
X0150654Y0061500D03*
X0157346Y0061500D03*
X0190654Y0061500D03*
X0197346Y0061500D03*
X0195654Y0111500D03*
X0202346Y0111500D03*
X0192346Y0121500D03*
X0185654Y0121500D03*
X0187346Y0111500D03*
X0180654Y0111500D03*
X0167346Y0111500D03*
X0160654Y0111500D03*
X0152346Y0111500D03*
X0145654Y0111500D03*
X0155654Y0121500D03*
X0162346Y0121500D03*
X0157346Y0163500D03*
X0150654Y0163500D03*
X0190654Y0163500D03*
X0197346Y0163500D03*
X0252654Y0163500D03*
X0259346Y0163500D03*
X0292654Y0163500D03*
X0299346Y0163500D03*
X0294346Y0121500D03*
X0287654Y0121500D03*
X0289346Y0111500D03*
X0282654Y0111500D03*
X0269346Y0111500D03*
X0262654Y0111500D03*
X0254346Y0111500D03*
X0247654Y0111500D03*
X0257654Y0121500D03*
X0264346Y0121500D03*
X0297654Y0111500D03*
X0304346Y0111500D03*
X0299346Y0061500D03*
X0292654Y0061500D03*
X0259346Y0061500D03*
X0252654Y0061500D03*
D13*
X0272800Y0121500D03*
X0276000Y0121500D03*
X0279200Y0121500D03*
X0177200Y0121500D03*
X0174000Y0121500D03*
X0170800Y0121500D03*
X0075200Y0121500D03*
X0072000Y0121500D03*
X0068800Y0121500D03*
X0068800Y0223500D03*
X0072000Y0223500D03*
X0075200Y0223500D03*
X0170800Y0223500D03*
X0174000Y0223500D03*
X0177200Y0223500D03*
X0272800Y0223500D03*
X0276000Y0223500D03*
X0279200Y0223500D03*
X0279200Y0325500D03*
X0276000Y0325500D03*
X0272800Y0325500D03*
X0177200Y0325500D03*
X0174000Y0325500D03*
X0170800Y0325500D03*
X0075200Y0325500D03*
X0072000Y0325500D03*
X0068800Y0325500D03*
D14*
X0027531Y0301524D03*
X0027531Y0279476D03*
X0027531Y0199524D03*
X0027531Y0177476D03*
X0027531Y0097524D03*
X0027531Y0075476D03*
X0116469Y0075476D03*
X0129531Y0075476D03*
X0129531Y0097524D03*
X0116469Y0097524D03*
X0116469Y0177476D03*
X0129531Y0177476D03*
X0129531Y0199524D03*
X0116469Y0199524D03*
X0116469Y0279476D03*
X0129531Y0279476D03*
X0129531Y0301524D03*
X0116469Y0301524D03*
X0218469Y0301524D03*
X0231531Y0301524D03*
X0231531Y0279476D03*
X0218469Y0279476D03*
X0218469Y0199524D03*
X0231531Y0199524D03*
X0231531Y0177476D03*
X0218469Y0177476D03*
X0218469Y0097524D03*
X0231531Y0097524D03*
X0231531Y0075476D03*
X0218469Y0075476D03*
X0320469Y0075476D03*
X0320469Y0097524D03*
X0320469Y0177476D03*
X0320469Y0199524D03*
X0320469Y0279476D03*
X0320469Y0301524D03*
D15*
X0306000Y0296406D03*
X0306000Y0292469D03*
X0306000Y0288531D03*
X0306000Y0284594D03*
X0246000Y0284594D03*
X0246000Y0288531D03*
X0246000Y0292469D03*
X0246000Y0296406D03*
X0204000Y0296406D03*
X0204000Y0292469D03*
X0204000Y0288531D03*
X0204000Y0284594D03*
X0144000Y0284594D03*
X0144000Y0288531D03*
X0144000Y0292469D03*
X0144000Y0296406D03*
X0102000Y0296406D03*
X0102000Y0292469D03*
X0102000Y0288531D03*
X0102000Y0284594D03*
X0042000Y0284594D03*
X0042000Y0288531D03*
X0042000Y0292469D03*
X0042000Y0296406D03*
X0042000Y0194406D03*
X0042000Y0190469D03*
X0042000Y0186531D03*
X0042000Y0182594D03*
X0102000Y0182594D03*
X0102000Y0186531D03*
X0102000Y0190469D03*
X0102000Y0194406D03*
X0144000Y0194406D03*
X0144000Y0190469D03*
X0144000Y0186531D03*
X0144000Y0182594D03*
X0204000Y0182594D03*
X0204000Y0186531D03*
X0204000Y0190469D03*
X0204000Y0194406D03*
X0246000Y0194406D03*
X0246000Y0190469D03*
X0246000Y0186531D03*
X0246000Y0182594D03*
X0306000Y0182594D03*
X0306000Y0186531D03*
X0306000Y0190469D03*
X0306000Y0194406D03*
X0306000Y0092406D03*
X0306000Y0088469D03*
X0306000Y0084531D03*
X0306000Y0080594D03*
X0246000Y0080594D03*
X0246000Y0084531D03*
X0246000Y0088469D03*
X0246000Y0092406D03*
X0204000Y0092406D03*
X0204000Y0088469D03*
X0204000Y0084531D03*
X0204000Y0080594D03*
X0144000Y0080594D03*
X0144000Y0084531D03*
X0144000Y0088469D03*
X0144000Y0092406D03*
X0102000Y0092406D03*
X0102000Y0088469D03*
X0102000Y0084531D03*
X0102000Y0080594D03*
X0042000Y0080594D03*
X0042000Y0084531D03*
X0042000Y0088469D03*
X0042000Y0092406D03*
D16*
X0057000Y0041500D03*
X0067000Y0041500D03*
X0077000Y0041500D03*
X0087000Y0041500D03*
X0097000Y0041500D03*
X0159000Y0041500D03*
X0169000Y0041500D03*
X0179000Y0041500D03*
X0189000Y0041500D03*
X0199000Y0041500D03*
X0261000Y0041500D03*
X0271000Y0041500D03*
X0281000Y0041500D03*
X0291000Y0041500D03*
X0301000Y0041500D03*
X0301000Y0143500D03*
X0291000Y0143500D03*
X0281000Y0143500D03*
X0271000Y0143500D03*
X0261000Y0143500D03*
X0199000Y0143500D03*
X0189000Y0143500D03*
X0179000Y0143500D03*
X0169000Y0143500D03*
X0159000Y0143500D03*
X0097000Y0143500D03*
X0087000Y0143500D03*
X0077000Y0143500D03*
X0067000Y0143500D03*
X0057000Y0143500D03*
X0057000Y0245500D03*
X0067000Y0245500D03*
X0077000Y0245500D03*
X0087000Y0245500D03*
X0097000Y0245500D03*
X0159000Y0245500D03*
X0169000Y0245500D03*
X0179000Y0245500D03*
X0189000Y0245500D03*
X0199000Y0245500D03*
X0261000Y0245500D03*
X0271000Y0245500D03*
X0281000Y0245500D03*
X0291000Y0245500D03*
X0301000Y0245500D03*
D17*
X0286000Y0278492D03*
X0281000Y0278492D03*
X0276000Y0278492D03*
X0271000Y0278492D03*
X0266000Y0278492D03*
X0266000Y0302508D03*
X0271000Y0302508D03*
X0276000Y0302508D03*
X0281000Y0302508D03*
X0286000Y0302508D03*
X0184000Y0302508D03*
X0179000Y0302508D03*
X0174000Y0302508D03*
X0169000Y0302508D03*
X0164000Y0302508D03*
X0164000Y0278492D03*
X0169000Y0278492D03*
X0174000Y0278492D03*
X0179000Y0278492D03*
X0184000Y0278492D03*
X0184000Y0200508D03*
X0179000Y0200508D03*
X0174000Y0200508D03*
X0169000Y0200508D03*
X0164000Y0200508D03*
X0164000Y0176492D03*
X0169000Y0176492D03*
X0174000Y0176492D03*
X0179000Y0176492D03*
X0184000Y0176492D03*
X0266000Y0176492D03*
X0271000Y0176492D03*
X0276000Y0176492D03*
X0281000Y0176492D03*
X0286000Y0176492D03*
X0286000Y0200508D03*
X0281000Y0200508D03*
X0276000Y0200508D03*
X0271000Y0200508D03*
X0266000Y0200508D03*
X0266000Y0098508D03*
X0271000Y0098508D03*
X0276000Y0098508D03*
X0281000Y0098508D03*
X0286000Y0098508D03*
X0286000Y0074492D03*
X0281000Y0074492D03*
X0276000Y0074492D03*
X0271000Y0074492D03*
X0266000Y0074492D03*
X0184000Y0074492D03*
X0179000Y0074492D03*
X0174000Y0074492D03*
X0169000Y0074492D03*
X0164000Y0074492D03*
X0164000Y0098508D03*
X0169000Y0098508D03*
X0174000Y0098508D03*
X0179000Y0098508D03*
X0184000Y0098508D03*
X0082000Y0098508D03*
X0077000Y0098508D03*
X0072000Y0098508D03*
X0067000Y0098508D03*
X0062000Y0098508D03*
X0062000Y0074492D03*
X0067000Y0074492D03*
X0072000Y0074492D03*
X0077000Y0074492D03*
X0082000Y0074492D03*
X0082000Y0176492D03*
X0077000Y0176492D03*
X0072000Y0176492D03*
X0067000Y0176492D03*
X0062000Y0176492D03*
X0062000Y0200508D03*
X0067000Y0200508D03*
X0072000Y0200508D03*
X0077000Y0200508D03*
X0082000Y0200508D03*
X0082000Y0278492D03*
X0077000Y0278492D03*
X0072000Y0278492D03*
X0067000Y0278492D03*
X0062000Y0278492D03*
X0062000Y0302508D03*
X0067000Y0302508D03*
X0072000Y0302508D03*
X0077000Y0302508D03*
X0082000Y0302508D03*
D18*
X0050346Y0280461D03*
X0152346Y0280461D03*
X0254346Y0280461D03*
X0254346Y0178461D03*
X0152346Y0178461D03*
X0050346Y0178461D03*
X0050346Y0076461D03*
X0152346Y0076461D03*
X0254346Y0076461D03*
D19*
X0254346Y0098508D03*
X0297654Y0098508D03*
X0297654Y0074492D03*
X0195654Y0074492D03*
X0195654Y0098508D03*
X0152346Y0098508D03*
X0093654Y0098508D03*
X0093654Y0074492D03*
X0050346Y0098508D03*
X0093654Y0176492D03*
X0093654Y0200508D03*
X0050346Y0200508D03*
X0093654Y0278492D03*
X0093654Y0302508D03*
X0050346Y0302508D03*
X0152346Y0302508D03*
X0195654Y0302508D03*
X0195654Y0278492D03*
X0254346Y0302508D03*
X0297654Y0302508D03*
X0297654Y0278492D03*
X0297654Y0200508D03*
X0297654Y0176492D03*
X0254346Y0200508D03*
X0195654Y0200508D03*
X0195654Y0176492D03*
X0152346Y0200508D03*
M02*
