G75*
%MOIN*%
%OFA0B0*%
%FSLAX25Y25*%
%IPPOS*%
%LPD*%
%AMOC8*
5,1,8,0,0,1.08239X$1,22.5*
%
%ADD10C,0.00800*%
%ADD11R,0.02500X0.05000*%
%ADD12C,0.07400*%
%ADD13C,0.01000*%
%ADD14C,0.02900*%
%ADD15C,0.00700*%
D10*
X0025996Y0039400D02*
X0028798Y0039400D01*
X0027397Y0039400D02*
X0027397Y0043604D01*
X0028798Y0042202D01*
X0030600Y0042903D02*
X0030600Y0040101D01*
X0031300Y0039400D01*
X0032701Y0039400D01*
X0033402Y0040101D01*
X0030600Y0042903D01*
X0031300Y0043604D01*
X0032701Y0043604D01*
X0033402Y0042903D01*
X0033402Y0040101D01*
X0035204Y0039400D02*
X0038006Y0043604D01*
X0035204Y0043604D02*
X0038006Y0039400D01*
X0127996Y0039400D02*
X0130798Y0039400D01*
X0129397Y0039400D02*
X0129397Y0043604D01*
X0130798Y0042202D01*
X0132600Y0042903D02*
X0135402Y0040101D01*
X0134701Y0039400D01*
X0133300Y0039400D01*
X0132600Y0040101D01*
X0132600Y0042903D01*
X0133300Y0043604D01*
X0134701Y0043604D01*
X0135402Y0042903D01*
X0135402Y0040101D01*
X0137204Y0039400D02*
X0140006Y0043604D01*
X0137204Y0043604D02*
X0140006Y0039400D01*
X0229996Y0039400D02*
X0232798Y0039400D01*
X0231397Y0039400D02*
X0231397Y0043604D01*
X0232798Y0042202D01*
X0234600Y0042903D02*
X0237402Y0040101D01*
X0236701Y0039400D01*
X0235300Y0039400D01*
X0234600Y0040101D01*
X0234600Y0042903D01*
X0235300Y0043604D01*
X0236701Y0043604D01*
X0237402Y0042903D01*
X0237402Y0040101D01*
X0239204Y0039400D02*
X0242006Y0043604D01*
X0239204Y0043604D02*
X0242006Y0039400D01*
X0242006Y0141400D02*
X0239204Y0145604D01*
X0237402Y0144903D02*
X0236701Y0145604D01*
X0235300Y0145604D01*
X0234600Y0144903D01*
X0237402Y0142101D01*
X0236701Y0141400D01*
X0235300Y0141400D01*
X0234600Y0142101D01*
X0234600Y0144903D01*
X0232798Y0144202D02*
X0231397Y0145604D01*
X0231397Y0141400D01*
X0232798Y0141400D02*
X0229996Y0141400D01*
X0237402Y0142101D02*
X0237402Y0144903D01*
X0239204Y0141400D02*
X0242006Y0145604D01*
X0140006Y0145604D02*
X0137204Y0141400D01*
X0135402Y0142101D02*
X0132600Y0144903D01*
X0132600Y0142101D01*
X0133300Y0141400D01*
X0134701Y0141400D01*
X0135402Y0142101D01*
X0135402Y0144903D01*
X0134701Y0145604D01*
X0133300Y0145604D01*
X0132600Y0144903D01*
X0130798Y0144202D02*
X0129397Y0145604D01*
X0129397Y0141400D01*
X0130798Y0141400D02*
X0127996Y0141400D01*
X0137204Y0145604D02*
X0140006Y0141400D01*
X0038006Y0141400D02*
X0035204Y0145604D01*
X0033402Y0144903D02*
X0032701Y0145604D01*
X0031300Y0145604D01*
X0030600Y0144903D01*
X0033402Y0142101D01*
X0032701Y0141400D01*
X0031300Y0141400D01*
X0030600Y0142101D01*
X0030600Y0144903D01*
X0028798Y0144202D02*
X0027397Y0145604D01*
X0027397Y0141400D01*
X0028798Y0141400D02*
X0025996Y0141400D01*
X0033402Y0142101D02*
X0033402Y0144903D01*
X0035204Y0141400D02*
X0038006Y0145604D01*
X0038006Y0243400D02*
X0035204Y0247604D01*
X0033402Y0246903D02*
X0032701Y0247604D01*
X0031300Y0247604D01*
X0030600Y0246903D01*
X0033402Y0244101D01*
X0032701Y0243400D01*
X0031300Y0243400D01*
X0030600Y0244101D01*
X0030600Y0246903D01*
X0028798Y0246202D02*
X0027397Y0247604D01*
X0027397Y0243400D01*
X0028798Y0243400D02*
X0025996Y0243400D01*
X0033402Y0244101D02*
X0033402Y0246903D01*
X0035204Y0243400D02*
X0038006Y0247604D01*
X0127996Y0243400D02*
X0130798Y0243400D01*
X0129397Y0243400D02*
X0129397Y0247604D01*
X0130798Y0246202D01*
X0132600Y0246903D02*
X0135402Y0244101D01*
X0134701Y0243400D01*
X0133300Y0243400D01*
X0132600Y0244101D01*
X0132600Y0246903D01*
X0133300Y0247604D01*
X0134701Y0247604D01*
X0135402Y0246903D01*
X0135402Y0244101D01*
X0137204Y0243400D02*
X0140006Y0247604D01*
X0137204Y0247604D02*
X0140006Y0243400D01*
X0229996Y0243400D02*
X0232798Y0243400D01*
X0231397Y0243400D02*
X0231397Y0247604D01*
X0232798Y0246202D01*
X0234600Y0246903D02*
X0237402Y0244101D01*
X0236701Y0243400D01*
X0235300Y0243400D01*
X0234600Y0244101D01*
X0234600Y0246903D01*
X0235300Y0247604D01*
X0236701Y0247604D01*
X0237402Y0246903D01*
X0237402Y0244101D01*
X0239204Y0243400D02*
X0242006Y0247604D01*
X0239204Y0247604D02*
X0242006Y0243400D01*
D11*
X0210772Y0260500D03*
X0207228Y0260500D03*
X0108772Y0260500D03*
X0105228Y0260500D03*
X0105228Y0158500D03*
X0108772Y0158500D03*
X0207228Y0158500D03*
X0210772Y0158500D03*
X0309228Y0158500D03*
X0312772Y0158500D03*
X0312772Y0056500D03*
X0309228Y0056500D03*
X0210772Y0056500D03*
X0207228Y0056500D03*
X0108772Y0056500D03*
X0105228Y0056500D03*
X0309228Y0260500D03*
X0312772Y0260500D03*
D12*
X0301000Y0245500D03*
X0291000Y0245500D03*
X0281000Y0245500D03*
X0271000Y0245500D03*
X0261000Y0245500D03*
X0199000Y0245500D03*
X0189000Y0245500D03*
X0179000Y0245500D03*
X0169000Y0245500D03*
X0159000Y0245500D03*
X0097000Y0245500D03*
X0087000Y0245500D03*
X0077000Y0245500D03*
X0067000Y0245500D03*
X0057000Y0245500D03*
X0057000Y0143500D03*
X0067000Y0143500D03*
X0077000Y0143500D03*
X0087000Y0143500D03*
X0097000Y0143500D03*
X0159000Y0143500D03*
X0169000Y0143500D03*
X0179000Y0143500D03*
X0189000Y0143500D03*
X0199000Y0143500D03*
X0261000Y0143500D03*
X0271000Y0143500D03*
X0281000Y0143500D03*
X0291000Y0143500D03*
X0301000Y0143500D03*
X0301000Y0041500D03*
X0291000Y0041500D03*
X0281000Y0041500D03*
X0271000Y0041500D03*
X0261000Y0041500D03*
X0199000Y0041500D03*
X0189000Y0041500D03*
X0179000Y0041500D03*
X0169000Y0041500D03*
X0159000Y0041500D03*
X0097000Y0041500D03*
X0087000Y0041500D03*
X0077000Y0041500D03*
X0067000Y0041500D03*
X0057000Y0041500D03*
D13*
X0024100Y0040474D02*
X0024100Y0121383D01*
X0024688Y0120365D01*
X0024688Y0120365D01*
X0027227Y0118234D01*
X0027227Y0118234D01*
X0030343Y0117100D01*
X0033657Y0117100D01*
X0036772Y0118234D01*
X0036773Y0118234D01*
X0039312Y0120365D01*
X0040969Y0123235D01*
X0040969Y0123235D01*
X0041545Y0126500D01*
X0040969Y0129765D01*
X0039312Y0132635D01*
X0039312Y0132635D01*
X0037209Y0134400D01*
X0106791Y0134400D01*
X0104688Y0132635D01*
X0103031Y0129765D01*
X0102455Y0126500D01*
X0102455Y0126500D01*
X0103031Y0123235D01*
X0104688Y0120365D01*
X0104688Y0120365D01*
X0107227Y0118234D01*
X0107227Y0118234D01*
X0110343Y0117100D01*
X0113657Y0117100D01*
X0116772Y0118234D01*
X0119312Y0120365D01*
X0119900Y0121383D01*
X0119900Y0038600D01*
X0101644Y0038600D01*
X0102400Y0040426D01*
X0102400Y0042574D01*
X0101578Y0044559D01*
X0100059Y0046078D01*
X0098074Y0046900D01*
X0095926Y0046900D01*
X0093941Y0046078D01*
X0092422Y0044559D01*
X0092000Y0043540D01*
X0091578Y0044559D01*
X0090059Y0046078D01*
X0088074Y0046900D01*
X0085926Y0046900D01*
X0084917Y0046482D01*
X0062849Y0068550D01*
X0049405Y0068550D01*
X0048784Y0069170D01*
X0047627Y0069650D01*
X0046373Y0069650D01*
X0045216Y0069170D01*
X0044330Y0068284D01*
X0043850Y0067127D01*
X0043850Y0065873D01*
X0044330Y0064716D01*
X0045216Y0063830D01*
X0046373Y0063350D01*
X0047627Y0063350D01*
X0048784Y0063830D01*
X0049405Y0064450D01*
X0061151Y0064450D01*
X0079144Y0046457D01*
X0078074Y0046900D01*
X0075926Y0046900D01*
X0073941Y0046078D01*
X0072422Y0044559D01*
X0072000Y0043540D01*
X0071578Y0044559D01*
X0070059Y0046078D01*
X0068074Y0046900D01*
X0065926Y0046900D01*
X0063941Y0046078D01*
X0062422Y0044559D01*
X0061891Y0043276D01*
X0061819Y0043496D01*
X0061447Y0044225D01*
X0060966Y0044888D01*
X0060388Y0045466D01*
X0059725Y0045947D01*
X0058996Y0046319D01*
X0058218Y0046572D01*
X0057500Y0046686D01*
X0057500Y0042000D01*
X0056500Y0042000D01*
X0056500Y0046686D01*
X0055782Y0046572D01*
X0055004Y0046319D01*
X0054275Y0045947D01*
X0053612Y0045466D01*
X0053034Y0044888D01*
X0052553Y0044225D01*
X0052181Y0043496D01*
X0051928Y0042718D01*
X0051814Y0042000D01*
X0056500Y0042000D01*
X0056500Y0041000D01*
X0051814Y0041000D01*
X0051928Y0040282D01*
X0052181Y0039504D01*
X0052553Y0038775D01*
X0052679Y0038600D01*
X0039987Y0038600D01*
X0040236Y0039841D01*
X0039129Y0041502D01*
X0040236Y0043162D01*
X0039895Y0044868D01*
X0038447Y0045833D01*
X0036741Y0045492D01*
X0036605Y0045288D01*
X0036468Y0045492D01*
X0034762Y0045833D01*
X0033970Y0045305D01*
X0033571Y0045704D01*
X0032170Y0045704D01*
X0031992Y0045704D01*
X0031832Y0045704D01*
X0031832Y0045704D01*
X0030430Y0045704D01*
X0030430Y0045704D01*
X0030416Y0045690D01*
X0029349Y0044622D01*
X0029131Y0044839D01*
X0028267Y0045704D01*
X0026527Y0045704D01*
X0025903Y0045080D01*
X0025297Y0044473D01*
X0025297Y0041500D01*
X0025126Y0041500D01*
X0024100Y0040474D01*
X0024100Y0040494D02*
X0024120Y0040494D01*
X0024100Y0041493D02*
X0025118Y0041493D01*
X0025297Y0042491D02*
X0024100Y0042491D01*
X0024100Y0043490D02*
X0025297Y0043490D01*
X0025312Y0044488D02*
X0024100Y0044488D01*
X0024100Y0045487D02*
X0026310Y0045487D01*
X0028484Y0045487D02*
X0030213Y0045487D01*
X0032170Y0045704D02*
X0032170Y0045704D01*
X0033788Y0045487D02*
X0034242Y0045487D01*
X0036472Y0045487D02*
X0036737Y0045487D01*
X0038967Y0045487D02*
X0053640Y0045487D01*
X0052743Y0044488D02*
X0039971Y0044488D01*
X0040170Y0043490D02*
X0052179Y0043490D01*
X0051892Y0042491D02*
X0039788Y0042491D01*
X0039135Y0041493D02*
X0056500Y0041493D01*
X0056500Y0042491D02*
X0057500Y0042491D01*
X0057500Y0043490D02*
X0056500Y0043490D01*
X0056500Y0044488D02*
X0057500Y0044488D01*
X0057500Y0045487D02*
X0056500Y0045487D01*
X0056500Y0046485D02*
X0057500Y0046485D01*
X0058485Y0046485D02*
X0064924Y0046485D01*
X0063350Y0045487D02*
X0060360Y0045487D01*
X0061257Y0044488D02*
X0062393Y0044488D01*
X0061979Y0043490D02*
X0061821Y0043490D01*
X0055515Y0046485D02*
X0024100Y0046485D01*
X0024100Y0047484D02*
X0078117Y0047484D01*
X0079076Y0046485D02*
X0079116Y0046485D01*
X0077119Y0048482D02*
X0024100Y0048482D01*
X0024100Y0049481D02*
X0076120Y0049481D01*
X0075122Y0050479D02*
X0024100Y0050479D01*
X0024100Y0051478D02*
X0074123Y0051478D01*
X0073125Y0052476D02*
X0024100Y0052476D01*
X0024100Y0053475D02*
X0072126Y0053475D01*
X0071128Y0054473D02*
X0024100Y0054473D01*
X0024100Y0055472D02*
X0070129Y0055472D01*
X0069131Y0056470D02*
X0024100Y0056470D01*
X0024100Y0057469D02*
X0068132Y0057469D01*
X0067134Y0058467D02*
X0024100Y0058467D01*
X0024100Y0059466D02*
X0066135Y0059466D01*
X0065137Y0060464D02*
X0024100Y0060464D01*
X0024100Y0061463D02*
X0064138Y0061463D01*
X0063140Y0062461D02*
X0024100Y0062461D01*
X0024100Y0063460D02*
X0046108Y0063460D01*
X0047892Y0063460D02*
X0062141Y0063460D01*
X0064944Y0066455D02*
X0119900Y0066455D01*
X0119900Y0065457D02*
X0065942Y0065457D01*
X0066941Y0064458D02*
X0119900Y0064458D01*
X0119900Y0063460D02*
X0067939Y0063460D01*
X0068938Y0062461D02*
X0119900Y0062461D01*
X0119900Y0061463D02*
X0069936Y0061463D01*
X0070935Y0060464D02*
X0103038Y0060464D01*
X0103274Y0060700D02*
X0102278Y0059704D01*
X0102278Y0058550D01*
X0094405Y0058550D01*
X0093784Y0059170D01*
X0092627Y0059650D01*
X0091373Y0059650D01*
X0090216Y0059170D01*
X0089330Y0058284D01*
X0088850Y0057127D01*
X0088850Y0055873D01*
X0089330Y0054716D01*
X0090216Y0053830D01*
X0091373Y0053350D01*
X0092627Y0053350D01*
X0093784Y0053830D01*
X0094405Y0054450D01*
X0102278Y0054450D01*
X0102278Y0053296D01*
X0103274Y0052300D01*
X0107183Y0052300D01*
X0107383Y0052500D01*
X0108647Y0052500D01*
X0108647Y0056375D01*
X0108897Y0056375D01*
X0108897Y0056625D01*
X0111522Y0056625D01*
X0111522Y0059197D01*
X0111419Y0059579D01*
X0111222Y0059921D01*
X0110943Y0060200D01*
X0110601Y0060398D01*
X0110219Y0060500D01*
X0108897Y0060500D01*
X0108897Y0056625D01*
X0108647Y0056625D01*
X0108647Y0060500D01*
X0107383Y0060500D01*
X0107183Y0060700D01*
X0103274Y0060700D01*
X0102278Y0059466D02*
X0093071Y0059466D01*
X0090929Y0059466D02*
X0071933Y0059466D01*
X0072932Y0058467D02*
X0089512Y0058467D01*
X0088992Y0057469D02*
X0073930Y0057469D01*
X0074929Y0056470D02*
X0088850Y0056470D01*
X0089016Y0055472D02*
X0075927Y0055472D01*
X0076926Y0054473D02*
X0089572Y0054473D01*
X0091072Y0053475D02*
X0077924Y0053475D01*
X0078923Y0052476D02*
X0103098Y0052476D01*
X0102278Y0053475D02*
X0092928Y0053475D01*
X0094924Y0046485D02*
X0089076Y0046485D01*
X0090650Y0045487D02*
X0093350Y0045487D01*
X0092393Y0044488D02*
X0091607Y0044488D01*
X0099076Y0046485D02*
X0119900Y0046485D01*
X0119900Y0045487D02*
X0100650Y0045487D01*
X0101607Y0044488D02*
X0119900Y0044488D01*
X0119900Y0043490D02*
X0102021Y0043490D01*
X0102400Y0042491D02*
X0119900Y0042491D01*
X0119900Y0041493D02*
X0102400Y0041493D01*
X0102400Y0040494D02*
X0119900Y0040494D01*
X0119900Y0039496D02*
X0102015Y0039496D01*
X0107359Y0052476D02*
X0119900Y0052476D01*
X0119900Y0051478D02*
X0079921Y0051478D01*
X0080920Y0050479D02*
X0119900Y0050479D01*
X0119900Y0049481D02*
X0081918Y0049481D01*
X0082917Y0048482D02*
X0119900Y0048482D01*
X0119900Y0047484D02*
X0083916Y0047484D01*
X0084914Y0046485D02*
X0084924Y0046485D01*
X0074924Y0046485D02*
X0069076Y0046485D01*
X0070650Y0045487D02*
X0073350Y0045487D01*
X0072393Y0044488D02*
X0071607Y0044488D01*
X0052185Y0039496D02*
X0040167Y0039496D01*
X0039800Y0040494D02*
X0051895Y0040494D01*
X0044587Y0064458D02*
X0024100Y0064458D01*
X0024100Y0065457D02*
X0044023Y0065457D01*
X0043850Y0066455D02*
X0024100Y0066455D01*
X0024100Y0067454D02*
X0043986Y0067454D01*
X0044498Y0068452D02*
X0024100Y0068452D01*
X0024100Y0069451D02*
X0045893Y0069451D01*
X0048107Y0069451D02*
X0119900Y0069451D01*
X0119900Y0070449D02*
X0024100Y0070449D01*
X0024100Y0071448D02*
X0119900Y0071448D01*
X0119900Y0072446D02*
X0024100Y0072446D01*
X0024100Y0073445D02*
X0119900Y0073445D01*
X0119900Y0074443D02*
X0024100Y0074443D01*
X0024100Y0075442D02*
X0119900Y0075442D01*
X0119900Y0076440D02*
X0024100Y0076440D01*
X0024100Y0077439D02*
X0119900Y0077439D01*
X0119900Y0078437D02*
X0024100Y0078437D01*
X0024100Y0079436D02*
X0119900Y0079436D01*
X0119900Y0080434D02*
X0024100Y0080434D01*
X0024100Y0081433D02*
X0060112Y0081433D01*
X0060216Y0081330D02*
X0061373Y0080850D01*
X0062627Y0080850D01*
X0063784Y0081330D01*
X0064670Y0082216D01*
X0065150Y0083373D01*
X0065150Y0084450D01*
X0109595Y0084450D01*
X0110216Y0083830D01*
X0111373Y0083350D01*
X0112627Y0083350D01*
X0113784Y0083830D01*
X0114670Y0084716D01*
X0115150Y0085873D01*
X0115150Y0087127D01*
X0114670Y0088284D01*
X0113784Y0089170D01*
X0112627Y0089650D01*
X0111373Y0089650D01*
X0110216Y0089170D01*
X0109595Y0088550D01*
X0052849Y0088550D01*
X0040150Y0101249D01*
X0040150Y0102127D01*
X0039670Y0103284D01*
X0038784Y0104170D01*
X0037627Y0104650D01*
X0036373Y0104650D01*
X0035216Y0104170D01*
X0034330Y0103284D01*
X0033850Y0102127D01*
X0033850Y0100873D01*
X0034330Y0099716D01*
X0035216Y0098830D01*
X0036373Y0098350D01*
X0037251Y0098350D01*
X0051151Y0084450D01*
X0058850Y0084450D01*
X0058850Y0083373D01*
X0059330Y0082216D01*
X0060216Y0081330D01*
X0059240Y0082432D02*
X0024100Y0082432D01*
X0024100Y0083430D02*
X0058850Y0083430D01*
X0058850Y0084429D02*
X0024100Y0084429D01*
X0024100Y0085427D02*
X0050174Y0085427D01*
X0049175Y0086426D02*
X0024100Y0086426D01*
X0024100Y0087424D02*
X0048177Y0087424D01*
X0047178Y0088423D02*
X0024100Y0088423D01*
X0024100Y0089421D02*
X0046180Y0089421D01*
X0045181Y0090420D02*
X0024100Y0090420D01*
X0024100Y0091418D02*
X0044183Y0091418D01*
X0043184Y0092417D02*
X0024100Y0092417D01*
X0024100Y0093415D02*
X0042186Y0093415D01*
X0041187Y0094414D02*
X0024100Y0094414D01*
X0024100Y0095412D02*
X0040189Y0095412D01*
X0039190Y0096411D02*
X0024100Y0096411D01*
X0024100Y0097409D02*
X0038192Y0097409D01*
X0036234Y0098408D02*
X0024100Y0098408D01*
X0024100Y0099406D02*
X0034639Y0099406D01*
X0034044Y0100405D02*
X0024100Y0100405D01*
X0024100Y0101403D02*
X0033850Y0101403D01*
X0033964Y0102402D02*
X0024100Y0102402D01*
X0024100Y0103400D02*
X0034445Y0103400D01*
X0035767Y0104399D02*
X0024100Y0104399D01*
X0024100Y0105397D02*
X0119900Y0105397D01*
X0119900Y0104399D02*
X0038233Y0104399D01*
X0039555Y0103400D02*
X0119900Y0103400D01*
X0119900Y0102402D02*
X0040036Y0102402D01*
X0040150Y0101403D02*
X0119900Y0101403D01*
X0119900Y0100405D02*
X0040994Y0100405D01*
X0041993Y0099406D02*
X0119900Y0099406D01*
X0119900Y0098408D02*
X0042991Y0098408D01*
X0043990Y0097409D02*
X0119900Y0097409D01*
X0119900Y0096411D02*
X0044988Y0096411D01*
X0045987Y0095412D02*
X0119900Y0095412D01*
X0119900Y0094414D02*
X0046985Y0094414D01*
X0047984Y0093415D02*
X0119900Y0093415D01*
X0119900Y0092417D02*
X0048982Y0092417D01*
X0049981Y0091418D02*
X0119900Y0091418D01*
X0119900Y0090420D02*
X0050980Y0090420D01*
X0051978Y0089421D02*
X0110821Y0089421D01*
X0113179Y0089421D02*
X0119900Y0089421D01*
X0119900Y0088423D02*
X0114532Y0088423D01*
X0115027Y0087424D02*
X0119900Y0087424D01*
X0119900Y0086426D02*
X0115150Y0086426D01*
X0114965Y0085427D02*
X0119900Y0085427D01*
X0119900Y0084429D02*
X0114383Y0084429D01*
X0112820Y0083430D02*
X0119900Y0083430D01*
X0119900Y0082432D02*
X0064760Y0082432D01*
X0065150Y0083430D02*
X0111180Y0083430D01*
X0109617Y0084429D02*
X0065150Y0084429D01*
X0063888Y0081433D02*
X0119900Y0081433D01*
X0126100Y0081433D02*
X0162112Y0081433D01*
X0162216Y0081330D02*
X0163373Y0080850D01*
X0164627Y0080850D01*
X0165784Y0081330D01*
X0166670Y0082216D01*
X0167150Y0083373D01*
X0167150Y0084450D01*
X0211595Y0084450D01*
X0212216Y0083830D01*
X0213373Y0083350D01*
X0214627Y0083350D01*
X0215784Y0083830D01*
X0216670Y0084716D01*
X0217150Y0085873D01*
X0217150Y0087127D01*
X0216670Y0088284D01*
X0215784Y0089170D01*
X0214627Y0089650D01*
X0213373Y0089650D01*
X0212216Y0089170D01*
X0211595Y0088550D01*
X0154849Y0088550D01*
X0142150Y0101249D01*
X0142150Y0102127D01*
X0141670Y0103284D01*
X0140784Y0104170D01*
X0139627Y0104650D01*
X0138373Y0104650D01*
X0137216Y0104170D01*
X0136330Y0103284D01*
X0135850Y0102127D01*
X0135850Y0100873D01*
X0136330Y0099716D01*
X0137216Y0098830D01*
X0138373Y0098350D01*
X0139251Y0098350D01*
X0153151Y0084450D01*
X0160850Y0084450D01*
X0160850Y0083373D01*
X0161330Y0082216D01*
X0162216Y0081330D01*
X0161240Y0082432D02*
X0126100Y0082432D01*
X0126100Y0083430D02*
X0160850Y0083430D01*
X0160850Y0084429D02*
X0126100Y0084429D01*
X0126100Y0085427D02*
X0152174Y0085427D01*
X0151175Y0086426D02*
X0126100Y0086426D01*
X0126100Y0087424D02*
X0150177Y0087424D01*
X0149178Y0088423D02*
X0126100Y0088423D01*
X0126100Y0089421D02*
X0148180Y0089421D01*
X0147181Y0090420D02*
X0126100Y0090420D01*
X0126100Y0091418D02*
X0146183Y0091418D01*
X0145184Y0092417D02*
X0126100Y0092417D01*
X0126100Y0093415D02*
X0144186Y0093415D01*
X0143187Y0094414D02*
X0126100Y0094414D01*
X0126100Y0095412D02*
X0142189Y0095412D01*
X0141190Y0096411D02*
X0126100Y0096411D01*
X0126100Y0097409D02*
X0140192Y0097409D01*
X0138234Y0098408D02*
X0126100Y0098408D01*
X0126100Y0099406D02*
X0136639Y0099406D01*
X0136044Y0100405D02*
X0126100Y0100405D01*
X0126100Y0101403D02*
X0135850Y0101403D01*
X0135964Y0102402D02*
X0126100Y0102402D01*
X0126100Y0103400D02*
X0136445Y0103400D01*
X0137767Y0104399D02*
X0126100Y0104399D01*
X0126100Y0105397D02*
X0221900Y0105397D01*
X0221900Y0104399D02*
X0140233Y0104399D01*
X0141555Y0103400D02*
X0221900Y0103400D01*
X0221900Y0102402D02*
X0142036Y0102402D01*
X0142150Y0101403D02*
X0221900Y0101403D01*
X0221900Y0100405D02*
X0142994Y0100405D01*
X0143993Y0099406D02*
X0221900Y0099406D01*
X0221900Y0098408D02*
X0144991Y0098408D01*
X0145990Y0097409D02*
X0221900Y0097409D01*
X0221900Y0096411D02*
X0146988Y0096411D01*
X0147987Y0095412D02*
X0221900Y0095412D01*
X0221900Y0094414D02*
X0148985Y0094414D01*
X0149984Y0093415D02*
X0221900Y0093415D01*
X0221900Y0092417D02*
X0150982Y0092417D01*
X0151981Y0091418D02*
X0221900Y0091418D01*
X0221900Y0090420D02*
X0152980Y0090420D01*
X0153978Y0089421D02*
X0212821Y0089421D01*
X0215179Y0089421D02*
X0221900Y0089421D01*
X0221900Y0088423D02*
X0216532Y0088423D01*
X0217027Y0087424D02*
X0221900Y0087424D01*
X0221900Y0086426D02*
X0217150Y0086426D01*
X0216965Y0085427D02*
X0221900Y0085427D01*
X0221900Y0084429D02*
X0216383Y0084429D01*
X0214820Y0083430D02*
X0221900Y0083430D01*
X0221900Y0082432D02*
X0166760Y0082432D01*
X0167150Y0083430D02*
X0213180Y0083430D01*
X0211617Y0084429D02*
X0167150Y0084429D01*
X0165888Y0081433D02*
X0221900Y0081433D01*
X0221900Y0080434D02*
X0126100Y0080434D01*
X0126100Y0079436D02*
X0221900Y0079436D01*
X0221900Y0078437D02*
X0126100Y0078437D01*
X0126100Y0077439D02*
X0221900Y0077439D01*
X0221900Y0076440D02*
X0126100Y0076440D01*
X0126100Y0075442D02*
X0221900Y0075442D01*
X0221900Y0074443D02*
X0126100Y0074443D01*
X0126100Y0073445D02*
X0221900Y0073445D01*
X0221900Y0072446D02*
X0126100Y0072446D01*
X0126100Y0071448D02*
X0221900Y0071448D01*
X0221900Y0070449D02*
X0126100Y0070449D01*
X0126100Y0069451D02*
X0147893Y0069451D01*
X0148373Y0069650D02*
X0147216Y0069170D01*
X0146330Y0068284D01*
X0145850Y0067127D01*
X0145850Y0065873D01*
X0146330Y0064716D01*
X0147216Y0063830D01*
X0148373Y0063350D01*
X0149627Y0063350D01*
X0150784Y0063830D01*
X0151405Y0064450D01*
X0163151Y0064450D01*
X0181144Y0046457D01*
X0180074Y0046900D01*
X0177926Y0046900D01*
X0175941Y0046078D01*
X0174422Y0044559D01*
X0174000Y0043540D01*
X0173578Y0044559D01*
X0172059Y0046078D01*
X0170074Y0046900D01*
X0167926Y0046900D01*
X0165941Y0046078D01*
X0164422Y0044559D01*
X0163891Y0043276D01*
X0163819Y0043496D01*
X0163447Y0044225D01*
X0162966Y0044888D01*
X0162388Y0045466D01*
X0161725Y0045947D01*
X0160996Y0046319D01*
X0160218Y0046572D01*
X0159500Y0046686D01*
X0159500Y0042000D01*
X0158500Y0042000D01*
X0158500Y0046686D01*
X0157782Y0046572D01*
X0157004Y0046319D01*
X0156275Y0045947D01*
X0155612Y0045466D01*
X0155034Y0044888D01*
X0154553Y0044225D01*
X0154181Y0043496D01*
X0153928Y0042718D01*
X0153814Y0042000D01*
X0158500Y0042000D01*
X0158500Y0041000D01*
X0153814Y0041000D01*
X0153928Y0040282D01*
X0154181Y0039504D01*
X0154553Y0038775D01*
X0154679Y0038600D01*
X0141987Y0038600D01*
X0142236Y0039841D01*
X0141129Y0041502D01*
X0142236Y0043162D01*
X0141895Y0044868D01*
X0140447Y0045833D01*
X0138741Y0045492D01*
X0138605Y0045288D01*
X0138468Y0045492D01*
X0136762Y0045833D01*
X0135970Y0045305D01*
X0135571Y0045704D01*
X0134170Y0045704D01*
X0133832Y0045704D01*
X0133832Y0045704D01*
X0132430Y0045704D01*
X0132430Y0045704D01*
X0132416Y0045690D01*
X0131349Y0044622D01*
X0131131Y0044839D01*
X0130267Y0045704D01*
X0128527Y0045704D01*
X0127903Y0045080D01*
X0127297Y0044473D01*
X0127297Y0041500D01*
X0127126Y0041500D01*
X0126100Y0040474D01*
X0126100Y0121383D01*
X0126688Y0120365D01*
X0126688Y0120365D01*
X0129227Y0118234D01*
X0129227Y0118234D01*
X0132343Y0117100D01*
X0135657Y0117100D01*
X0138772Y0118234D01*
X0138773Y0118234D01*
X0141312Y0120365D01*
X0142969Y0123235D01*
X0142969Y0123235D01*
X0143545Y0126500D01*
X0143545Y0126500D01*
X0142969Y0129765D01*
X0141312Y0132635D01*
X0139209Y0134400D01*
X0208791Y0134400D01*
X0206688Y0132635D01*
X0205031Y0129765D01*
X0204455Y0126500D01*
X0205031Y0123235D01*
X0206688Y0120365D01*
X0206688Y0120365D01*
X0209227Y0118234D01*
X0209227Y0118234D01*
X0212343Y0117100D01*
X0215657Y0117100D01*
X0218772Y0118234D01*
X0218773Y0118234D01*
X0221312Y0120365D01*
X0221900Y0121383D01*
X0221900Y0038600D01*
X0203644Y0038600D01*
X0204400Y0040426D01*
X0204400Y0042574D01*
X0203578Y0044559D01*
X0202059Y0046078D01*
X0200074Y0046900D01*
X0197926Y0046900D01*
X0195941Y0046078D01*
X0194422Y0044559D01*
X0194000Y0043540D01*
X0193578Y0044559D01*
X0192059Y0046078D01*
X0190074Y0046900D01*
X0187926Y0046900D01*
X0186917Y0046482D01*
X0164849Y0068550D01*
X0151405Y0068550D01*
X0150784Y0069170D01*
X0149627Y0069650D01*
X0148373Y0069650D01*
X0150107Y0069451D02*
X0221900Y0069451D01*
X0221900Y0068452D02*
X0164947Y0068452D01*
X0165945Y0067454D02*
X0221900Y0067454D01*
X0221900Y0066455D02*
X0166944Y0066455D01*
X0167942Y0065457D02*
X0221900Y0065457D01*
X0221900Y0064458D02*
X0168941Y0064458D01*
X0169939Y0063460D02*
X0221900Y0063460D01*
X0221900Y0062461D02*
X0170938Y0062461D01*
X0171936Y0061463D02*
X0221900Y0061463D01*
X0221900Y0060464D02*
X0212352Y0060464D01*
X0212219Y0060500D02*
X0210897Y0060500D01*
X0210897Y0056625D01*
X0213522Y0056625D01*
X0213522Y0059197D01*
X0213419Y0059579D01*
X0213222Y0059921D01*
X0212943Y0060200D01*
X0212601Y0060398D01*
X0212219Y0060500D01*
X0210897Y0060464D02*
X0210647Y0060464D01*
X0210647Y0060500D02*
X0209383Y0060500D01*
X0209183Y0060700D01*
X0205274Y0060700D01*
X0204278Y0059704D01*
X0204278Y0058550D01*
X0196405Y0058550D01*
X0195784Y0059170D01*
X0194627Y0059650D01*
X0193373Y0059650D01*
X0192216Y0059170D01*
X0191330Y0058284D01*
X0190850Y0057127D01*
X0190850Y0055873D01*
X0191330Y0054716D01*
X0192216Y0053830D01*
X0193373Y0053350D01*
X0194627Y0053350D01*
X0195784Y0053830D01*
X0196405Y0054450D01*
X0204278Y0054450D01*
X0204278Y0053296D01*
X0205274Y0052300D01*
X0209183Y0052300D01*
X0209383Y0052500D01*
X0210647Y0052500D01*
X0210647Y0056375D01*
X0210897Y0056375D01*
X0210897Y0056625D01*
X0210647Y0056625D01*
X0210647Y0060500D01*
X0210647Y0059466D02*
X0210897Y0059466D01*
X0210897Y0058467D02*
X0210647Y0058467D01*
X0210647Y0057469D02*
X0210897Y0057469D01*
X0210897Y0056470D02*
X0221900Y0056470D01*
X0221900Y0055472D02*
X0213522Y0055472D01*
X0213522Y0056375D02*
X0213522Y0053803D01*
X0213419Y0053421D01*
X0213222Y0053079D01*
X0212943Y0052800D01*
X0212601Y0052602D01*
X0212219Y0052500D01*
X0210897Y0052500D01*
X0210897Y0056375D01*
X0213522Y0056375D01*
X0213522Y0057469D02*
X0221900Y0057469D01*
X0221900Y0058467D02*
X0213522Y0058467D01*
X0213450Y0059466D02*
X0221900Y0059466D01*
X0221900Y0054473D02*
X0213522Y0054473D01*
X0213434Y0053475D02*
X0221900Y0053475D01*
X0221900Y0052476D02*
X0209359Y0052476D01*
X0210647Y0053475D02*
X0210897Y0053475D01*
X0210897Y0054473D02*
X0210647Y0054473D01*
X0210647Y0055472D02*
X0210897Y0055472D01*
X0205098Y0052476D02*
X0180923Y0052476D01*
X0181921Y0051478D02*
X0221900Y0051478D01*
X0221900Y0050479D02*
X0182920Y0050479D01*
X0183918Y0049481D02*
X0221900Y0049481D01*
X0221900Y0048482D02*
X0184917Y0048482D01*
X0185916Y0047484D02*
X0221900Y0047484D01*
X0221900Y0046485D02*
X0201076Y0046485D01*
X0202650Y0045487D02*
X0221900Y0045487D01*
X0221900Y0044488D02*
X0203607Y0044488D01*
X0204021Y0043490D02*
X0221900Y0043490D01*
X0221900Y0042491D02*
X0204400Y0042491D01*
X0204400Y0041493D02*
X0221900Y0041493D01*
X0221900Y0040494D02*
X0204400Y0040494D01*
X0204015Y0039496D02*
X0221900Y0039496D01*
X0228100Y0040474D02*
X0228100Y0121383D01*
X0228688Y0120365D01*
X0228688Y0120365D01*
X0231227Y0118234D01*
X0234343Y0117100D01*
X0237657Y0117100D01*
X0240772Y0118234D01*
X0240773Y0118234D01*
X0243312Y0120365D01*
X0244969Y0123235D01*
X0244969Y0123235D01*
X0245545Y0126500D01*
X0244969Y0129765D01*
X0243312Y0132635D01*
X0243312Y0132635D01*
X0241209Y0134400D01*
X0310791Y0134400D01*
X0308688Y0132635D01*
X0307031Y0129765D01*
X0306455Y0126500D01*
X0306455Y0126500D01*
X0307031Y0123235D01*
X0308688Y0120365D01*
X0308688Y0120365D01*
X0311227Y0118234D01*
X0311227Y0118234D01*
X0314343Y0117100D01*
X0317657Y0117100D01*
X0320772Y0118234D01*
X0320773Y0118234D01*
X0323312Y0120365D01*
X0323900Y0121383D01*
X0323900Y0038600D01*
X0305644Y0038600D01*
X0306400Y0040426D01*
X0306400Y0042574D01*
X0305578Y0044559D01*
X0304059Y0046078D01*
X0302074Y0046900D01*
X0299926Y0046900D01*
X0297941Y0046078D01*
X0296422Y0044559D01*
X0296000Y0043540D01*
X0295578Y0044559D01*
X0294059Y0046078D01*
X0292074Y0046900D01*
X0289926Y0046900D01*
X0288917Y0046482D01*
X0266849Y0068550D01*
X0253405Y0068550D01*
X0252784Y0069170D01*
X0251627Y0069650D01*
X0250373Y0069650D01*
X0249216Y0069170D01*
X0248330Y0068284D01*
X0247850Y0067127D01*
X0247850Y0065873D01*
X0248330Y0064716D01*
X0249216Y0063830D01*
X0250373Y0063350D01*
X0251627Y0063350D01*
X0252784Y0063830D01*
X0253405Y0064450D01*
X0265151Y0064450D01*
X0283144Y0046457D01*
X0282074Y0046900D01*
X0279926Y0046900D01*
X0277941Y0046078D01*
X0276422Y0044559D01*
X0276000Y0043540D01*
X0275578Y0044559D01*
X0274059Y0046078D01*
X0272074Y0046900D01*
X0269926Y0046900D01*
X0267941Y0046078D01*
X0266422Y0044559D01*
X0265891Y0043276D01*
X0265819Y0043496D01*
X0265447Y0044225D01*
X0264966Y0044888D01*
X0264388Y0045466D01*
X0263725Y0045947D01*
X0262996Y0046319D01*
X0262218Y0046572D01*
X0261500Y0046686D01*
X0261500Y0042000D01*
X0260500Y0042000D01*
X0260500Y0046686D01*
X0259782Y0046572D01*
X0259004Y0046319D01*
X0258275Y0045947D01*
X0257612Y0045466D01*
X0257034Y0044888D01*
X0256553Y0044225D01*
X0256181Y0043496D01*
X0255928Y0042718D01*
X0255814Y0042000D01*
X0260500Y0042000D01*
X0260500Y0041000D01*
X0255814Y0041000D01*
X0255928Y0040282D01*
X0256181Y0039504D01*
X0256553Y0038775D01*
X0256679Y0038600D01*
X0243987Y0038600D01*
X0244236Y0039841D01*
X0243129Y0041502D01*
X0244236Y0043162D01*
X0243895Y0044868D01*
X0242447Y0045833D01*
X0240741Y0045492D01*
X0240605Y0045288D01*
X0240468Y0045492D01*
X0238762Y0045833D01*
X0237970Y0045305D01*
X0237571Y0045704D01*
X0236170Y0045704D01*
X0235992Y0045704D01*
X0235832Y0045704D01*
X0235832Y0045704D01*
X0234430Y0045704D01*
X0234430Y0045704D01*
X0234416Y0045690D01*
X0233349Y0044622D01*
X0233131Y0044839D01*
X0232267Y0045704D01*
X0230527Y0045704D01*
X0229903Y0045080D01*
X0229297Y0044473D01*
X0229297Y0041500D01*
X0229126Y0041500D01*
X0228100Y0040474D01*
X0228100Y0040494D02*
X0228120Y0040494D01*
X0228100Y0041493D02*
X0229118Y0041493D01*
X0229297Y0042491D02*
X0228100Y0042491D01*
X0228100Y0043490D02*
X0229297Y0043490D01*
X0229312Y0044488D02*
X0228100Y0044488D01*
X0228100Y0045487D02*
X0230310Y0045487D01*
X0232484Y0045487D02*
X0234213Y0045487D01*
X0236170Y0045704D02*
X0236170Y0045704D01*
X0237788Y0045487D02*
X0238242Y0045487D01*
X0240472Y0045487D02*
X0240737Y0045487D01*
X0242967Y0045487D02*
X0257640Y0045487D01*
X0256743Y0044488D02*
X0243971Y0044488D01*
X0244170Y0043490D02*
X0256179Y0043490D01*
X0255892Y0042491D02*
X0243788Y0042491D01*
X0243135Y0041493D02*
X0260500Y0041493D01*
X0260500Y0042491D02*
X0261500Y0042491D01*
X0261500Y0043490D02*
X0260500Y0043490D01*
X0260500Y0044488D02*
X0261500Y0044488D01*
X0261500Y0045487D02*
X0260500Y0045487D01*
X0260500Y0046485D02*
X0261500Y0046485D01*
X0262485Y0046485D02*
X0268924Y0046485D01*
X0267350Y0045487D02*
X0264360Y0045487D01*
X0265257Y0044488D02*
X0266393Y0044488D01*
X0265979Y0043490D02*
X0265821Y0043490D01*
X0259515Y0046485D02*
X0228100Y0046485D01*
X0228100Y0047484D02*
X0282117Y0047484D01*
X0283076Y0046485D02*
X0283116Y0046485D01*
X0281119Y0048482D02*
X0228100Y0048482D01*
X0228100Y0049481D02*
X0280120Y0049481D01*
X0279122Y0050479D02*
X0228100Y0050479D01*
X0228100Y0051478D02*
X0278123Y0051478D01*
X0277125Y0052476D02*
X0228100Y0052476D01*
X0228100Y0053475D02*
X0276126Y0053475D01*
X0275128Y0054473D02*
X0228100Y0054473D01*
X0228100Y0055472D02*
X0274129Y0055472D01*
X0273131Y0056470D02*
X0228100Y0056470D01*
X0228100Y0057469D02*
X0272132Y0057469D01*
X0271134Y0058467D02*
X0228100Y0058467D01*
X0228100Y0059466D02*
X0270135Y0059466D01*
X0269137Y0060464D02*
X0228100Y0060464D01*
X0228100Y0061463D02*
X0268138Y0061463D01*
X0267140Y0062461D02*
X0228100Y0062461D01*
X0228100Y0063460D02*
X0250108Y0063460D01*
X0251892Y0063460D02*
X0266141Y0063460D01*
X0268944Y0066455D02*
X0323900Y0066455D01*
X0323900Y0065457D02*
X0269942Y0065457D01*
X0270941Y0064458D02*
X0323900Y0064458D01*
X0323900Y0063460D02*
X0271939Y0063460D01*
X0272938Y0062461D02*
X0323900Y0062461D01*
X0323900Y0061463D02*
X0273936Y0061463D01*
X0274935Y0060464D02*
X0307038Y0060464D01*
X0307274Y0060700D02*
X0306278Y0059704D01*
X0306278Y0058550D01*
X0298405Y0058550D01*
X0297784Y0059170D01*
X0296627Y0059650D01*
X0295373Y0059650D01*
X0294216Y0059170D01*
X0293330Y0058284D01*
X0292850Y0057127D01*
X0292850Y0055873D01*
X0293330Y0054716D01*
X0294216Y0053830D01*
X0295373Y0053350D01*
X0296627Y0053350D01*
X0297784Y0053830D01*
X0298405Y0054450D01*
X0306278Y0054450D01*
X0306278Y0053296D01*
X0307274Y0052300D01*
X0311183Y0052300D01*
X0311383Y0052500D01*
X0312647Y0052500D01*
X0312647Y0056375D01*
X0312897Y0056375D01*
X0312897Y0056625D01*
X0315522Y0056625D01*
X0315522Y0059197D01*
X0315419Y0059579D01*
X0315222Y0059921D01*
X0314943Y0060200D01*
X0314601Y0060398D01*
X0314219Y0060500D01*
X0312897Y0060500D01*
X0312897Y0056625D01*
X0312647Y0056625D01*
X0312647Y0060500D01*
X0311383Y0060500D01*
X0311183Y0060700D01*
X0307274Y0060700D01*
X0306278Y0059466D02*
X0297071Y0059466D01*
X0294929Y0059466D02*
X0275933Y0059466D01*
X0276932Y0058467D02*
X0293512Y0058467D01*
X0292992Y0057469D02*
X0277930Y0057469D01*
X0278929Y0056470D02*
X0292850Y0056470D01*
X0293016Y0055472D02*
X0279927Y0055472D01*
X0280926Y0054473D02*
X0293572Y0054473D01*
X0295072Y0053475D02*
X0281924Y0053475D01*
X0282923Y0052476D02*
X0307098Y0052476D01*
X0306278Y0053475D02*
X0296928Y0053475D01*
X0298924Y0046485D02*
X0293076Y0046485D01*
X0294650Y0045487D02*
X0297350Y0045487D01*
X0296393Y0044488D02*
X0295607Y0044488D01*
X0288924Y0046485D02*
X0288914Y0046485D01*
X0287916Y0047484D02*
X0323900Y0047484D01*
X0323900Y0048482D02*
X0286917Y0048482D01*
X0285918Y0049481D02*
X0323900Y0049481D01*
X0323900Y0050479D02*
X0284920Y0050479D01*
X0283921Y0051478D02*
X0323900Y0051478D01*
X0323900Y0052476D02*
X0311359Y0052476D01*
X0312897Y0052500D02*
X0314219Y0052500D01*
X0314601Y0052602D01*
X0314943Y0052800D01*
X0315222Y0053079D01*
X0315419Y0053421D01*
X0315522Y0053803D01*
X0315522Y0056375D01*
X0312897Y0056375D01*
X0312897Y0052500D01*
X0312897Y0053475D02*
X0312647Y0053475D01*
X0312647Y0054473D02*
X0312897Y0054473D01*
X0312897Y0055472D02*
X0312647Y0055472D01*
X0312897Y0056470D02*
X0323900Y0056470D01*
X0323900Y0055472D02*
X0315522Y0055472D01*
X0315522Y0054473D02*
X0323900Y0054473D01*
X0323900Y0053475D02*
X0315434Y0053475D01*
X0315522Y0057469D02*
X0323900Y0057469D01*
X0323900Y0058467D02*
X0315522Y0058467D01*
X0315450Y0059466D02*
X0323900Y0059466D01*
X0323900Y0060464D02*
X0314352Y0060464D01*
X0312897Y0060464D02*
X0312647Y0060464D01*
X0312647Y0059466D02*
X0312897Y0059466D01*
X0312897Y0058467D02*
X0312647Y0058467D01*
X0312647Y0057469D02*
X0312897Y0057469D01*
X0304650Y0045487D02*
X0323900Y0045487D01*
X0323900Y0046485D02*
X0303076Y0046485D01*
X0305607Y0044488D02*
X0323900Y0044488D01*
X0323900Y0043490D02*
X0306021Y0043490D01*
X0306400Y0042491D02*
X0323900Y0042491D01*
X0323900Y0041493D02*
X0306400Y0041493D01*
X0306400Y0040494D02*
X0323900Y0040494D01*
X0323900Y0039496D02*
X0306015Y0039496D01*
X0278924Y0046485D02*
X0273076Y0046485D01*
X0274650Y0045487D02*
X0277350Y0045487D01*
X0276393Y0044488D02*
X0275607Y0044488D01*
X0256185Y0039496D02*
X0244167Y0039496D01*
X0243800Y0040494D02*
X0255895Y0040494D01*
X0248587Y0064458D02*
X0228100Y0064458D01*
X0228100Y0065457D02*
X0248023Y0065457D01*
X0247850Y0066455D02*
X0228100Y0066455D01*
X0228100Y0067454D02*
X0247986Y0067454D01*
X0248498Y0068452D02*
X0228100Y0068452D01*
X0228100Y0069451D02*
X0249893Y0069451D01*
X0252107Y0069451D02*
X0323900Y0069451D01*
X0323900Y0070449D02*
X0228100Y0070449D01*
X0228100Y0071448D02*
X0323900Y0071448D01*
X0323900Y0072446D02*
X0228100Y0072446D01*
X0228100Y0073445D02*
X0323900Y0073445D01*
X0323900Y0074443D02*
X0228100Y0074443D01*
X0228100Y0075442D02*
X0323900Y0075442D01*
X0323900Y0076440D02*
X0228100Y0076440D01*
X0228100Y0077439D02*
X0323900Y0077439D01*
X0323900Y0078437D02*
X0228100Y0078437D01*
X0228100Y0079436D02*
X0323900Y0079436D01*
X0323900Y0080434D02*
X0228100Y0080434D01*
X0228100Y0081433D02*
X0264112Y0081433D01*
X0264216Y0081330D02*
X0265373Y0080850D01*
X0266627Y0080850D01*
X0267784Y0081330D01*
X0268670Y0082216D01*
X0269150Y0083373D01*
X0269150Y0084450D01*
X0313595Y0084450D01*
X0314216Y0083830D01*
X0315373Y0083350D01*
X0316627Y0083350D01*
X0317784Y0083830D01*
X0318670Y0084716D01*
X0319150Y0085873D01*
X0319150Y0087127D01*
X0318670Y0088284D01*
X0317784Y0089170D01*
X0316627Y0089650D01*
X0315373Y0089650D01*
X0314216Y0089170D01*
X0313595Y0088550D01*
X0256849Y0088550D01*
X0244150Y0101249D01*
X0244150Y0102127D01*
X0243670Y0103284D01*
X0242784Y0104170D01*
X0241627Y0104650D01*
X0240373Y0104650D01*
X0239216Y0104170D01*
X0238330Y0103284D01*
X0237850Y0102127D01*
X0237850Y0100873D01*
X0238330Y0099716D01*
X0239216Y0098830D01*
X0240373Y0098350D01*
X0241251Y0098350D01*
X0255151Y0084450D01*
X0262850Y0084450D01*
X0262850Y0083373D01*
X0263330Y0082216D01*
X0264216Y0081330D01*
X0263240Y0082432D02*
X0228100Y0082432D01*
X0228100Y0083430D02*
X0262850Y0083430D01*
X0262850Y0084429D02*
X0228100Y0084429D01*
X0228100Y0085427D02*
X0254174Y0085427D01*
X0253175Y0086426D02*
X0228100Y0086426D01*
X0228100Y0087424D02*
X0252177Y0087424D01*
X0251178Y0088423D02*
X0228100Y0088423D01*
X0228100Y0089421D02*
X0250180Y0089421D01*
X0249181Y0090420D02*
X0228100Y0090420D01*
X0228100Y0091418D02*
X0248183Y0091418D01*
X0247184Y0092417D02*
X0228100Y0092417D01*
X0228100Y0093415D02*
X0246186Y0093415D01*
X0245187Y0094414D02*
X0228100Y0094414D01*
X0228100Y0095412D02*
X0244189Y0095412D01*
X0243190Y0096411D02*
X0228100Y0096411D01*
X0228100Y0097409D02*
X0242192Y0097409D01*
X0240234Y0098408D02*
X0228100Y0098408D01*
X0228100Y0099406D02*
X0238639Y0099406D01*
X0238044Y0100405D02*
X0228100Y0100405D01*
X0228100Y0101403D02*
X0237850Y0101403D01*
X0237964Y0102402D02*
X0228100Y0102402D01*
X0228100Y0103400D02*
X0238445Y0103400D01*
X0239767Y0104399D02*
X0228100Y0104399D01*
X0228100Y0105397D02*
X0323900Y0105397D01*
X0323900Y0104399D02*
X0242233Y0104399D01*
X0243555Y0103400D02*
X0323900Y0103400D01*
X0323900Y0102402D02*
X0244036Y0102402D01*
X0244150Y0101403D02*
X0323900Y0101403D01*
X0323900Y0100405D02*
X0244994Y0100405D01*
X0245993Y0099406D02*
X0323900Y0099406D01*
X0323900Y0098408D02*
X0246991Y0098408D01*
X0247990Y0097409D02*
X0323900Y0097409D01*
X0323900Y0096411D02*
X0248988Y0096411D01*
X0249987Y0095412D02*
X0323900Y0095412D01*
X0323900Y0094414D02*
X0250985Y0094414D01*
X0251984Y0093415D02*
X0323900Y0093415D01*
X0323900Y0092417D02*
X0252982Y0092417D01*
X0253981Y0091418D02*
X0323900Y0091418D01*
X0323900Y0090420D02*
X0254980Y0090420D01*
X0255978Y0089421D02*
X0314821Y0089421D01*
X0317179Y0089421D02*
X0323900Y0089421D01*
X0323900Y0088423D02*
X0318532Y0088423D01*
X0319027Y0087424D02*
X0323900Y0087424D01*
X0323900Y0086426D02*
X0319150Y0086426D01*
X0318965Y0085427D02*
X0323900Y0085427D01*
X0323900Y0084429D02*
X0318383Y0084429D01*
X0316820Y0083430D02*
X0323900Y0083430D01*
X0323900Y0082432D02*
X0268760Y0082432D01*
X0269150Y0083430D02*
X0315180Y0083430D01*
X0313617Y0084429D02*
X0269150Y0084429D01*
X0267888Y0081433D02*
X0323900Y0081433D01*
X0323900Y0068452D02*
X0266947Y0068452D01*
X0267945Y0067454D02*
X0323900Y0067454D01*
X0323900Y0106396D02*
X0228100Y0106396D01*
X0228100Y0107394D02*
X0323900Y0107394D01*
X0323900Y0108393D02*
X0228100Y0108393D01*
X0228100Y0109391D02*
X0323900Y0109391D01*
X0323900Y0110390D02*
X0228100Y0110390D01*
X0228100Y0111388D02*
X0323900Y0111388D01*
X0323900Y0112387D02*
X0228100Y0112387D01*
X0228100Y0113385D02*
X0323900Y0113385D01*
X0323900Y0114384D02*
X0228100Y0114384D01*
X0228100Y0115382D02*
X0323900Y0115382D01*
X0323900Y0116381D02*
X0228100Y0116381D01*
X0228100Y0117379D02*
X0233575Y0117379D01*
X0231056Y0118378D02*
X0228100Y0118378D01*
X0228100Y0119376D02*
X0229866Y0119376D01*
X0228682Y0120375D02*
X0228100Y0120375D01*
X0228100Y0121373D02*
X0228106Y0121373D01*
X0221900Y0121373D02*
X0221894Y0121373D01*
X0221900Y0120375D02*
X0221318Y0120375D01*
X0221312Y0120365D02*
X0221312Y0120365D01*
X0221312Y0120365D01*
X0221900Y0119376D02*
X0220134Y0119376D01*
X0218944Y0118378D02*
X0221900Y0118378D01*
X0221900Y0117379D02*
X0216425Y0117379D01*
X0211575Y0117379D02*
X0136425Y0117379D01*
X0138944Y0118378D02*
X0209056Y0118378D01*
X0207866Y0119376D02*
X0140134Y0119376D01*
X0141312Y0120365D02*
X0141312Y0120365D01*
X0141312Y0120365D01*
X0141318Y0120375D02*
X0206682Y0120375D01*
X0206106Y0121373D02*
X0141894Y0121373D01*
X0142471Y0122372D02*
X0205529Y0122372D01*
X0205007Y0123370D02*
X0142993Y0123370D01*
X0143169Y0124369D02*
X0204831Y0124369D01*
X0204655Y0125368D02*
X0143345Y0125368D01*
X0143521Y0126366D02*
X0204479Y0126366D01*
X0204607Y0127365D02*
X0143393Y0127365D01*
X0143216Y0128363D02*
X0204784Y0128363D01*
X0204960Y0129362D02*
X0143040Y0129362D01*
X0142626Y0130360D02*
X0205374Y0130360D01*
X0205951Y0131359D02*
X0142049Y0131359D01*
X0141473Y0132357D02*
X0206527Y0132357D01*
X0206688Y0132635D02*
X0206688Y0132635D01*
X0206688Y0132635D01*
X0207546Y0133356D02*
X0140454Y0133356D01*
X0139264Y0134354D02*
X0208736Y0134354D01*
X0203644Y0140600D02*
X0204400Y0142426D01*
X0204400Y0144574D01*
X0203578Y0146559D01*
X0202059Y0148078D01*
X0200074Y0148900D01*
X0197926Y0148900D01*
X0195941Y0148078D01*
X0194422Y0146559D01*
X0194000Y0145540D01*
X0193578Y0146559D01*
X0192059Y0148078D01*
X0190074Y0148900D01*
X0187926Y0148900D01*
X0186917Y0148482D01*
X0164849Y0170550D01*
X0151405Y0170550D01*
X0150784Y0171170D01*
X0149627Y0171650D01*
X0148373Y0171650D01*
X0147216Y0171170D01*
X0146330Y0170284D01*
X0145850Y0169127D01*
X0145850Y0167873D01*
X0146330Y0166716D01*
X0147216Y0165830D01*
X0148373Y0165350D01*
X0149627Y0165350D01*
X0150784Y0165830D01*
X0151405Y0166450D01*
X0163151Y0166450D01*
X0181144Y0148457D01*
X0180074Y0148900D01*
X0177926Y0148900D01*
X0175941Y0148078D01*
X0174422Y0146559D01*
X0174000Y0145540D01*
X0173578Y0146559D01*
X0172059Y0148078D01*
X0170074Y0148900D01*
X0167926Y0148900D01*
X0165941Y0148078D01*
X0164422Y0146559D01*
X0163891Y0145276D01*
X0163819Y0145496D01*
X0163447Y0146225D01*
X0162966Y0146888D01*
X0162388Y0147466D01*
X0161725Y0147947D01*
X0160996Y0148319D01*
X0160218Y0148572D01*
X0159500Y0148686D01*
X0159500Y0144000D01*
X0158500Y0144000D01*
X0158500Y0148686D01*
X0157782Y0148572D01*
X0157004Y0148319D01*
X0156275Y0147947D01*
X0155612Y0147466D01*
X0155034Y0146888D01*
X0154553Y0146225D01*
X0154181Y0145496D01*
X0153928Y0144718D01*
X0153814Y0144000D01*
X0158500Y0144000D01*
X0158500Y0143000D01*
X0153814Y0143000D01*
X0153928Y0142282D01*
X0154181Y0141504D01*
X0154553Y0140775D01*
X0154679Y0140600D01*
X0141987Y0140600D01*
X0142236Y0141841D01*
X0141129Y0143502D01*
X0142236Y0145162D01*
X0141895Y0146868D01*
X0140447Y0147833D01*
X0138741Y0147492D01*
X0138605Y0147288D01*
X0138468Y0147492D01*
X0136762Y0147833D01*
X0135970Y0147305D01*
X0135571Y0147704D01*
X0134170Y0147704D01*
X0133992Y0147704D01*
X0133832Y0147704D01*
X0133832Y0147704D01*
X0132430Y0147704D01*
X0132430Y0147704D01*
X0132416Y0147690D01*
X0131349Y0146622D01*
X0131131Y0146839D01*
X0130267Y0147704D01*
X0128527Y0147704D01*
X0127903Y0147080D01*
X0127297Y0146473D01*
X0127297Y0143500D01*
X0127126Y0143500D01*
X0126100Y0142474D01*
X0126100Y0223383D01*
X0126688Y0222365D01*
X0126688Y0222365D01*
X0129227Y0220234D01*
X0129227Y0220234D01*
X0132343Y0219100D01*
X0135657Y0219100D01*
X0138772Y0220234D01*
X0138773Y0220234D01*
X0141312Y0222365D01*
X0142969Y0225235D01*
X0142969Y0225235D01*
X0143545Y0228500D01*
X0142969Y0231765D01*
X0141312Y0234635D01*
X0141312Y0234635D01*
X0139209Y0236400D01*
X0208791Y0236400D01*
X0206688Y0234635D01*
X0205031Y0231765D01*
X0204455Y0228500D01*
X0204455Y0228500D01*
X0205031Y0225235D01*
X0206688Y0222365D01*
X0206688Y0222365D01*
X0209227Y0220234D01*
X0209227Y0220234D01*
X0212343Y0219100D01*
X0215657Y0219100D01*
X0218772Y0220234D01*
X0218773Y0220234D01*
X0221312Y0222365D01*
X0221900Y0223383D01*
X0221900Y0140600D01*
X0203644Y0140600D01*
X0203952Y0141344D02*
X0221900Y0141344D01*
X0221900Y0142342D02*
X0204365Y0142342D01*
X0204400Y0143341D02*
X0221900Y0143341D01*
X0221900Y0144339D02*
X0204400Y0144339D01*
X0204084Y0145338D02*
X0221900Y0145338D01*
X0221900Y0146336D02*
X0203670Y0146336D01*
X0202802Y0147335D02*
X0221900Y0147335D01*
X0221900Y0148333D02*
X0201442Y0148333D01*
X0196558Y0148333D02*
X0191442Y0148333D01*
X0192802Y0147335D02*
X0195198Y0147335D01*
X0194330Y0146336D02*
X0193670Y0146336D01*
X0186067Y0149332D02*
X0221900Y0149332D01*
X0221900Y0150330D02*
X0185069Y0150330D01*
X0184070Y0151329D02*
X0221900Y0151329D01*
X0221900Y0152327D02*
X0183072Y0152327D01*
X0182073Y0153326D02*
X0221900Y0153326D01*
X0221900Y0154324D02*
X0209207Y0154324D01*
X0209183Y0154300D02*
X0209383Y0154500D01*
X0210647Y0154500D01*
X0210647Y0158375D01*
X0210897Y0158375D01*
X0210897Y0158625D01*
X0213522Y0158625D01*
X0213522Y0161197D01*
X0213419Y0161579D01*
X0213222Y0161921D01*
X0212943Y0162200D01*
X0212601Y0162398D01*
X0212219Y0162500D01*
X0210897Y0162500D01*
X0210897Y0158625D01*
X0210647Y0158625D01*
X0210647Y0162500D01*
X0209383Y0162500D01*
X0209183Y0162700D01*
X0205274Y0162700D01*
X0204278Y0161704D01*
X0204278Y0160550D01*
X0196405Y0160550D01*
X0195784Y0161170D01*
X0194627Y0161650D01*
X0193373Y0161650D01*
X0192216Y0161170D01*
X0191330Y0160284D01*
X0190850Y0159127D01*
X0190850Y0157873D01*
X0191330Y0156716D01*
X0192216Y0155830D01*
X0193373Y0155350D01*
X0194627Y0155350D01*
X0195784Y0155830D01*
X0196405Y0156450D01*
X0204278Y0156450D01*
X0204278Y0155296D01*
X0205274Y0154300D01*
X0209183Y0154300D01*
X0210897Y0154500D02*
X0210897Y0158375D01*
X0213522Y0158375D01*
X0213522Y0155803D01*
X0213419Y0155421D01*
X0213222Y0155079D01*
X0212943Y0154800D01*
X0212601Y0154602D01*
X0212219Y0154500D01*
X0210897Y0154500D01*
X0210897Y0155323D02*
X0210647Y0155323D01*
X0210647Y0156321D02*
X0210897Y0156321D01*
X0210897Y0157320D02*
X0210647Y0157320D01*
X0210647Y0158318D02*
X0210897Y0158318D01*
X0210897Y0159317D02*
X0210647Y0159317D01*
X0210647Y0160315D02*
X0210897Y0160315D01*
X0210897Y0161314D02*
X0210647Y0161314D01*
X0210647Y0162312D02*
X0210897Y0162312D01*
X0212748Y0162312D02*
X0221900Y0162312D01*
X0221900Y0161314D02*
X0213490Y0161314D01*
X0213522Y0160315D02*
X0221900Y0160315D01*
X0221900Y0159317D02*
X0213522Y0159317D01*
X0213522Y0158318D02*
X0221900Y0158318D01*
X0221900Y0157320D02*
X0213522Y0157320D01*
X0213522Y0156321D02*
X0221900Y0156321D01*
X0221900Y0155323D02*
X0213363Y0155323D01*
X0205250Y0154324D02*
X0181075Y0154324D01*
X0180076Y0155323D02*
X0204278Y0155323D01*
X0204278Y0156321D02*
X0196276Y0156321D01*
X0191724Y0156321D02*
X0179078Y0156321D01*
X0178079Y0157320D02*
X0191079Y0157320D01*
X0190850Y0158318D02*
X0177081Y0158318D01*
X0176082Y0159317D02*
X0190929Y0159317D01*
X0191361Y0160315D02*
X0175084Y0160315D01*
X0174085Y0161314D02*
X0192562Y0161314D01*
X0195438Y0161314D02*
X0204278Y0161314D01*
X0204887Y0162312D02*
X0173087Y0162312D01*
X0172088Y0163311D02*
X0221900Y0163311D01*
X0221900Y0164309D02*
X0171090Y0164309D01*
X0170091Y0165308D02*
X0221900Y0165308D01*
X0221900Y0166306D02*
X0169093Y0166306D01*
X0168094Y0167305D02*
X0221900Y0167305D01*
X0221900Y0168303D02*
X0167096Y0168303D01*
X0166097Y0169302D02*
X0221900Y0169302D01*
X0221900Y0170301D02*
X0165099Y0170301D01*
X0163294Y0166306D02*
X0151261Y0166306D01*
X0146739Y0166306D02*
X0126100Y0166306D01*
X0126100Y0165308D02*
X0164293Y0165308D01*
X0165291Y0164309D02*
X0126100Y0164309D01*
X0126100Y0163311D02*
X0166290Y0163311D01*
X0167288Y0162312D02*
X0126100Y0162312D01*
X0126100Y0161314D02*
X0168287Y0161314D01*
X0169285Y0160315D02*
X0126100Y0160315D01*
X0126100Y0159317D02*
X0170284Y0159317D01*
X0171282Y0158318D02*
X0126100Y0158318D01*
X0126100Y0157320D02*
X0172281Y0157320D01*
X0173279Y0156321D02*
X0126100Y0156321D01*
X0126100Y0155323D02*
X0174278Y0155323D01*
X0175277Y0154324D02*
X0126100Y0154324D01*
X0126100Y0153326D02*
X0176275Y0153326D01*
X0177274Y0152327D02*
X0126100Y0152327D01*
X0126100Y0151329D02*
X0178272Y0151329D01*
X0179271Y0150330D02*
X0126100Y0150330D01*
X0126100Y0149332D02*
X0180269Y0149332D01*
X0176558Y0148333D02*
X0171442Y0148333D01*
X0172802Y0147335D02*
X0175198Y0147335D01*
X0174330Y0146336D02*
X0173670Y0146336D01*
X0166558Y0148333D02*
X0160952Y0148333D01*
X0159500Y0148333D02*
X0158500Y0148333D01*
X0158500Y0147335D02*
X0159500Y0147335D01*
X0159500Y0146336D02*
X0158500Y0146336D01*
X0158500Y0145338D02*
X0159500Y0145338D01*
X0159500Y0144339D02*
X0158500Y0144339D01*
X0158500Y0143341D02*
X0141236Y0143341D01*
X0141687Y0144339D02*
X0153868Y0144339D01*
X0154130Y0145338D02*
X0142201Y0145338D01*
X0142001Y0146336D02*
X0154633Y0146336D01*
X0155481Y0147335D02*
X0141195Y0147335D01*
X0138636Y0147335D02*
X0138573Y0147335D01*
X0136014Y0147335D02*
X0135940Y0147335D01*
X0134170Y0147704D02*
X0134170Y0147704D01*
X0132062Y0147335D02*
X0130636Y0147335D01*
X0128158Y0147335D02*
X0126100Y0147335D01*
X0126100Y0148333D02*
X0157048Y0148333D01*
X0162519Y0147335D02*
X0165198Y0147335D01*
X0164330Y0146336D02*
X0163367Y0146336D01*
X0163870Y0145338D02*
X0163916Y0145338D01*
X0153919Y0142342D02*
X0141902Y0142342D01*
X0142136Y0141344D02*
X0154263Y0141344D01*
X0146085Y0167305D02*
X0126100Y0167305D01*
X0126100Y0168303D02*
X0145850Y0168303D01*
X0145923Y0169302D02*
X0126100Y0169302D01*
X0126100Y0170301D02*
X0146346Y0170301D01*
X0147526Y0171299D02*
X0126100Y0171299D01*
X0126100Y0172298D02*
X0221900Y0172298D01*
X0221900Y0173296D02*
X0126100Y0173296D01*
X0126100Y0174295D02*
X0221900Y0174295D01*
X0221900Y0175293D02*
X0126100Y0175293D01*
X0126100Y0176292D02*
X0221900Y0176292D01*
X0221900Y0177290D02*
X0126100Y0177290D01*
X0126100Y0178289D02*
X0221900Y0178289D01*
X0221900Y0179287D02*
X0126100Y0179287D01*
X0126100Y0180286D02*
X0221900Y0180286D01*
X0221900Y0181284D02*
X0126100Y0181284D01*
X0126100Y0182283D02*
X0221900Y0182283D01*
X0221900Y0183281D02*
X0165667Y0183281D01*
X0165784Y0183330D02*
X0166670Y0184216D01*
X0167150Y0185373D01*
X0167150Y0186450D01*
X0211595Y0186450D01*
X0212216Y0185830D01*
X0213373Y0185350D01*
X0214627Y0185350D01*
X0215784Y0185830D01*
X0216670Y0186716D01*
X0217150Y0187873D01*
X0217150Y0189127D01*
X0216670Y0190284D01*
X0215784Y0191170D01*
X0214627Y0191650D01*
X0213373Y0191650D01*
X0212216Y0191170D01*
X0211595Y0190550D01*
X0154849Y0190550D01*
X0142150Y0203249D01*
X0142150Y0204127D01*
X0141670Y0205284D01*
X0140784Y0206170D01*
X0139627Y0206650D01*
X0138373Y0206650D01*
X0137216Y0206170D01*
X0136330Y0205284D01*
X0135850Y0204127D01*
X0135850Y0202873D01*
X0136330Y0201716D01*
X0137216Y0200830D01*
X0138373Y0200350D01*
X0139251Y0200350D01*
X0153151Y0186450D01*
X0160850Y0186450D01*
X0160850Y0185373D01*
X0161330Y0184216D01*
X0162216Y0183330D01*
X0163373Y0182850D01*
X0164627Y0182850D01*
X0165784Y0183330D01*
X0166697Y0184280D02*
X0221900Y0184280D01*
X0221900Y0185278D02*
X0167111Y0185278D01*
X0167150Y0186277D02*
X0211769Y0186277D01*
X0216231Y0186277D02*
X0221900Y0186277D01*
X0221900Y0187275D02*
X0216902Y0187275D01*
X0217150Y0188274D02*
X0221900Y0188274D01*
X0221900Y0189272D02*
X0217090Y0189272D01*
X0216676Y0190271D02*
X0221900Y0190271D01*
X0221900Y0191269D02*
X0215546Y0191269D01*
X0212454Y0191269D02*
X0154130Y0191269D01*
X0153131Y0192268D02*
X0221900Y0192268D01*
X0221900Y0193266D02*
X0152133Y0193266D01*
X0151134Y0194265D02*
X0221900Y0194265D01*
X0221900Y0195263D02*
X0150136Y0195263D01*
X0149137Y0196262D02*
X0221900Y0196262D01*
X0221900Y0197260D02*
X0148139Y0197260D01*
X0147140Y0198259D02*
X0221900Y0198259D01*
X0221900Y0199257D02*
X0146142Y0199257D01*
X0145143Y0200256D02*
X0221900Y0200256D01*
X0221900Y0201254D02*
X0144145Y0201254D01*
X0143146Y0202253D02*
X0221900Y0202253D01*
X0221900Y0203251D02*
X0142150Y0203251D01*
X0142099Y0204250D02*
X0221900Y0204250D01*
X0221900Y0205248D02*
X0141685Y0205248D01*
X0140600Y0206247D02*
X0221900Y0206247D01*
X0221900Y0207245D02*
X0126100Y0207245D01*
X0126100Y0206247D02*
X0137400Y0206247D01*
X0136315Y0205248D02*
X0126100Y0205248D01*
X0126100Y0204250D02*
X0135901Y0204250D01*
X0135850Y0203251D02*
X0126100Y0203251D01*
X0126100Y0202253D02*
X0136107Y0202253D01*
X0136791Y0201254D02*
X0126100Y0201254D01*
X0126100Y0200256D02*
X0139345Y0200256D01*
X0140344Y0199257D02*
X0126100Y0199257D01*
X0126100Y0198259D02*
X0141342Y0198259D01*
X0142341Y0197260D02*
X0126100Y0197260D01*
X0126100Y0196262D02*
X0143339Y0196262D01*
X0144338Y0195263D02*
X0126100Y0195263D01*
X0126100Y0194265D02*
X0145336Y0194265D01*
X0146335Y0193266D02*
X0126100Y0193266D01*
X0126100Y0192268D02*
X0147333Y0192268D01*
X0148332Y0191269D02*
X0126100Y0191269D01*
X0126100Y0190271D02*
X0149330Y0190271D01*
X0150329Y0189272D02*
X0126100Y0189272D01*
X0126100Y0188274D02*
X0151327Y0188274D01*
X0152326Y0187275D02*
X0126100Y0187275D01*
X0126100Y0186277D02*
X0160850Y0186277D01*
X0160889Y0185278D02*
X0126100Y0185278D01*
X0126100Y0184280D02*
X0161303Y0184280D01*
X0162332Y0183281D02*
X0126100Y0183281D01*
X0119900Y0183281D02*
X0063667Y0183281D01*
X0063784Y0183330D02*
X0064670Y0184216D01*
X0065150Y0185373D01*
X0065150Y0186450D01*
X0109595Y0186450D01*
X0110216Y0185830D01*
X0111373Y0185350D01*
X0112627Y0185350D01*
X0113784Y0185830D01*
X0114670Y0186716D01*
X0115150Y0187873D01*
X0115150Y0189127D01*
X0114670Y0190284D01*
X0113784Y0191170D01*
X0112627Y0191650D01*
X0111373Y0191650D01*
X0110216Y0191170D01*
X0109595Y0190550D01*
X0052849Y0190550D01*
X0040150Y0203249D01*
X0040150Y0204127D01*
X0039670Y0205284D01*
X0038784Y0206170D01*
X0037627Y0206650D01*
X0036373Y0206650D01*
X0035216Y0206170D01*
X0034330Y0205284D01*
X0033850Y0204127D01*
X0033850Y0202873D01*
X0034330Y0201716D01*
X0035216Y0200830D01*
X0036373Y0200350D01*
X0037251Y0200350D01*
X0051151Y0186450D01*
X0058850Y0186450D01*
X0058850Y0185373D01*
X0059330Y0184216D01*
X0060216Y0183330D01*
X0061373Y0182850D01*
X0062627Y0182850D01*
X0063784Y0183330D01*
X0064697Y0184280D02*
X0119900Y0184280D01*
X0119900Y0185278D02*
X0065111Y0185278D01*
X0065150Y0186277D02*
X0109769Y0186277D01*
X0114231Y0186277D02*
X0119900Y0186277D01*
X0119900Y0187275D02*
X0114902Y0187275D01*
X0115150Y0188274D02*
X0119900Y0188274D01*
X0119900Y0189272D02*
X0115090Y0189272D01*
X0114676Y0190271D02*
X0119900Y0190271D01*
X0119900Y0191269D02*
X0113546Y0191269D01*
X0110454Y0191269D02*
X0052130Y0191269D01*
X0051131Y0192268D02*
X0119900Y0192268D01*
X0119900Y0193266D02*
X0050133Y0193266D01*
X0049134Y0194265D02*
X0119900Y0194265D01*
X0119900Y0195263D02*
X0048136Y0195263D01*
X0047137Y0196262D02*
X0119900Y0196262D01*
X0119900Y0197260D02*
X0046139Y0197260D01*
X0045140Y0198259D02*
X0119900Y0198259D01*
X0119900Y0199257D02*
X0044142Y0199257D01*
X0043143Y0200256D02*
X0119900Y0200256D01*
X0119900Y0201254D02*
X0042145Y0201254D01*
X0041146Y0202253D02*
X0119900Y0202253D01*
X0119900Y0203251D02*
X0040150Y0203251D01*
X0040099Y0204250D02*
X0119900Y0204250D01*
X0119900Y0205248D02*
X0039685Y0205248D01*
X0038600Y0206247D02*
X0119900Y0206247D01*
X0119900Y0207245D02*
X0024100Y0207245D01*
X0024100Y0206247D02*
X0035400Y0206247D01*
X0034315Y0205248D02*
X0024100Y0205248D01*
X0024100Y0204250D02*
X0033901Y0204250D01*
X0033850Y0203251D02*
X0024100Y0203251D01*
X0024100Y0202253D02*
X0034107Y0202253D01*
X0034791Y0201254D02*
X0024100Y0201254D01*
X0024100Y0200256D02*
X0037345Y0200256D01*
X0038344Y0199257D02*
X0024100Y0199257D01*
X0024100Y0198259D02*
X0039342Y0198259D01*
X0040341Y0197260D02*
X0024100Y0197260D01*
X0024100Y0196262D02*
X0041339Y0196262D01*
X0042338Y0195263D02*
X0024100Y0195263D01*
X0024100Y0194265D02*
X0043336Y0194265D01*
X0044335Y0193266D02*
X0024100Y0193266D01*
X0024100Y0192268D02*
X0045333Y0192268D01*
X0046332Y0191269D02*
X0024100Y0191269D01*
X0024100Y0190271D02*
X0047330Y0190271D01*
X0048329Y0189272D02*
X0024100Y0189272D01*
X0024100Y0188274D02*
X0049327Y0188274D01*
X0050326Y0187275D02*
X0024100Y0187275D01*
X0024100Y0186277D02*
X0058850Y0186277D01*
X0058889Y0185278D02*
X0024100Y0185278D01*
X0024100Y0184280D02*
X0059303Y0184280D01*
X0060332Y0183281D02*
X0024100Y0183281D01*
X0024100Y0182283D02*
X0119900Y0182283D01*
X0119900Y0181284D02*
X0024100Y0181284D01*
X0024100Y0180286D02*
X0119900Y0180286D01*
X0119900Y0179287D02*
X0024100Y0179287D01*
X0024100Y0178289D02*
X0119900Y0178289D01*
X0119900Y0177290D02*
X0024100Y0177290D01*
X0024100Y0176292D02*
X0119900Y0176292D01*
X0119900Y0175293D02*
X0024100Y0175293D01*
X0024100Y0174295D02*
X0119900Y0174295D01*
X0119900Y0173296D02*
X0024100Y0173296D01*
X0024100Y0172298D02*
X0119900Y0172298D01*
X0119900Y0171299D02*
X0048474Y0171299D01*
X0048784Y0171170D02*
X0047627Y0171650D01*
X0046373Y0171650D01*
X0045216Y0171170D01*
X0044330Y0170284D01*
X0043850Y0169127D01*
X0043850Y0167873D01*
X0044330Y0166716D01*
X0045216Y0165830D01*
X0046373Y0165350D01*
X0047627Y0165350D01*
X0048784Y0165830D01*
X0049405Y0166450D01*
X0061151Y0166450D01*
X0079144Y0148457D01*
X0078074Y0148900D01*
X0075926Y0148900D01*
X0073941Y0148078D01*
X0072422Y0146559D01*
X0072000Y0145540D01*
X0071578Y0146559D01*
X0070059Y0148078D01*
X0068074Y0148900D01*
X0065926Y0148900D01*
X0063941Y0148078D01*
X0062422Y0146559D01*
X0061891Y0145276D01*
X0061819Y0145496D01*
X0061447Y0146225D01*
X0060966Y0146888D01*
X0060388Y0147466D01*
X0059725Y0147947D01*
X0058996Y0148319D01*
X0058218Y0148572D01*
X0057500Y0148686D01*
X0057500Y0144000D01*
X0056500Y0144000D01*
X0056500Y0148686D01*
X0055782Y0148572D01*
X0055004Y0148319D01*
X0054275Y0147947D01*
X0053612Y0147466D01*
X0053034Y0146888D01*
X0052553Y0146225D01*
X0052181Y0145496D01*
X0051928Y0144718D01*
X0051814Y0144000D01*
X0056500Y0144000D01*
X0056500Y0143000D01*
X0051814Y0143000D01*
X0051928Y0142282D01*
X0052181Y0141504D01*
X0052553Y0140775D01*
X0052679Y0140600D01*
X0039987Y0140600D01*
X0040236Y0141841D01*
X0039129Y0143502D01*
X0040236Y0145162D01*
X0039895Y0146868D01*
X0038447Y0147833D01*
X0036741Y0147492D01*
X0036605Y0147288D01*
X0036468Y0147492D01*
X0034762Y0147833D01*
X0033970Y0147305D01*
X0033571Y0147704D01*
X0032170Y0147704D01*
X0031832Y0147704D01*
X0031832Y0147704D01*
X0030430Y0147704D01*
X0030430Y0147704D01*
X0030416Y0147690D01*
X0029349Y0146622D01*
X0029131Y0146839D01*
X0028267Y0147704D01*
X0026527Y0147704D01*
X0025903Y0147080D01*
X0025297Y0146473D01*
X0025297Y0143500D01*
X0025126Y0143500D01*
X0024100Y0142474D01*
X0024100Y0223383D01*
X0024688Y0222365D01*
X0024688Y0222365D01*
X0027227Y0220234D01*
X0027227Y0220234D01*
X0030343Y0219100D01*
X0033657Y0219100D01*
X0036772Y0220234D01*
X0036773Y0220234D01*
X0039312Y0222365D01*
X0040969Y0225235D01*
X0040969Y0225235D01*
X0041545Y0228500D01*
X0040969Y0231765D01*
X0039312Y0234635D01*
X0039312Y0234635D01*
X0037209Y0236400D01*
X0106791Y0236400D01*
X0104688Y0234635D01*
X0103031Y0231765D01*
X0102455Y0228500D01*
X0102455Y0228500D01*
X0103031Y0225235D01*
X0104688Y0222365D01*
X0104688Y0222365D01*
X0107227Y0220234D01*
X0107227Y0220234D01*
X0110343Y0219100D01*
X0113657Y0219100D01*
X0116772Y0220234D01*
X0116773Y0220234D01*
X0119312Y0222365D01*
X0119900Y0223383D01*
X0119900Y0140600D01*
X0101644Y0140600D01*
X0102400Y0142426D01*
X0102400Y0144574D01*
X0101578Y0146559D01*
X0100059Y0148078D01*
X0098074Y0148900D01*
X0095926Y0148900D01*
X0093941Y0148078D01*
X0092422Y0146559D01*
X0092000Y0145540D01*
X0091578Y0146559D01*
X0090059Y0148078D01*
X0088074Y0148900D01*
X0085926Y0148900D01*
X0084917Y0148482D01*
X0062849Y0170550D01*
X0049405Y0170550D01*
X0048784Y0171170D01*
X0045526Y0171299D02*
X0024100Y0171299D01*
X0024100Y0170301D02*
X0044346Y0170301D01*
X0043923Y0169302D02*
X0024100Y0169302D01*
X0024100Y0168303D02*
X0043850Y0168303D01*
X0044085Y0167305D02*
X0024100Y0167305D01*
X0024100Y0166306D02*
X0044739Y0166306D01*
X0049261Y0166306D02*
X0061294Y0166306D01*
X0062293Y0165308D02*
X0024100Y0165308D01*
X0024100Y0164309D02*
X0063291Y0164309D01*
X0064290Y0163311D02*
X0024100Y0163311D01*
X0024100Y0162312D02*
X0065288Y0162312D01*
X0066287Y0161314D02*
X0024100Y0161314D01*
X0024100Y0160315D02*
X0067285Y0160315D01*
X0068284Y0159317D02*
X0024100Y0159317D01*
X0024100Y0158318D02*
X0069282Y0158318D01*
X0070281Y0157320D02*
X0024100Y0157320D01*
X0024100Y0156321D02*
X0071279Y0156321D01*
X0072278Y0155323D02*
X0024100Y0155323D01*
X0024100Y0154324D02*
X0073277Y0154324D01*
X0074275Y0153326D02*
X0024100Y0153326D01*
X0024100Y0152327D02*
X0075274Y0152327D01*
X0076272Y0151329D02*
X0024100Y0151329D01*
X0024100Y0150330D02*
X0077271Y0150330D01*
X0078269Y0149332D02*
X0024100Y0149332D01*
X0024100Y0148333D02*
X0055048Y0148333D01*
X0056500Y0148333D02*
X0057500Y0148333D01*
X0057500Y0147335D02*
X0056500Y0147335D01*
X0056500Y0146336D02*
X0057500Y0146336D01*
X0057500Y0145338D02*
X0056500Y0145338D01*
X0056500Y0144339D02*
X0057500Y0144339D01*
X0056500Y0143341D02*
X0039236Y0143341D01*
X0039687Y0144339D02*
X0051868Y0144339D01*
X0052130Y0145338D02*
X0040201Y0145338D01*
X0040001Y0146336D02*
X0052633Y0146336D01*
X0053481Y0147335D02*
X0039195Y0147335D01*
X0036636Y0147335D02*
X0036573Y0147335D01*
X0034014Y0147335D02*
X0033940Y0147335D01*
X0032170Y0147704D02*
X0032170Y0147704D01*
X0030062Y0147335D02*
X0028636Y0147335D01*
X0026158Y0147335D02*
X0024100Y0147335D01*
X0024100Y0146336D02*
X0025297Y0146336D01*
X0025297Y0145338D02*
X0024100Y0145338D01*
X0024100Y0144339D02*
X0025297Y0144339D01*
X0024967Y0143341D02*
X0024100Y0143341D01*
X0039902Y0142342D02*
X0051919Y0142342D01*
X0052263Y0141344D02*
X0040136Y0141344D01*
X0037264Y0134354D02*
X0106736Y0134354D01*
X0105546Y0133356D02*
X0038454Y0133356D01*
X0039473Y0132357D02*
X0104527Y0132357D01*
X0104688Y0132635D02*
X0104688Y0132635D01*
X0104688Y0132635D01*
X0103951Y0131359D02*
X0040049Y0131359D01*
X0040626Y0130360D02*
X0103374Y0130360D01*
X0103031Y0129765D02*
X0103031Y0129765D01*
X0102960Y0129362D02*
X0041040Y0129362D01*
X0040969Y0129765D02*
X0040969Y0129765D01*
X0041216Y0128363D02*
X0102784Y0128363D01*
X0102607Y0127365D02*
X0041393Y0127365D01*
X0041545Y0126500D02*
X0041545Y0126500D01*
X0041521Y0126366D02*
X0102479Y0126366D01*
X0102655Y0125368D02*
X0041345Y0125368D01*
X0041169Y0124369D02*
X0102831Y0124369D01*
X0103007Y0123370D02*
X0040993Y0123370D01*
X0040471Y0122372D02*
X0103529Y0122372D01*
X0103031Y0123235D02*
X0103031Y0123235D01*
X0104106Y0121373D02*
X0039894Y0121373D01*
X0039318Y0120375D02*
X0104682Y0120375D01*
X0105866Y0119376D02*
X0038134Y0119376D01*
X0039312Y0120365D02*
X0039312Y0120365D01*
X0039312Y0120365D01*
X0036944Y0118378D02*
X0107056Y0118378D01*
X0109575Y0117379D02*
X0034425Y0117379D01*
X0029575Y0117379D02*
X0024100Y0117379D01*
X0024100Y0116381D02*
X0119900Y0116381D01*
X0119900Y0117379D02*
X0114425Y0117379D01*
X0113657Y0117100D02*
X0113657Y0117100D01*
X0116944Y0118378D02*
X0119900Y0118378D01*
X0119900Y0119376D02*
X0118134Y0119376D01*
X0119312Y0120365D02*
X0119312Y0120365D01*
X0119318Y0120375D02*
X0119900Y0120375D01*
X0119894Y0121373D02*
X0119900Y0121373D01*
X0119900Y0115382D02*
X0024100Y0115382D01*
X0024100Y0114384D02*
X0119900Y0114384D01*
X0119900Y0113385D02*
X0024100Y0113385D01*
X0024100Y0112387D02*
X0119900Y0112387D01*
X0119900Y0111388D02*
X0024100Y0111388D01*
X0024100Y0110390D02*
X0119900Y0110390D01*
X0119900Y0109391D02*
X0024100Y0109391D01*
X0024100Y0108393D02*
X0119900Y0108393D01*
X0119900Y0107394D02*
X0024100Y0107394D01*
X0024100Y0106396D02*
X0119900Y0106396D01*
X0126100Y0106396D02*
X0221900Y0106396D01*
X0221900Y0107394D02*
X0126100Y0107394D01*
X0126100Y0108393D02*
X0221900Y0108393D01*
X0221900Y0109391D02*
X0126100Y0109391D01*
X0126100Y0110390D02*
X0221900Y0110390D01*
X0221900Y0111388D02*
X0126100Y0111388D01*
X0126100Y0112387D02*
X0221900Y0112387D01*
X0221900Y0113385D02*
X0126100Y0113385D01*
X0126100Y0114384D02*
X0221900Y0114384D01*
X0221900Y0115382D02*
X0126100Y0115382D01*
X0126100Y0116381D02*
X0221900Y0116381D01*
X0238425Y0117379D02*
X0313575Y0117379D01*
X0311056Y0118378D02*
X0240944Y0118378D01*
X0242134Y0119376D02*
X0309866Y0119376D01*
X0308682Y0120375D02*
X0243318Y0120375D01*
X0243312Y0120365D02*
X0243312Y0120365D01*
X0243312Y0120365D01*
X0243894Y0121373D02*
X0308106Y0121373D01*
X0307529Y0122372D02*
X0244471Y0122372D01*
X0244993Y0123370D02*
X0307007Y0123370D01*
X0307031Y0123235D02*
X0307031Y0123235D01*
X0306831Y0124369D02*
X0245169Y0124369D01*
X0245345Y0125368D02*
X0306655Y0125368D01*
X0306479Y0126366D02*
X0245521Y0126366D01*
X0245545Y0126500D02*
X0245545Y0126500D01*
X0245393Y0127365D02*
X0306607Y0127365D01*
X0306784Y0128363D02*
X0245216Y0128363D01*
X0245040Y0129362D02*
X0306960Y0129362D01*
X0307031Y0129765D02*
X0307031Y0129765D01*
X0307374Y0130360D02*
X0244626Y0130360D01*
X0244969Y0129765D02*
X0244969Y0129765D01*
X0244049Y0131359D02*
X0307951Y0131359D01*
X0308527Y0132357D02*
X0243473Y0132357D01*
X0242454Y0133356D02*
X0309546Y0133356D01*
X0308688Y0132635D02*
X0308688Y0132635D01*
X0308688Y0132635D01*
X0310736Y0134354D02*
X0241264Y0134354D01*
X0243987Y0140600D02*
X0244236Y0141841D01*
X0243129Y0143502D01*
X0244236Y0145162D01*
X0243895Y0146868D01*
X0242447Y0147833D01*
X0240741Y0147492D01*
X0240605Y0147288D01*
X0240468Y0147492D01*
X0238762Y0147833D01*
X0237970Y0147305D01*
X0237571Y0147704D01*
X0236170Y0147704D01*
X0235832Y0147704D01*
X0235832Y0147704D01*
X0234430Y0147704D01*
X0234430Y0147704D01*
X0234416Y0147690D01*
X0233349Y0146622D01*
X0233131Y0146839D01*
X0232267Y0147704D01*
X0230527Y0147704D01*
X0229903Y0147080D01*
X0229297Y0146473D01*
X0229297Y0143500D01*
X0229126Y0143500D01*
X0228100Y0142474D01*
X0228100Y0223383D01*
X0228688Y0222365D01*
X0228688Y0222365D01*
X0231227Y0220234D01*
X0231227Y0220234D01*
X0234343Y0219100D01*
X0237657Y0219100D01*
X0240772Y0220234D01*
X0240773Y0220234D01*
X0243312Y0222365D01*
X0244969Y0225235D01*
X0244969Y0225235D01*
X0245545Y0228500D01*
X0244969Y0231765D01*
X0243312Y0234635D01*
X0243312Y0234635D01*
X0241209Y0236400D01*
X0310791Y0236400D01*
X0308688Y0234635D01*
X0307031Y0231765D01*
X0306455Y0228500D01*
X0306455Y0228500D01*
X0307031Y0225235D01*
X0308688Y0222365D01*
X0308688Y0222365D01*
X0311227Y0220234D01*
X0311227Y0220234D01*
X0314343Y0219100D01*
X0317657Y0219100D01*
X0320772Y0220234D01*
X0320773Y0220234D01*
X0323312Y0222365D01*
X0323900Y0223383D01*
X0323900Y0140600D01*
X0305644Y0140600D01*
X0306400Y0142426D01*
X0306400Y0144574D01*
X0305578Y0146559D01*
X0304059Y0148078D01*
X0302074Y0148900D01*
X0299926Y0148900D01*
X0297941Y0148078D01*
X0296422Y0146559D01*
X0296000Y0145540D01*
X0295578Y0146559D01*
X0294059Y0148078D01*
X0292074Y0148900D01*
X0289926Y0148900D01*
X0288917Y0148482D01*
X0266849Y0170550D01*
X0253405Y0170550D01*
X0252784Y0171170D01*
X0251627Y0171650D01*
X0250373Y0171650D01*
X0249216Y0171170D01*
X0248330Y0170284D01*
X0247850Y0169127D01*
X0247850Y0167873D01*
X0248330Y0166716D01*
X0249216Y0165830D01*
X0250373Y0165350D01*
X0251627Y0165350D01*
X0252784Y0165830D01*
X0253405Y0166450D01*
X0265151Y0166450D01*
X0283144Y0148457D01*
X0282074Y0148900D01*
X0279926Y0148900D01*
X0277941Y0148078D01*
X0276422Y0146559D01*
X0276000Y0145540D01*
X0275578Y0146559D01*
X0274059Y0148078D01*
X0272074Y0148900D01*
X0269926Y0148900D01*
X0267941Y0148078D01*
X0266422Y0146559D01*
X0265891Y0145276D01*
X0265819Y0145496D01*
X0265447Y0146225D01*
X0264966Y0146888D01*
X0264388Y0147466D01*
X0263725Y0147947D01*
X0262996Y0148319D01*
X0262218Y0148572D01*
X0261500Y0148686D01*
X0261500Y0144000D01*
X0260500Y0144000D01*
X0260500Y0148686D01*
X0259782Y0148572D01*
X0259004Y0148319D01*
X0258275Y0147947D01*
X0257612Y0147466D01*
X0257034Y0146888D01*
X0256553Y0146225D01*
X0256181Y0145496D01*
X0255928Y0144718D01*
X0255814Y0144000D01*
X0260500Y0144000D01*
X0260500Y0143000D01*
X0255814Y0143000D01*
X0255928Y0142282D01*
X0256181Y0141504D01*
X0256553Y0140775D01*
X0256679Y0140600D01*
X0243987Y0140600D01*
X0244136Y0141344D02*
X0256263Y0141344D01*
X0255919Y0142342D02*
X0243902Y0142342D01*
X0243236Y0143341D02*
X0260500Y0143341D01*
X0260500Y0144339D02*
X0261500Y0144339D01*
X0261500Y0145338D02*
X0260500Y0145338D01*
X0260500Y0146336D02*
X0261500Y0146336D01*
X0261500Y0147335D02*
X0260500Y0147335D01*
X0260500Y0148333D02*
X0261500Y0148333D01*
X0262952Y0148333D02*
X0268558Y0148333D01*
X0267198Y0147335D02*
X0264519Y0147335D01*
X0265367Y0146336D02*
X0266330Y0146336D01*
X0265916Y0145338D02*
X0265870Y0145338D01*
X0259048Y0148333D02*
X0228100Y0148333D01*
X0228100Y0147335D02*
X0230158Y0147335D01*
X0229297Y0146336D02*
X0228100Y0146336D01*
X0228100Y0145338D02*
X0229297Y0145338D01*
X0229297Y0144339D02*
X0228100Y0144339D01*
X0228100Y0143341D02*
X0228967Y0143341D01*
X0232636Y0147335D02*
X0234062Y0147335D01*
X0236170Y0147704D02*
X0236170Y0147704D01*
X0237940Y0147335D02*
X0238014Y0147335D01*
X0240573Y0147335D02*
X0240636Y0147335D01*
X0243195Y0147335D02*
X0257481Y0147335D01*
X0256633Y0146336D02*
X0244001Y0146336D01*
X0244201Y0145338D02*
X0256130Y0145338D01*
X0255868Y0144339D02*
X0243687Y0144339D01*
X0228100Y0149332D02*
X0282269Y0149332D01*
X0281271Y0150330D02*
X0228100Y0150330D01*
X0228100Y0151329D02*
X0280272Y0151329D01*
X0279274Y0152327D02*
X0228100Y0152327D01*
X0228100Y0153326D02*
X0278275Y0153326D01*
X0277277Y0154324D02*
X0228100Y0154324D01*
X0228100Y0155323D02*
X0276278Y0155323D01*
X0275279Y0156321D02*
X0228100Y0156321D01*
X0228100Y0157320D02*
X0274281Y0157320D01*
X0273282Y0158318D02*
X0228100Y0158318D01*
X0228100Y0159317D02*
X0272284Y0159317D01*
X0271285Y0160315D02*
X0228100Y0160315D01*
X0228100Y0161314D02*
X0270287Y0161314D01*
X0269288Y0162312D02*
X0228100Y0162312D01*
X0228100Y0163311D02*
X0268290Y0163311D01*
X0267291Y0164309D02*
X0228100Y0164309D01*
X0228100Y0165308D02*
X0266293Y0165308D01*
X0265294Y0166306D02*
X0253261Y0166306D01*
X0248739Y0166306D02*
X0228100Y0166306D01*
X0228100Y0167305D02*
X0248085Y0167305D01*
X0247850Y0168303D02*
X0228100Y0168303D01*
X0228100Y0169302D02*
X0247923Y0169302D01*
X0248346Y0170301D02*
X0228100Y0170301D01*
X0228100Y0171299D02*
X0249526Y0171299D01*
X0252474Y0171299D02*
X0323900Y0171299D01*
X0323900Y0170301D02*
X0267099Y0170301D01*
X0268097Y0169302D02*
X0323900Y0169302D01*
X0323900Y0168303D02*
X0269096Y0168303D01*
X0270094Y0167305D02*
X0323900Y0167305D01*
X0323900Y0166306D02*
X0271093Y0166306D01*
X0272091Y0165308D02*
X0323900Y0165308D01*
X0323900Y0164309D02*
X0273090Y0164309D01*
X0274088Y0163311D02*
X0323900Y0163311D01*
X0323900Y0162312D02*
X0314748Y0162312D01*
X0314601Y0162398D02*
X0314219Y0162500D01*
X0312897Y0162500D01*
X0312897Y0158625D01*
X0315522Y0158625D01*
X0315522Y0161197D01*
X0315419Y0161579D01*
X0315222Y0161921D01*
X0314943Y0162200D01*
X0314601Y0162398D01*
X0315490Y0161314D02*
X0323900Y0161314D01*
X0323900Y0160315D02*
X0315522Y0160315D01*
X0315522Y0159317D02*
X0323900Y0159317D01*
X0323900Y0158318D02*
X0315522Y0158318D01*
X0315522Y0158375D02*
X0312897Y0158375D01*
X0312897Y0158625D01*
X0312647Y0158625D01*
X0312647Y0162500D01*
X0311383Y0162500D01*
X0311183Y0162700D01*
X0307274Y0162700D01*
X0306278Y0161704D01*
X0306278Y0160550D01*
X0298405Y0160550D01*
X0297784Y0161170D01*
X0296627Y0161650D01*
X0295373Y0161650D01*
X0294216Y0161170D01*
X0293330Y0160284D01*
X0292850Y0159127D01*
X0292850Y0157873D01*
X0293330Y0156716D01*
X0294216Y0155830D01*
X0295373Y0155350D01*
X0296627Y0155350D01*
X0297784Y0155830D01*
X0298405Y0156450D01*
X0306278Y0156450D01*
X0306278Y0155296D01*
X0307274Y0154300D01*
X0311183Y0154300D01*
X0311383Y0154500D01*
X0312647Y0154500D01*
X0312647Y0158375D01*
X0312897Y0158375D01*
X0312897Y0154500D01*
X0314219Y0154500D01*
X0314601Y0154602D01*
X0314943Y0154800D01*
X0315222Y0155079D01*
X0315419Y0155421D01*
X0315522Y0155803D01*
X0315522Y0158375D01*
X0315522Y0157320D02*
X0323900Y0157320D01*
X0323900Y0156321D02*
X0315522Y0156321D01*
X0315363Y0155323D02*
X0323900Y0155323D01*
X0323900Y0154324D02*
X0311207Y0154324D01*
X0312647Y0155323D02*
X0312897Y0155323D01*
X0312897Y0156321D02*
X0312647Y0156321D01*
X0312647Y0157320D02*
X0312897Y0157320D01*
X0312897Y0158318D02*
X0312647Y0158318D01*
X0312647Y0159317D02*
X0312897Y0159317D01*
X0312897Y0160315D02*
X0312647Y0160315D01*
X0312647Y0161314D02*
X0312897Y0161314D01*
X0312897Y0162312D02*
X0312647Y0162312D01*
X0306887Y0162312D02*
X0275087Y0162312D01*
X0276085Y0161314D02*
X0294562Y0161314D01*
X0293361Y0160315D02*
X0277084Y0160315D01*
X0278082Y0159317D02*
X0292929Y0159317D01*
X0292850Y0158318D02*
X0279081Y0158318D01*
X0280079Y0157320D02*
X0293079Y0157320D01*
X0293724Y0156321D02*
X0281078Y0156321D01*
X0282076Y0155323D02*
X0306278Y0155323D01*
X0306278Y0156321D02*
X0298276Y0156321D01*
X0297438Y0161314D02*
X0306278Y0161314D01*
X0307250Y0154324D02*
X0283075Y0154324D01*
X0284073Y0153326D02*
X0323900Y0153326D01*
X0323900Y0152327D02*
X0285072Y0152327D01*
X0286070Y0151329D02*
X0323900Y0151329D01*
X0323900Y0150330D02*
X0287069Y0150330D01*
X0288067Y0149332D02*
X0323900Y0149332D01*
X0323900Y0148333D02*
X0303442Y0148333D01*
X0304802Y0147335D02*
X0323900Y0147335D01*
X0323900Y0146336D02*
X0305670Y0146336D01*
X0306084Y0145338D02*
X0323900Y0145338D01*
X0323900Y0144339D02*
X0306400Y0144339D01*
X0306400Y0143341D02*
X0323900Y0143341D01*
X0323900Y0142342D02*
X0306365Y0142342D01*
X0305952Y0141344D02*
X0323900Y0141344D01*
X0323894Y0121373D02*
X0323900Y0121373D01*
X0323900Y0120375D02*
X0323318Y0120375D01*
X0323312Y0120365D02*
X0323312Y0120365D01*
X0323312Y0120365D01*
X0323900Y0119376D02*
X0322134Y0119376D01*
X0320944Y0118378D02*
X0323900Y0118378D01*
X0323900Y0117379D02*
X0318425Y0117379D01*
X0296330Y0146336D02*
X0295670Y0146336D01*
X0294802Y0147335D02*
X0297198Y0147335D01*
X0298558Y0148333D02*
X0293442Y0148333D01*
X0278558Y0148333D02*
X0273442Y0148333D01*
X0274802Y0147335D02*
X0277198Y0147335D01*
X0276330Y0146336D02*
X0275670Y0146336D01*
X0266627Y0182850D02*
X0267784Y0183330D01*
X0268670Y0184216D01*
X0269150Y0185373D01*
X0269150Y0186450D01*
X0313595Y0186450D01*
X0314216Y0185830D01*
X0315373Y0185350D01*
X0316627Y0185350D01*
X0317784Y0185830D01*
X0318670Y0186716D01*
X0319150Y0187873D01*
X0319150Y0189127D01*
X0318670Y0190284D01*
X0317784Y0191170D01*
X0316627Y0191650D01*
X0315373Y0191650D01*
X0314216Y0191170D01*
X0313595Y0190550D01*
X0256849Y0190550D01*
X0244150Y0203249D01*
X0244150Y0204127D01*
X0243670Y0205284D01*
X0242784Y0206170D01*
X0241627Y0206650D01*
X0240373Y0206650D01*
X0239216Y0206170D01*
X0238330Y0205284D01*
X0237850Y0204127D01*
X0237850Y0202873D01*
X0238330Y0201716D01*
X0239216Y0200830D01*
X0240373Y0200350D01*
X0241251Y0200350D01*
X0255151Y0186450D01*
X0262850Y0186450D01*
X0262850Y0185373D01*
X0263330Y0184216D01*
X0264216Y0183330D01*
X0265373Y0182850D01*
X0266627Y0182850D01*
X0267667Y0183281D02*
X0323900Y0183281D01*
X0323900Y0182283D02*
X0228100Y0182283D01*
X0228100Y0183281D02*
X0264332Y0183281D01*
X0263303Y0184280D02*
X0228100Y0184280D01*
X0228100Y0185278D02*
X0262889Y0185278D01*
X0262850Y0186277D02*
X0228100Y0186277D01*
X0228100Y0187275D02*
X0254326Y0187275D01*
X0253327Y0188274D02*
X0228100Y0188274D01*
X0228100Y0189272D02*
X0252329Y0189272D01*
X0251330Y0190271D02*
X0228100Y0190271D01*
X0228100Y0191269D02*
X0250332Y0191269D01*
X0249333Y0192268D02*
X0228100Y0192268D01*
X0228100Y0193266D02*
X0248335Y0193266D01*
X0247336Y0194265D02*
X0228100Y0194265D01*
X0228100Y0195263D02*
X0246338Y0195263D01*
X0245339Y0196262D02*
X0228100Y0196262D01*
X0228100Y0197260D02*
X0244341Y0197260D01*
X0243342Y0198259D02*
X0228100Y0198259D01*
X0228100Y0199257D02*
X0242344Y0199257D01*
X0241345Y0200256D02*
X0228100Y0200256D01*
X0228100Y0201254D02*
X0238791Y0201254D01*
X0238107Y0202253D02*
X0228100Y0202253D01*
X0228100Y0203251D02*
X0237850Y0203251D01*
X0237901Y0204250D02*
X0228100Y0204250D01*
X0228100Y0205248D02*
X0238315Y0205248D01*
X0239400Y0206247D02*
X0228100Y0206247D01*
X0228100Y0207245D02*
X0323900Y0207245D01*
X0323900Y0206247D02*
X0242600Y0206247D01*
X0243685Y0205248D02*
X0323900Y0205248D01*
X0323900Y0204250D02*
X0244099Y0204250D01*
X0244150Y0203251D02*
X0323900Y0203251D01*
X0323900Y0202253D02*
X0245146Y0202253D01*
X0246145Y0201254D02*
X0323900Y0201254D01*
X0323900Y0200256D02*
X0247143Y0200256D01*
X0248142Y0199257D02*
X0323900Y0199257D01*
X0323900Y0198259D02*
X0249140Y0198259D01*
X0250139Y0197260D02*
X0323900Y0197260D01*
X0323900Y0196262D02*
X0251137Y0196262D01*
X0252136Y0195263D02*
X0323900Y0195263D01*
X0323900Y0194265D02*
X0253134Y0194265D01*
X0254133Y0193266D02*
X0323900Y0193266D01*
X0323900Y0192268D02*
X0255131Y0192268D01*
X0256130Y0191269D02*
X0314454Y0191269D01*
X0317546Y0191269D02*
X0323900Y0191269D01*
X0323900Y0190271D02*
X0318676Y0190271D01*
X0319090Y0189272D02*
X0323900Y0189272D01*
X0323900Y0188274D02*
X0319150Y0188274D01*
X0318902Y0187275D02*
X0323900Y0187275D01*
X0323900Y0186277D02*
X0318231Y0186277D01*
X0323900Y0185278D02*
X0269111Y0185278D01*
X0269150Y0186277D02*
X0313769Y0186277D01*
X0323900Y0184280D02*
X0268697Y0184280D01*
X0238008Y0219228D02*
X0313992Y0219228D01*
X0311249Y0220226D02*
X0240751Y0220226D01*
X0241953Y0221225D02*
X0310047Y0221225D01*
X0308857Y0222223D02*
X0243143Y0222223D01*
X0243312Y0222365D02*
X0243312Y0222365D01*
X0243312Y0222365D01*
X0243807Y0223222D02*
X0308193Y0223222D01*
X0307617Y0224220D02*
X0244383Y0224220D01*
X0244960Y0225219D02*
X0307040Y0225219D01*
X0307031Y0225235D02*
X0307031Y0225235D01*
X0306858Y0226217D02*
X0245142Y0226217D01*
X0245319Y0227216D02*
X0306681Y0227216D01*
X0306505Y0228214D02*
X0245495Y0228214D01*
X0245545Y0228500D02*
X0245545Y0228500D01*
X0245419Y0229213D02*
X0306581Y0229213D01*
X0306757Y0230211D02*
X0245243Y0230211D01*
X0245067Y0231210D02*
X0306933Y0231210D01*
X0307031Y0231765D02*
X0307031Y0231765D01*
X0307287Y0232208D02*
X0244713Y0232208D01*
X0244969Y0231765D02*
X0244969Y0231765D01*
X0244137Y0233207D02*
X0307863Y0233207D01*
X0308440Y0234205D02*
X0243560Y0234205D01*
X0242635Y0235204D02*
X0309365Y0235204D01*
X0308688Y0234635D02*
X0308688Y0234635D01*
X0308688Y0234635D01*
X0310555Y0236202D02*
X0241445Y0236202D01*
X0243987Y0242600D02*
X0244236Y0243841D01*
X0243129Y0245502D01*
X0244236Y0247162D01*
X0243895Y0248868D01*
X0242447Y0249833D01*
X0240741Y0249492D01*
X0240605Y0249288D01*
X0240468Y0249492D01*
X0238762Y0249833D01*
X0237970Y0249305D01*
X0237571Y0249704D01*
X0236170Y0249704D01*
X0235992Y0249704D01*
X0235832Y0249704D01*
X0235832Y0249704D01*
X0234430Y0249704D01*
X0234430Y0249704D01*
X0234416Y0249690D01*
X0233349Y0248622D01*
X0233131Y0248839D01*
X0232267Y0249704D01*
X0230527Y0249704D01*
X0229903Y0249080D01*
X0229297Y0248473D01*
X0229297Y0245500D01*
X0229126Y0245500D01*
X0228100Y0244474D01*
X0228100Y0325383D01*
X0228688Y0324365D01*
X0228688Y0324365D01*
X0231227Y0322234D01*
X0231227Y0322234D01*
X0234343Y0321100D01*
X0237657Y0321100D01*
X0240773Y0322234D01*
X0243312Y0324365D01*
X0244969Y0327235D01*
X0245545Y0330500D01*
X0244969Y0333765D01*
X0243312Y0336635D01*
X0243312Y0336635D01*
X0241209Y0338400D01*
X0310791Y0338400D01*
X0308688Y0336635D01*
X0307031Y0333765D01*
X0306455Y0330500D01*
X0306455Y0330500D01*
X0307031Y0327235D01*
X0308688Y0324365D01*
X0308688Y0324365D01*
X0311227Y0322234D01*
X0311227Y0322234D01*
X0314343Y0321100D01*
X0317657Y0321100D01*
X0320772Y0322234D01*
X0320773Y0322234D01*
X0323312Y0324365D01*
X0323900Y0325383D01*
X0323900Y0242600D01*
X0305644Y0242600D01*
X0306400Y0244426D01*
X0306400Y0246574D01*
X0305578Y0248559D01*
X0304059Y0250078D01*
X0302074Y0250900D01*
X0299926Y0250900D01*
X0297941Y0250078D01*
X0296422Y0248559D01*
X0296000Y0247540D01*
X0295578Y0248559D01*
X0294059Y0250078D01*
X0292074Y0250900D01*
X0289926Y0250900D01*
X0288917Y0250482D01*
X0266849Y0272550D01*
X0253405Y0272550D01*
X0252784Y0273170D01*
X0251627Y0273650D01*
X0250373Y0273650D01*
X0249216Y0273170D01*
X0248330Y0272284D01*
X0247850Y0271127D01*
X0247850Y0269873D01*
X0248330Y0268716D01*
X0249216Y0267830D01*
X0250373Y0267350D01*
X0251627Y0267350D01*
X0252784Y0267830D01*
X0253405Y0268450D01*
X0265151Y0268450D01*
X0283144Y0250457D01*
X0282074Y0250900D01*
X0279926Y0250900D01*
X0277941Y0250078D01*
X0276422Y0248559D01*
X0276000Y0247540D01*
X0275578Y0248559D01*
X0274059Y0250078D01*
X0272074Y0250900D01*
X0269926Y0250900D01*
X0267941Y0250078D01*
X0266422Y0248559D01*
X0265891Y0247276D01*
X0265819Y0247496D01*
X0265447Y0248225D01*
X0264966Y0248888D01*
X0264388Y0249466D01*
X0263725Y0249947D01*
X0262996Y0250319D01*
X0262218Y0250572D01*
X0261500Y0250686D01*
X0261500Y0246000D01*
X0260500Y0246000D01*
X0260500Y0250686D01*
X0259782Y0250572D01*
X0259004Y0250319D01*
X0258275Y0249947D01*
X0257612Y0249466D01*
X0257034Y0248888D01*
X0256553Y0248225D01*
X0256181Y0247496D01*
X0255928Y0246718D01*
X0255814Y0246000D01*
X0260500Y0246000D01*
X0260500Y0245000D01*
X0255814Y0245000D01*
X0255928Y0244282D01*
X0256181Y0243504D01*
X0256553Y0242775D01*
X0256679Y0242600D01*
X0243987Y0242600D01*
X0244106Y0243192D02*
X0256340Y0243192D01*
X0255958Y0244190D02*
X0244003Y0244190D01*
X0243337Y0245189D02*
X0260500Y0245189D01*
X0260500Y0246187D02*
X0261500Y0246187D01*
X0261500Y0247186D02*
X0260500Y0247186D01*
X0260500Y0248184D02*
X0261500Y0248184D01*
X0261500Y0249183D02*
X0260500Y0249183D01*
X0260500Y0250181D02*
X0261500Y0250181D01*
X0263266Y0250181D02*
X0268191Y0250181D01*
X0267046Y0249183D02*
X0264671Y0249183D01*
X0265468Y0248184D02*
X0266267Y0248184D01*
X0258734Y0250181D02*
X0228100Y0250181D01*
X0228100Y0249183D02*
X0230006Y0249183D01*
X0229297Y0248184D02*
X0228100Y0248184D01*
X0228100Y0247186D02*
X0229297Y0247186D01*
X0229297Y0246187D02*
X0228100Y0246187D01*
X0228100Y0245189D02*
X0228815Y0245189D01*
X0232787Y0249183D02*
X0233910Y0249183D01*
X0236170Y0249704D02*
X0236170Y0249704D01*
X0243423Y0249183D02*
X0257329Y0249183D01*
X0256532Y0248184D02*
X0244031Y0248184D01*
X0244231Y0247186D02*
X0256080Y0247186D01*
X0255844Y0246187D02*
X0243586Y0246187D01*
X0228100Y0251180D02*
X0282421Y0251180D01*
X0281422Y0252178D02*
X0228100Y0252178D01*
X0228100Y0253177D02*
X0280424Y0253177D01*
X0279425Y0254175D02*
X0228100Y0254175D01*
X0228100Y0255174D02*
X0278427Y0255174D01*
X0277428Y0256172D02*
X0228100Y0256172D01*
X0228100Y0257171D02*
X0276430Y0257171D01*
X0275431Y0258170D02*
X0228100Y0258170D01*
X0228100Y0259168D02*
X0274433Y0259168D01*
X0273434Y0260167D02*
X0228100Y0260167D01*
X0228100Y0261165D02*
X0272436Y0261165D01*
X0271437Y0262164D02*
X0228100Y0262164D01*
X0228100Y0263162D02*
X0270439Y0263162D01*
X0269440Y0264161D02*
X0228100Y0264161D01*
X0228100Y0265159D02*
X0268442Y0265159D01*
X0267443Y0266158D02*
X0228100Y0266158D01*
X0228100Y0267156D02*
X0266445Y0267156D01*
X0265446Y0268155D02*
X0253109Y0268155D01*
X0248891Y0268155D02*
X0228100Y0268155D01*
X0228100Y0269153D02*
X0248148Y0269153D01*
X0247850Y0270152D02*
X0228100Y0270152D01*
X0228100Y0271150D02*
X0247860Y0271150D01*
X0248273Y0272149D02*
X0228100Y0272149D01*
X0228100Y0273147D02*
X0249192Y0273147D01*
X0252808Y0273147D02*
X0323900Y0273147D01*
X0323900Y0272149D02*
X0267250Y0272149D01*
X0268249Y0271150D02*
X0323900Y0271150D01*
X0323900Y0270152D02*
X0269247Y0270152D01*
X0270246Y0269153D02*
X0323900Y0269153D01*
X0323900Y0268155D02*
X0271245Y0268155D01*
X0272243Y0267156D02*
X0323900Y0267156D01*
X0323900Y0266158D02*
X0273242Y0266158D01*
X0274240Y0265159D02*
X0323900Y0265159D01*
X0323900Y0264161D02*
X0314982Y0264161D01*
X0314943Y0264200D02*
X0314601Y0264398D01*
X0314219Y0264500D01*
X0312897Y0264500D01*
X0312897Y0260625D01*
X0315522Y0260625D01*
X0315522Y0263197D01*
X0315419Y0263579D01*
X0315222Y0263921D01*
X0314943Y0264200D01*
X0315522Y0263162D02*
X0323900Y0263162D01*
X0323900Y0262164D02*
X0315522Y0262164D01*
X0315522Y0261165D02*
X0323900Y0261165D01*
X0323900Y0260167D02*
X0315522Y0260167D01*
X0315522Y0260375D02*
X0315522Y0257803D01*
X0315419Y0257421D01*
X0315222Y0257079D01*
X0314943Y0256800D01*
X0314601Y0256602D01*
X0314219Y0256500D01*
X0312897Y0256500D01*
X0312897Y0260375D01*
X0312897Y0260625D01*
X0312647Y0260625D01*
X0312647Y0264500D01*
X0311383Y0264500D01*
X0311183Y0264700D01*
X0307274Y0264700D01*
X0306278Y0263704D01*
X0306278Y0262550D01*
X0298405Y0262550D01*
X0297784Y0263170D01*
X0296627Y0263650D01*
X0295373Y0263650D01*
X0294216Y0263170D01*
X0293330Y0262284D01*
X0292850Y0261127D01*
X0292850Y0259873D01*
X0293330Y0258716D01*
X0294216Y0257830D01*
X0295373Y0257350D01*
X0296627Y0257350D01*
X0297784Y0257830D01*
X0298405Y0258450D01*
X0306278Y0258450D01*
X0306278Y0257296D01*
X0307274Y0256300D01*
X0311183Y0256300D01*
X0311383Y0256500D01*
X0312647Y0256500D01*
X0312647Y0260375D01*
X0312897Y0260375D01*
X0315522Y0260375D01*
X0315522Y0259168D02*
X0323900Y0259168D01*
X0323900Y0258170D02*
X0315522Y0258170D01*
X0315275Y0257171D02*
X0323900Y0257171D01*
X0323900Y0256172D02*
X0283227Y0256172D01*
X0284225Y0255174D02*
X0323900Y0255174D01*
X0323900Y0254175D02*
X0285224Y0254175D01*
X0286222Y0253177D02*
X0323900Y0253177D01*
X0323900Y0252178D02*
X0287221Y0252178D01*
X0288219Y0251180D02*
X0323900Y0251180D01*
X0323900Y0250181D02*
X0303809Y0250181D01*
X0304954Y0249183D02*
X0323900Y0249183D01*
X0323900Y0248184D02*
X0305733Y0248184D01*
X0306147Y0247186D02*
X0323900Y0247186D01*
X0323900Y0246187D02*
X0306400Y0246187D01*
X0306400Y0245189D02*
X0323900Y0245189D01*
X0323900Y0244190D02*
X0306302Y0244190D01*
X0305889Y0243192D02*
X0323900Y0243192D01*
X0312897Y0257171D02*
X0312647Y0257171D01*
X0312647Y0258170D02*
X0312897Y0258170D01*
X0312897Y0259168D02*
X0312647Y0259168D01*
X0312647Y0260167D02*
X0312897Y0260167D01*
X0312897Y0261165D02*
X0312647Y0261165D01*
X0312647Y0262164D02*
X0312897Y0262164D01*
X0312897Y0263162D02*
X0312647Y0263162D01*
X0312647Y0264161D02*
X0312897Y0264161D01*
X0306735Y0264161D02*
X0275239Y0264161D01*
X0276237Y0263162D02*
X0294207Y0263162D01*
X0293280Y0262164D02*
X0277236Y0262164D01*
X0278234Y0261165D02*
X0292866Y0261165D01*
X0292850Y0260167D02*
X0279233Y0260167D01*
X0280231Y0259168D02*
X0293142Y0259168D01*
X0293876Y0258170D02*
X0281230Y0258170D01*
X0282228Y0257171D02*
X0306403Y0257171D01*
X0306278Y0258170D02*
X0298124Y0258170D01*
X0297793Y0263162D02*
X0306278Y0263162D01*
X0298191Y0250181D02*
X0293809Y0250181D01*
X0294954Y0249183D02*
X0297046Y0249183D01*
X0296267Y0248184D02*
X0295733Y0248184D01*
X0278191Y0250181D02*
X0273809Y0250181D01*
X0274954Y0249183D02*
X0277046Y0249183D01*
X0276267Y0248184D02*
X0275733Y0248184D01*
X0266627Y0284850D02*
X0267784Y0285330D01*
X0268670Y0286216D01*
X0269150Y0287373D01*
X0269150Y0288450D01*
X0313595Y0288450D01*
X0314216Y0287830D01*
X0315373Y0287350D01*
X0316627Y0287350D01*
X0317784Y0287830D01*
X0318670Y0288716D01*
X0319150Y0289873D01*
X0319150Y0291127D01*
X0318670Y0292284D01*
X0317784Y0293170D01*
X0316627Y0293650D01*
X0315373Y0293650D01*
X0314216Y0293170D01*
X0313595Y0292550D01*
X0256849Y0292550D01*
X0244150Y0305249D01*
X0244150Y0306127D01*
X0243670Y0307284D01*
X0242784Y0308170D01*
X0241627Y0308650D01*
X0240373Y0308650D01*
X0239216Y0308170D01*
X0238330Y0307284D01*
X0237850Y0306127D01*
X0237850Y0304873D01*
X0238330Y0303716D01*
X0239216Y0302830D01*
X0240373Y0302350D01*
X0241251Y0302350D01*
X0255151Y0288450D01*
X0262850Y0288450D01*
X0262850Y0287373D01*
X0263330Y0286216D01*
X0264216Y0285330D01*
X0265373Y0284850D01*
X0266627Y0284850D01*
X0267301Y0285129D02*
X0323900Y0285129D01*
X0323900Y0284131D02*
X0228100Y0284131D01*
X0228100Y0285129D02*
X0264699Y0285129D01*
X0263417Y0286128D02*
X0228100Y0286128D01*
X0228100Y0287126D02*
X0262952Y0287126D01*
X0262850Y0288125D02*
X0228100Y0288125D01*
X0228100Y0289123D02*
X0254477Y0289123D01*
X0253479Y0290122D02*
X0228100Y0290122D01*
X0228100Y0291120D02*
X0252480Y0291120D01*
X0251482Y0292119D02*
X0228100Y0292119D01*
X0228100Y0293117D02*
X0250483Y0293117D01*
X0249485Y0294116D02*
X0228100Y0294116D01*
X0228100Y0295114D02*
X0248486Y0295114D01*
X0247488Y0296113D02*
X0228100Y0296113D01*
X0228100Y0297111D02*
X0246489Y0297111D01*
X0245491Y0298110D02*
X0228100Y0298110D01*
X0228100Y0299108D02*
X0244492Y0299108D01*
X0243494Y0300107D02*
X0228100Y0300107D01*
X0228100Y0301105D02*
X0242495Y0301105D01*
X0241497Y0302104D02*
X0228100Y0302104D01*
X0228100Y0303103D02*
X0238943Y0303103D01*
X0238170Y0304101D02*
X0228100Y0304101D01*
X0228100Y0305100D02*
X0237850Y0305100D01*
X0237850Y0306098D02*
X0228100Y0306098D01*
X0228100Y0307097D02*
X0238252Y0307097D01*
X0239140Y0308095D02*
X0228100Y0308095D01*
X0228100Y0309094D02*
X0323900Y0309094D01*
X0323900Y0310092D02*
X0228100Y0310092D01*
X0228100Y0311091D02*
X0323900Y0311091D01*
X0323900Y0312089D02*
X0228100Y0312089D01*
X0228100Y0313088D02*
X0323900Y0313088D01*
X0323900Y0314086D02*
X0228100Y0314086D01*
X0228100Y0315085D02*
X0323900Y0315085D01*
X0323900Y0316083D02*
X0228100Y0316083D01*
X0228100Y0317082D02*
X0323900Y0317082D01*
X0323900Y0318080D02*
X0228100Y0318080D01*
X0228100Y0319079D02*
X0323900Y0319079D01*
X0323900Y0320077D02*
X0228100Y0320077D01*
X0228100Y0321076D02*
X0323900Y0321076D01*
X0323900Y0322074D02*
X0320334Y0322074D01*
X0321772Y0323073D02*
X0323900Y0323073D01*
X0323900Y0324071D02*
X0322962Y0324071D01*
X0323312Y0324365D02*
X0323312Y0324365D01*
X0323312Y0324365D01*
X0323719Y0325070D02*
X0323900Y0325070D01*
X0311666Y0322074D02*
X0240334Y0322074D01*
X0240773Y0322234D02*
X0240773Y0322234D01*
X0241772Y0323073D02*
X0310228Y0323073D01*
X0309038Y0324071D02*
X0242962Y0324071D01*
X0243312Y0324365D02*
X0243312Y0324365D01*
X0243719Y0325070D02*
X0308281Y0325070D01*
X0307704Y0326068D02*
X0244296Y0326068D01*
X0244872Y0327067D02*
X0307128Y0327067D01*
X0307031Y0327235D02*
X0307031Y0327235D01*
X0306884Y0328065D02*
X0245116Y0328065D01*
X0245292Y0329064D02*
X0306708Y0329064D01*
X0306532Y0330062D02*
X0245468Y0330062D01*
X0245545Y0330500D02*
X0245545Y0330500D01*
X0245446Y0331061D02*
X0306554Y0331061D01*
X0306730Y0332059D02*
X0245270Y0332059D01*
X0245094Y0333058D02*
X0306906Y0333058D01*
X0307031Y0333765D02*
X0307031Y0333765D01*
X0307199Y0334056D02*
X0244801Y0334056D01*
X0244969Y0333765D02*
X0244969Y0333765D01*
X0244224Y0335055D02*
X0307776Y0335055D01*
X0308352Y0336053D02*
X0243648Y0336053D01*
X0242816Y0337052D02*
X0309184Y0337052D01*
X0308688Y0336635D02*
X0308688Y0336635D01*
X0310374Y0338050D02*
X0241626Y0338050D01*
X0228281Y0325070D02*
X0228100Y0325070D01*
X0228100Y0324071D02*
X0229038Y0324071D01*
X0228100Y0323073D02*
X0230228Y0323073D01*
X0231666Y0322074D02*
X0228100Y0322074D01*
X0221900Y0322074D02*
X0218334Y0322074D01*
X0218772Y0322234D02*
X0218773Y0322234D01*
X0221312Y0324365D01*
X0221900Y0325383D01*
X0221900Y0242600D01*
X0203644Y0242600D01*
X0204400Y0244426D01*
X0204400Y0246574D01*
X0203578Y0248559D01*
X0202059Y0250078D01*
X0200074Y0250900D01*
X0197926Y0250900D01*
X0195941Y0250078D01*
X0194422Y0248559D01*
X0194000Y0247540D01*
X0193578Y0248559D01*
X0192059Y0250078D01*
X0190074Y0250900D01*
X0187926Y0250900D01*
X0186917Y0250482D01*
X0164849Y0272550D01*
X0151405Y0272550D01*
X0150784Y0273170D01*
X0149627Y0273650D01*
X0148373Y0273650D01*
X0147216Y0273170D01*
X0146330Y0272284D01*
X0145850Y0271127D01*
X0145850Y0269873D01*
X0146330Y0268716D01*
X0147216Y0267830D01*
X0148373Y0267350D01*
X0149627Y0267350D01*
X0150784Y0267830D01*
X0151405Y0268450D01*
X0163151Y0268450D01*
X0181144Y0250457D01*
X0180074Y0250900D01*
X0177926Y0250900D01*
X0175941Y0250078D01*
X0174422Y0248559D01*
X0174000Y0247540D01*
X0173578Y0248559D01*
X0172059Y0250078D01*
X0170074Y0250900D01*
X0167926Y0250900D01*
X0165941Y0250078D01*
X0164422Y0248559D01*
X0163891Y0247276D01*
X0163819Y0247496D01*
X0163447Y0248225D01*
X0162966Y0248888D01*
X0162388Y0249466D01*
X0161725Y0249947D01*
X0160996Y0250319D01*
X0160218Y0250572D01*
X0159500Y0250686D01*
X0159500Y0246000D01*
X0158500Y0246000D01*
X0158500Y0250686D01*
X0157782Y0250572D01*
X0157004Y0250319D01*
X0156275Y0249947D01*
X0155612Y0249466D01*
X0155034Y0248888D01*
X0154553Y0248225D01*
X0154181Y0247496D01*
X0153928Y0246718D01*
X0153814Y0246000D01*
X0158500Y0246000D01*
X0158500Y0245000D01*
X0153814Y0245000D01*
X0153928Y0244282D01*
X0154181Y0243504D01*
X0154553Y0242775D01*
X0154679Y0242600D01*
X0141987Y0242600D01*
X0142236Y0243841D01*
X0141129Y0245502D01*
X0142236Y0247162D01*
X0141895Y0248868D01*
X0140447Y0249833D01*
X0138741Y0249492D01*
X0138605Y0249288D01*
X0138468Y0249492D01*
X0136762Y0249833D01*
X0135970Y0249305D01*
X0135571Y0249704D01*
X0134170Y0249704D01*
X0133832Y0249704D01*
X0133832Y0249704D01*
X0132430Y0249704D01*
X0132430Y0249704D01*
X0132416Y0249690D01*
X0131349Y0248622D01*
X0131131Y0248839D01*
X0130267Y0249704D01*
X0128527Y0249704D01*
X0127903Y0249080D01*
X0127297Y0248473D01*
X0127297Y0245500D01*
X0127126Y0245500D01*
X0126100Y0244474D01*
X0126100Y0325383D01*
X0126688Y0324365D01*
X0126688Y0324365D01*
X0129227Y0322234D01*
X0129227Y0322234D01*
X0132343Y0321100D01*
X0135657Y0321100D01*
X0138772Y0322234D01*
X0138773Y0322234D01*
X0141312Y0324365D01*
X0142969Y0327235D01*
X0142969Y0327235D01*
X0143545Y0330500D01*
X0142969Y0333765D01*
X0141312Y0336635D01*
X0141312Y0336635D01*
X0139209Y0338400D01*
X0208791Y0338400D01*
X0206688Y0336635D01*
X0205031Y0333765D01*
X0204455Y0330500D01*
X0204455Y0330500D01*
X0205031Y0327235D01*
X0206688Y0324365D01*
X0206688Y0324365D01*
X0209227Y0322234D01*
X0209227Y0322234D01*
X0212343Y0321100D01*
X0215657Y0321100D01*
X0218772Y0322234D01*
X0219772Y0323073D02*
X0221900Y0323073D01*
X0221900Y0324071D02*
X0220962Y0324071D01*
X0221312Y0324365D02*
X0221312Y0324365D01*
X0221312Y0324365D01*
X0221719Y0325070D02*
X0221900Y0325070D01*
X0221900Y0321076D02*
X0126100Y0321076D01*
X0126100Y0322074D02*
X0129666Y0322074D01*
X0128228Y0323073D02*
X0126100Y0323073D01*
X0126100Y0324071D02*
X0127038Y0324071D01*
X0126281Y0325070D02*
X0126100Y0325070D01*
X0126100Y0320077D02*
X0221900Y0320077D01*
X0221900Y0319079D02*
X0126100Y0319079D01*
X0126100Y0318080D02*
X0221900Y0318080D01*
X0221900Y0317082D02*
X0126100Y0317082D01*
X0126100Y0316083D02*
X0221900Y0316083D01*
X0221900Y0315085D02*
X0126100Y0315085D01*
X0126100Y0314086D02*
X0221900Y0314086D01*
X0221900Y0313088D02*
X0126100Y0313088D01*
X0126100Y0312089D02*
X0221900Y0312089D01*
X0221900Y0311091D02*
X0126100Y0311091D01*
X0126100Y0310092D02*
X0221900Y0310092D01*
X0221900Y0309094D02*
X0126100Y0309094D01*
X0126100Y0308095D02*
X0137140Y0308095D01*
X0137216Y0308170D02*
X0136330Y0307284D01*
X0135850Y0306127D01*
X0135850Y0304873D01*
X0136330Y0303716D01*
X0137216Y0302830D01*
X0138373Y0302350D01*
X0139251Y0302350D01*
X0153151Y0288450D01*
X0160850Y0288450D01*
X0160850Y0287373D01*
X0161330Y0286216D01*
X0162216Y0285330D01*
X0163373Y0284850D01*
X0164627Y0284850D01*
X0165784Y0285330D01*
X0166670Y0286216D01*
X0167150Y0287373D01*
X0167150Y0288450D01*
X0211595Y0288450D01*
X0212216Y0287830D01*
X0213373Y0287350D01*
X0214627Y0287350D01*
X0215784Y0287830D01*
X0216670Y0288716D01*
X0217150Y0289873D01*
X0217150Y0291127D01*
X0216670Y0292284D01*
X0215784Y0293170D01*
X0214627Y0293650D01*
X0213373Y0293650D01*
X0212216Y0293170D01*
X0211595Y0292550D01*
X0154849Y0292550D01*
X0142150Y0305249D01*
X0142150Y0306127D01*
X0141670Y0307284D01*
X0140784Y0308170D01*
X0139627Y0308650D01*
X0138373Y0308650D01*
X0137216Y0308170D01*
X0136252Y0307097D02*
X0126100Y0307097D01*
X0126100Y0306098D02*
X0135850Y0306098D01*
X0135850Y0305100D02*
X0126100Y0305100D01*
X0126100Y0304101D02*
X0136170Y0304101D01*
X0136943Y0303103D02*
X0126100Y0303103D01*
X0126100Y0302104D02*
X0139497Y0302104D01*
X0140495Y0301105D02*
X0126100Y0301105D01*
X0126100Y0300107D02*
X0141494Y0300107D01*
X0142492Y0299108D02*
X0126100Y0299108D01*
X0126100Y0298110D02*
X0143491Y0298110D01*
X0144489Y0297111D02*
X0126100Y0297111D01*
X0126100Y0296113D02*
X0145488Y0296113D01*
X0146486Y0295114D02*
X0126100Y0295114D01*
X0126100Y0294116D02*
X0147485Y0294116D01*
X0148483Y0293117D02*
X0126100Y0293117D01*
X0126100Y0292119D02*
X0149482Y0292119D01*
X0150480Y0291120D02*
X0126100Y0291120D01*
X0126100Y0290122D02*
X0151479Y0290122D01*
X0152477Y0289123D02*
X0126100Y0289123D01*
X0126100Y0288125D02*
X0160850Y0288125D01*
X0160952Y0287126D02*
X0126100Y0287126D01*
X0126100Y0286128D02*
X0161417Y0286128D01*
X0162699Y0285129D02*
X0126100Y0285129D01*
X0126100Y0284131D02*
X0221900Y0284131D01*
X0221900Y0285129D02*
X0165301Y0285129D01*
X0166583Y0286128D02*
X0221900Y0286128D01*
X0221900Y0287126D02*
X0167048Y0287126D01*
X0167150Y0288125D02*
X0211920Y0288125D01*
X0216080Y0288125D02*
X0221900Y0288125D01*
X0221900Y0289123D02*
X0216839Y0289123D01*
X0217150Y0290122D02*
X0221900Y0290122D01*
X0221900Y0291120D02*
X0217150Y0291120D01*
X0216739Y0292119D02*
X0221900Y0292119D01*
X0221900Y0293117D02*
X0215837Y0293117D01*
X0212163Y0293117D02*
X0154282Y0293117D01*
X0153283Y0294116D02*
X0221900Y0294116D01*
X0221900Y0295114D02*
X0152285Y0295114D01*
X0151286Y0296113D02*
X0221900Y0296113D01*
X0221900Y0297111D02*
X0150288Y0297111D01*
X0149289Y0298110D02*
X0221900Y0298110D01*
X0221900Y0299108D02*
X0148291Y0299108D01*
X0147292Y0300107D02*
X0221900Y0300107D01*
X0221900Y0301105D02*
X0146294Y0301105D01*
X0145295Y0302104D02*
X0221900Y0302104D01*
X0221900Y0303103D02*
X0144297Y0303103D01*
X0143298Y0304101D02*
X0221900Y0304101D01*
X0221900Y0305100D02*
X0142300Y0305100D01*
X0142150Y0306098D02*
X0221900Y0306098D01*
X0221900Y0307097D02*
X0141748Y0307097D01*
X0140860Y0308095D02*
X0221900Y0308095D01*
X0209666Y0322074D02*
X0138334Y0322074D01*
X0139772Y0323073D02*
X0208228Y0323073D01*
X0207038Y0324071D02*
X0140962Y0324071D01*
X0141312Y0324365D02*
X0141312Y0324365D01*
X0141312Y0324365D01*
X0141719Y0325070D02*
X0206281Y0325070D01*
X0205704Y0326068D02*
X0142296Y0326068D01*
X0142872Y0327067D02*
X0205128Y0327067D01*
X0205031Y0327235D02*
X0205031Y0327235D01*
X0204884Y0328065D02*
X0143116Y0328065D01*
X0143292Y0329064D02*
X0204708Y0329064D01*
X0204532Y0330062D02*
X0143468Y0330062D01*
X0143545Y0330500D02*
X0143545Y0330500D01*
X0143446Y0331061D02*
X0204554Y0331061D01*
X0204730Y0332059D02*
X0143270Y0332059D01*
X0143094Y0333058D02*
X0204906Y0333058D01*
X0205031Y0333765D02*
X0205031Y0333765D01*
X0205199Y0334056D02*
X0142801Y0334056D01*
X0142969Y0333765D02*
X0142969Y0333765D01*
X0142224Y0335055D02*
X0205776Y0335055D01*
X0206352Y0336053D02*
X0141648Y0336053D01*
X0140816Y0337052D02*
X0207184Y0337052D01*
X0206688Y0336635D02*
X0206688Y0336635D01*
X0206688Y0336635D01*
X0208374Y0338050D02*
X0139626Y0338050D01*
X0119900Y0325383D02*
X0119900Y0242600D01*
X0101644Y0242600D01*
X0102400Y0244426D01*
X0102400Y0246574D01*
X0101578Y0248559D01*
X0100059Y0250078D01*
X0098074Y0250900D01*
X0095926Y0250900D01*
X0093941Y0250078D01*
X0092422Y0248559D01*
X0092000Y0247540D01*
X0091578Y0248559D01*
X0090059Y0250078D01*
X0088074Y0250900D01*
X0085926Y0250900D01*
X0084917Y0250482D01*
X0062849Y0272550D01*
X0049405Y0272550D01*
X0048784Y0273170D01*
X0047627Y0273650D01*
X0046373Y0273650D01*
X0045216Y0273170D01*
X0044330Y0272284D01*
X0043850Y0271127D01*
X0043850Y0269873D01*
X0044330Y0268716D01*
X0045216Y0267830D01*
X0046373Y0267350D01*
X0047627Y0267350D01*
X0048784Y0267830D01*
X0049405Y0268450D01*
X0061151Y0268450D01*
X0079144Y0250457D01*
X0078074Y0250900D01*
X0075926Y0250900D01*
X0073941Y0250078D01*
X0072422Y0248559D01*
X0072000Y0247540D01*
X0071578Y0248559D01*
X0070059Y0250078D01*
X0068074Y0250900D01*
X0065926Y0250900D01*
X0063941Y0250078D01*
X0062422Y0248559D01*
X0061891Y0247276D01*
X0061819Y0247496D01*
X0061447Y0248225D01*
X0060966Y0248888D01*
X0060388Y0249466D01*
X0059725Y0249947D01*
X0058996Y0250319D01*
X0058218Y0250572D01*
X0057500Y0250686D01*
X0057500Y0246000D01*
X0056500Y0246000D01*
X0056500Y0250686D01*
X0055782Y0250572D01*
X0055004Y0250319D01*
X0054275Y0249947D01*
X0053612Y0249466D01*
X0053034Y0248888D01*
X0052553Y0248225D01*
X0052181Y0247496D01*
X0051928Y0246718D01*
X0051814Y0246000D01*
X0056500Y0246000D01*
X0056500Y0245000D01*
X0051814Y0245000D01*
X0051928Y0244282D01*
X0052181Y0243504D01*
X0052553Y0242775D01*
X0052679Y0242600D01*
X0039987Y0242600D01*
X0040236Y0243841D01*
X0039129Y0245502D01*
X0040236Y0247162D01*
X0039895Y0248868D01*
X0038447Y0249833D01*
X0036741Y0249492D01*
X0036605Y0249288D01*
X0036468Y0249492D01*
X0034762Y0249833D01*
X0033970Y0249305D01*
X0033571Y0249704D01*
X0032170Y0249704D01*
X0031992Y0249704D01*
X0031832Y0249704D01*
X0031832Y0249704D01*
X0030430Y0249704D01*
X0030430Y0249704D01*
X0030416Y0249690D01*
X0029349Y0248622D01*
X0029131Y0248839D01*
X0028267Y0249704D01*
X0026527Y0249704D01*
X0025903Y0249080D01*
X0025297Y0248473D01*
X0025297Y0245500D01*
X0025126Y0245500D01*
X0024100Y0244474D01*
X0024100Y0325383D01*
X0024688Y0324365D01*
X0024688Y0324365D01*
X0027227Y0322234D01*
X0027227Y0322234D01*
X0030343Y0321100D01*
X0033657Y0321100D01*
X0036772Y0322234D01*
X0036773Y0322234D01*
X0039312Y0324365D01*
X0040969Y0327235D01*
X0040969Y0327235D01*
X0041545Y0330500D01*
X0040969Y0333765D01*
X0039312Y0336635D01*
X0039312Y0336635D01*
X0037209Y0338400D01*
X0106791Y0338400D01*
X0104688Y0336635D01*
X0103031Y0333765D01*
X0102455Y0330500D01*
X0102455Y0330500D01*
X0103031Y0327235D01*
X0104688Y0324365D01*
X0107227Y0322234D01*
X0107227Y0322234D01*
X0110343Y0321100D01*
X0113657Y0321100D01*
X0116772Y0322234D01*
X0116773Y0322234D01*
X0119312Y0324365D01*
X0119900Y0325383D01*
X0119900Y0325070D02*
X0119719Y0325070D01*
X0119312Y0324365D02*
X0119312Y0324365D01*
X0119312Y0324365D01*
X0118962Y0324071D02*
X0119900Y0324071D01*
X0119900Y0323073D02*
X0117772Y0323073D01*
X0116334Y0322074D02*
X0119900Y0322074D01*
X0119900Y0321076D02*
X0024100Y0321076D01*
X0024100Y0322074D02*
X0027666Y0322074D01*
X0026228Y0323073D02*
X0024100Y0323073D01*
X0024100Y0324071D02*
X0025038Y0324071D01*
X0024281Y0325070D02*
X0024100Y0325070D01*
X0024100Y0320077D02*
X0119900Y0320077D01*
X0119900Y0319079D02*
X0024100Y0319079D01*
X0024100Y0318080D02*
X0119900Y0318080D01*
X0119900Y0317082D02*
X0024100Y0317082D01*
X0024100Y0316083D02*
X0119900Y0316083D01*
X0119900Y0315085D02*
X0024100Y0315085D01*
X0024100Y0314086D02*
X0119900Y0314086D01*
X0119900Y0313088D02*
X0024100Y0313088D01*
X0024100Y0312089D02*
X0119900Y0312089D01*
X0119900Y0311091D02*
X0024100Y0311091D01*
X0024100Y0310092D02*
X0119900Y0310092D01*
X0119900Y0309094D02*
X0024100Y0309094D01*
X0024100Y0308095D02*
X0035140Y0308095D01*
X0035216Y0308170D02*
X0034330Y0307284D01*
X0033850Y0306127D01*
X0033850Y0304873D01*
X0034330Y0303716D01*
X0035216Y0302830D01*
X0036373Y0302350D01*
X0037251Y0302350D01*
X0051151Y0288450D01*
X0058850Y0288450D01*
X0058850Y0287373D01*
X0059330Y0286216D01*
X0060216Y0285330D01*
X0061373Y0284850D01*
X0062627Y0284850D01*
X0063784Y0285330D01*
X0064670Y0286216D01*
X0065150Y0287373D01*
X0065150Y0288450D01*
X0109595Y0288450D01*
X0110216Y0287830D01*
X0111373Y0287350D01*
X0112627Y0287350D01*
X0113784Y0287830D01*
X0114670Y0288716D01*
X0115150Y0289873D01*
X0115150Y0291127D01*
X0114670Y0292284D01*
X0113784Y0293170D01*
X0112627Y0293650D01*
X0111373Y0293650D01*
X0110216Y0293170D01*
X0109595Y0292550D01*
X0052849Y0292550D01*
X0040150Y0305249D01*
X0040150Y0306127D01*
X0039670Y0307284D01*
X0038784Y0308170D01*
X0037627Y0308650D01*
X0036373Y0308650D01*
X0035216Y0308170D01*
X0034252Y0307097D02*
X0024100Y0307097D01*
X0024100Y0306098D02*
X0033850Y0306098D01*
X0033850Y0305100D02*
X0024100Y0305100D01*
X0024100Y0304101D02*
X0034170Y0304101D01*
X0034943Y0303103D02*
X0024100Y0303103D01*
X0024100Y0302104D02*
X0037497Y0302104D01*
X0038495Y0301105D02*
X0024100Y0301105D01*
X0024100Y0300107D02*
X0039494Y0300107D01*
X0040492Y0299108D02*
X0024100Y0299108D01*
X0024100Y0298110D02*
X0041491Y0298110D01*
X0042489Y0297111D02*
X0024100Y0297111D01*
X0024100Y0296113D02*
X0043488Y0296113D01*
X0044486Y0295114D02*
X0024100Y0295114D01*
X0024100Y0294116D02*
X0045485Y0294116D01*
X0046483Y0293117D02*
X0024100Y0293117D01*
X0024100Y0292119D02*
X0047482Y0292119D01*
X0048480Y0291120D02*
X0024100Y0291120D01*
X0024100Y0290122D02*
X0049479Y0290122D01*
X0050477Y0289123D02*
X0024100Y0289123D01*
X0024100Y0288125D02*
X0058850Y0288125D01*
X0058952Y0287126D02*
X0024100Y0287126D01*
X0024100Y0286128D02*
X0059417Y0286128D01*
X0060699Y0285129D02*
X0024100Y0285129D01*
X0024100Y0284131D02*
X0119900Y0284131D01*
X0119900Y0285129D02*
X0063301Y0285129D01*
X0064583Y0286128D02*
X0119900Y0286128D01*
X0119900Y0287126D02*
X0065048Y0287126D01*
X0065150Y0288125D02*
X0109920Y0288125D01*
X0114080Y0288125D02*
X0119900Y0288125D01*
X0119900Y0289123D02*
X0114839Y0289123D01*
X0115150Y0290122D02*
X0119900Y0290122D01*
X0119900Y0291120D02*
X0115150Y0291120D01*
X0114739Y0292119D02*
X0119900Y0292119D01*
X0119900Y0293117D02*
X0113837Y0293117D01*
X0110163Y0293117D02*
X0052282Y0293117D01*
X0051283Y0294116D02*
X0119900Y0294116D01*
X0119900Y0295114D02*
X0050285Y0295114D01*
X0049286Y0296113D02*
X0119900Y0296113D01*
X0119900Y0297111D02*
X0048288Y0297111D01*
X0047289Y0298110D02*
X0119900Y0298110D01*
X0119900Y0299108D02*
X0046291Y0299108D01*
X0045292Y0300107D02*
X0119900Y0300107D01*
X0119900Y0301105D02*
X0044294Y0301105D01*
X0043295Y0302104D02*
X0119900Y0302104D01*
X0119900Y0303103D02*
X0042297Y0303103D01*
X0041298Y0304101D02*
X0119900Y0304101D01*
X0119900Y0305100D02*
X0040300Y0305100D01*
X0040150Y0306098D02*
X0119900Y0306098D01*
X0119900Y0307097D02*
X0039748Y0307097D01*
X0038860Y0308095D02*
X0119900Y0308095D01*
X0107666Y0322074D02*
X0036334Y0322074D01*
X0037772Y0323073D02*
X0106228Y0323073D01*
X0105038Y0324071D02*
X0038962Y0324071D01*
X0039312Y0324365D02*
X0039312Y0324365D01*
X0039312Y0324365D01*
X0039719Y0325070D02*
X0104281Y0325070D01*
X0104688Y0324365D02*
X0104688Y0324365D01*
X0103704Y0326068D02*
X0040296Y0326068D01*
X0040872Y0327067D02*
X0103128Y0327067D01*
X0103031Y0327235D02*
X0103031Y0327235D01*
X0102884Y0328065D02*
X0041116Y0328065D01*
X0041292Y0329064D02*
X0102708Y0329064D01*
X0102532Y0330062D02*
X0041468Y0330062D01*
X0041545Y0330500D02*
X0041545Y0330500D01*
X0041446Y0331061D02*
X0102554Y0331061D01*
X0102730Y0332059D02*
X0041270Y0332059D01*
X0041094Y0333058D02*
X0102906Y0333058D01*
X0103031Y0333765D02*
X0103031Y0333765D01*
X0103199Y0334056D02*
X0040801Y0334056D01*
X0040969Y0333765D02*
X0040969Y0333765D01*
X0040224Y0335055D02*
X0103776Y0335055D01*
X0104352Y0336053D02*
X0039648Y0336053D01*
X0038816Y0337052D02*
X0105184Y0337052D01*
X0104688Y0336635D02*
X0104688Y0336635D01*
X0104688Y0336635D01*
X0106374Y0338050D02*
X0037626Y0338050D01*
X0024100Y0283132D02*
X0119900Y0283132D01*
X0119900Y0282134D02*
X0024100Y0282134D01*
X0024100Y0281135D02*
X0119900Y0281135D01*
X0119900Y0280137D02*
X0024100Y0280137D01*
X0024100Y0279138D02*
X0119900Y0279138D01*
X0119900Y0278140D02*
X0024100Y0278140D01*
X0024100Y0277141D02*
X0119900Y0277141D01*
X0119900Y0276143D02*
X0024100Y0276143D01*
X0024100Y0275144D02*
X0119900Y0275144D01*
X0119900Y0274146D02*
X0024100Y0274146D01*
X0024100Y0273147D02*
X0045192Y0273147D01*
X0044273Y0272149D02*
X0024100Y0272149D01*
X0024100Y0271150D02*
X0043860Y0271150D01*
X0043850Y0270152D02*
X0024100Y0270152D01*
X0024100Y0269153D02*
X0044148Y0269153D01*
X0044891Y0268155D02*
X0024100Y0268155D01*
X0024100Y0267156D02*
X0062445Y0267156D01*
X0063443Y0266158D02*
X0024100Y0266158D01*
X0024100Y0265159D02*
X0064442Y0265159D01*
X0065440Y0264161D02*
X0024100Y0264161D01*
X0024100Y0263162D02*
X0066439Y0263162D01*
X0067437Y0262164D02*
X0024100Y0262164D01*
X0024100Y0261165D02*
X0068436Y0261165D01*
X0069434Y0260167D02*
X0024100Y0260167D01*
X0024100Y0259168D02*
X0070433Y0259168D01*
X0071431Y0258170D02*
X0024100Y0258170D01*
X0024100Y0257171D02*
X0072430Y0257171D01*
X0073428Y0256172D02*
X0024100Y0256172D01*
X0024100Y0255174D02*
X0074427Y0255174D01*
X0075425Y0254175D02*
X0024100Y0254175D01*
X0024100Y0253177D02*
X0076424Y0253177D01*
X0077422Y0252178D02*
X0024100Y0252178D01*
X0024100Y0251180D02*
X0078421Y0251180D01*
X0081224Y0254175D02*
X0119900Y0254175D01*
X0119900Y0253177D02*
X0082222Y0253177D01*
X0083221Y0252178D02*
X0119900Y0252178D01*
X0119900Y0251180D02*
X0084219Y0251180D01*
X0080225Y0255174D02*
X0119900Y0255174D01*
X0119900Y0256172D02*
X0079227Y0256172D01*
X0078228Y0257171D02*
X0102403Y0257171D01*
X0102278Y0257296D02*
X0103274Y0256300D01*
X0107183Y0256300D01*
X0107383Y0256500D01*
X0108647Y0256500D01*
X0108647Y0260375D01*
X0108897Y0260375D01*
X0108897Y0260625D01*
X0111522Y0260625D01*
X0111522Y0263197D01*
X0111419Y0263579D01*
X0111222Y0263921D01*
X0110943Y0264200D01*
X0110601Y0264398D01*
X0110219Y0264500D01*
X0108897Y0264500D01*
X0108897Y0260625D01*
X0108647Y0260625D01*
X0108647Y0264500D01*
X0107383Y0264500D01*
X0107183Y0264700D01*
X0103274Y0264700D01*
X0102278Y0263704D01*
X0102278Y0262550D01*
X0094405Y0262550D01*
X0093784Y0263170D01*
X0092627Y0263650D01*
X0091373Y0263650D01*
X0090216Y0263170D01*
X0089330Y0262284D01*
X0088850Y0261127D01*
X0088850Y0259873D01*
X0089330Y0258716D01*
X0090216Y0257830D01*
X0091373Y0257350D01*
X0092627Y0257350D01*
X0093784Y0257830D01*
X0094405Y0258450D01*
X0102278Y0258450D01*
X0102278Y0257296D01*
X0102278Y0258170D02*
X0094124Y0258170D01*
X0089876Y0258170D02*
X0077230Y0258170D01*
X0076231Y0259168D02*
X0089142Y0259168D01*
X0088850Y0260167D02*
X0075233Y0260167D01*
X0074234Y0261165D02*
X0088866Y0261165D01*
X0089280Y0262164D02*
X0073236Y0262164D01*
X0072237Y0263162D02*
X0090207Y0263162D01*
X0093793Y0263162D02*
X0102278Y0263162D01*
X0102735Y0264161D02*
X0071239Y0264161D01*
X0070240Y0265159D02*
X0119900Y0265159D01*
X0119900Y0264161D02*
X0110982Y0264161D01*
X0111522Y0263162D02*
X0119900Y0263162D01*
X0119900Y0262164D02*
X0111522Y0262164D01*
X0111522Y0261165D02*
X0119900Y0261165D01*
X0119900Y0260167D02*
X0111522Y0260167D01*
X0111522Y0260375D02*
X0111522Y0257803D01*
X0111419Y0257421D01*
X0111222Y0257079D01*
X0110943Y0256800D01*
X0110601Y0256602D01*
X0110219Y0256500D01*
X0108897Y0256500D01*
X0108897Y0260375D01*
X0111522Y0260375D01*
X0111522Y0259168D02*
X0119900Y0259168D01*
X0119900Y0258170D02*
X0111522Y0258170D01*
X0111275Y0257171D02*
X0119900Y0257171D01*
X0126100Y0257171D02*
X0174430Y0257171D01*
X0175428Y0256172D02*
X0126100Y0256172D01*
X0126100Y0255174D02*
X0176427Y0255174D01*
X0177425Y0254175D02*
X0126100Y0254175D01*
X0126100Y0253177D02*
X0178424Y0253177D01*
X0179422Y0252178D02*
X0126100Y0252178D01*
X0126100Y0251180D02*
X0180421Y0251180D01*
X0183224Y0254175D02*
X0221900Y0254175D01*
X0221900Y0253177D02*
X0184222Y0253177D01*
X0185221Y0252178D02*
X0221900Y0252178D01*
X0221900Y0251180D02*
X0186219Y0251180D01*
X0182225Y0255174D02*
X0221900Y0255174D01*
X0221900Y0256172D02*
X0181227Y0256172D01*
X0180228Y0257171D02*
X0204403Y0257171D01*
X0204278Y0257296D02*
X0205274Y0256300D01*
X0209183Y0256300D01*
X0209383Y0256500D01*
X0210647Y0256500D01*
X0210647Y0260375D01*
X0210897Y0260375D01*
X0210897Y0260625D01*
X0213522Y0260625D01*
X0213522Y0263197D01*
X0213419Y0263579D01*
X0213222Y0263921D01*
X0212943Y0264200D01*
X0212601Y0264398D01*
X0212219Y0264500D01*
X0210897Y0264500D01*
X0210897Y0260625D01*
X0210647Y0260625D01*
X0210647Y0264500D01*
X0209383Y0264500D01*
X0209183Y0264700D01*
X0205274Y0264700D01*
X0204278Y0263704D01*
X0204278Y0262550D01*
X0196405Y0262550D01*
X0195784Y0263170D01*
X0194627Y0263650D01*
X0193373Y0263650D01*
X0192216Y0263170D01*
X0191330Y0262284D01*
X0190850Y0261127D01*
X0190850Y0259873D01*
X0191330Y0258716D01*
X0192216Y0257830D01*
X0193373Y0257350D01*
X0194627Y0257350D01*
X0195784Y0257830D01*
X0196405Y0258450D01*
X0204278Y0258450D01*
X0204278Y0257296D01*
X0204278Y0258170D02*
X0196124Y0258170D01*
X0191876Y0258170D02*
X0179230Y0258170D01*
X0178231Y0259168D02*
X0191142Y0259168D01*
X0190850Y0260167D02*
X0177233Y0260167D01*
X0176234Y0261165D02*
X0190866Y0261165D01*
X0191280Y0262164D02*
X0175236Y0262164D01*
X0174237Y0263162D02*
X0192207Y0263162D01*
X0195793Y0263162D02*
X0204278Y0263162D01*
X0204735Y0264161D02*
X0173239Y0264161D01*
X0172240Y0265159D02*
X0221900Y0265159D01*
X0221900Y0264161D02*
X0212982Y0264161D01*
X0213522Y0263162D02*
X0221900Y0263162D01*
X0221900Y0262164D02*
X0213522Y0262164D01*
X0213522Y0261165D02*
X0221900Y0261165D01*
X0221900Y0260167D02*
X0213522Y0260167D01*
X0213522Y0260375D02*
X0213522Y0257803D01*
X0213419Y0257421D01*
X0213222Y0257079D01*
X0212943Y0256800D01*
X0212601Y0256602D01*
X0212219Y0256500D01*
X0210897Y0256500D01*
X0210897Y0260375D01*
X0213522Y0260375D01*
X0213522Y0259168D02*
X0221900Y0259168D01*
X0221900Y0258170D02*
X0213522Y0258170D01*
X0213275Y0257171D02*
X0221900Y0257171D01*
X0221900Y0250181D02*
X0201809Y0250181D01*
X0202954Y0249183D02*
X0221900Y0249183D01*
X0221900Y0248184D02*
X0203733Y0248184D01*
X0204147Y0247186D02*
X0221900Y0247186D01*
X0221900Y0246187D02*
X0204400Y0246187D01*
X0204400Y0245189D02*
X0221900Y0245189D01*
X0221900Y0244190D02*
X0204302Y0244190D01*
X0203889Y0243192D02*
X0221900Y0243192D01*
X0208555Y0236202D02*
X0139445Y0236202D01*
X0140635Y0235204D02*
X0207365Y0235204D01*
X0206688Y0234635D02*
X0206688Y0234635D01*
X0206688Y0234635D01*
X0206440Y0234205D02*
X0141560Y0234205D01*
X0142137Y0233207D02*
X0205863Y0233207D01*
X0205287Y0232208D02*
X0142713Y0232208D01*
X0142969Y0231765D02*
X0142969Y0231765D01*
X0143067Y0231210D02*
X0204933Y0231210D01*
X0205031Y0231765D02*
X0205031Y0231765D01*
X0204757Y0230211D02*
X0143243Y0230211D01*
X0143419Y0229213D02*
X0204581Y0229213D01*
X0204505Y0228214D02*
X0143495Y0228214D01*
X0143545Y0228500D02*
X0143545Y0228500D01*
X0143319Y0227216D02*
X0204681Y0227216D01*
X0204858Y0226217D02*
X0143142Y0226217D01*
X0142960Y0225219D02*
X0205040Y0225219D01*
X0205031Y0225235D02*
X0205031Y0225235D01*
X0205617Y0224220D02*
X0142383Y0224220D01*
X0141807Y0223222D02*
X0206193Y0223222D01*
X0206857Y0222223D02*
X0141143Y0222223D01*
X0141312Y0222365D02*
X0141312Y0222365D01*
X0141312Y0222365D01*
X0139953Y0221225D02*
X0208047Y0221225D01*
X0209249Y0220226D02*
X0138751Y0220226D01*
X0136008Y0219228D02*
X0211992Y0219228D01*
X0216008Y0219228D02*
X0221900Y0219228D01*
X0221900Y0220226D02*
X0218751Y0220226D01*
X0219953Y0221225D02*
X0221900Y0221225D01*
X0221900Y0222223D02*
X0221143Y0222223D01*
X0221312Y0222365D02*
X0221312Y0222365D01*
X0221312Y0222365D01*
X0221807Y0223222D02*
X0221900Y0223222D01*
X0221900Y0218229D02*
X0126100Y0218229D01*
X0126100Y0217231D02*
X0221900Y0217231D01*
X0221900Y0216232D02*
X0126100Y0216232D01*
X0126100Y0215234D02*
X0221900Y0215234D01*
X0221900Y0214235D02*
X0126100Y0214235D01*
X0126100Y0213237D02*
X0221900Y0213237D01*
X0221900Y0212238D02*
X0126100Y0212238D01*
X0126100Y0211239D02*
X0221900Y0211239D01*
X0221900Y0210241D02*
X0126100Y0210241D01*
X0126100Y0209242D02*
X0221900Y0209242D01*
X0221900Y0208244D02*
X0126100Y0208244D01*
X0119900Y0208244D02*
X0024100Y0208244D01*
X0024100Y0209242D02*
X0119900Y0209242D01*
X0119900Y0210241D02*
X0024100Y0210241D01*
X0024100Y0211239D02*
X0119900Y0211239D01*
X0119900Y0212238D02*
X0024100Y0212238D01*
X0024100Y0213237D02*
X0119900Y0213237D01*
X0119900Y0214235D02*
X0024100Y0214235D01*
X0024100Y0215234D02*
X0119900Y0215234D01*
X0119900Y0216232D02*
X0024100Y0216232D01*
X0024100Y0217231D02*
X0119900Y0217231D01*
X0119900Y0218229D02*
X0024100Y0218229D01*
X0024100Y0219228D02*
X0029992Y0219228D01*
X0027249Y0220226D02*
X0024100Y0220226D01*
X0024100Y0221225D02*
X0026047Y0221225D01*
X0024857Y0222223D02*
X0024100Y0222223D01*
X0024100Y0223222D02*
X0024193Y0223222D01*
X0034008Y0219228D02*
X0109992Y0219228D01*
X0107249Y0220226D02*
X0036751Y0220226D01*
X0037953Y0221225D02*
X0106047Y0221225D01*
X0104857Y0222223D02*
X0039143Y0222223D01*
X0039312Y0222365D02*
X0039312Y0222365D01*
X0039312Y0222365D01*
X0039807Y0223222D02*
X0104193Y0223222D01*
X0103617Y0224220D02*
X0040383Y0224220D01*
X0040960Y0225219D02*
X0103040Y0225219D01*
X0103031Y0225235D02*
X0103031Y0225235D01*
X0102858Y0226217D02*
X0041142Y0226217D01*
X0041319Y0227216D02*
X0102681Y0227216D01*
X0102505Y0228214D02*
X0041495Y0228214D01*
X0041545Y0228500D02*
X0041545Y0228500D01*
X0041419Y0229213D02*
X0102581Y0229213D01*
X0102757Y0230211D02*
X0041243Y0230211D01*
X0041067Y0231210D02*
X0102933Y0231210D01*
X0103031Y0231765D02*
X0103031Y0231765D01*
X0103287Y0232208D02*
X0040713Y0232208D01*
X0040969Y0231765D02*
X0040969Y0231765D01*
X0040137Y0233207D02*
X0103863Y0233207D01*
X0104440Y0234205D02*
X0039560Y0234205D01*
X0038635Y0235204D02*
X0105365Y0235204D01*
X0104688Y0234635D02*
X0104688Y0234635D01*
X0104688Y0234635D01*
X0106555Y0236202D02*
X0037445Y0236202D01*
X0040106Y0243192D02*
X0052340Y0243192D01*
X0051958Y0244190D02*
X0040003Y0244190D01*
X0039337Y0245189D02*
X0056500Y0245189D01*
X0056500Y0246187D02*
X0057500Y0246187D01*
X0057500Y0247186D02*
X0056500Y0247186D01*
X0056500Y0248184D02*
X0057500Y0248184D01*
X0057500Y0249183D02*
X0056500Y0249183D01*
X0056500Y0250181D02*
X0057500Y0250181D01*
X0059266Y0250181D02*
X0064191Y0250181D01*
X0063046Y0249183D02*
X0060671Y0249183D01*
X0061468Y0248184D02*
X0062267Y0248184D01*
X0069809Y0250181D02*
X0074191Y0250181D01*
X0073046Y0249183D02*
X0070954Y0249183D01*
X0071733Y0248184D02*
X0072267Y0248184D01*
X0054734Y0250181D02*
X0024100Y0250181D01*
X0024100Y0249183D02*
X0026006Y0249183D01*
X0025297Y0248184D02*
X0024100Y0248184D01*
X0024100Y0247186D02*
X0025297Y0247186D01*
X0025297Y0246187D02*
X0024100Y0246187D01*
X0024100Y0245189D02*
X0024815Y0245189D01*
X0028787Y0249183D02*
X0029910Y0249183D01*
X0032170Y0249704D02*
X0032170Y0249704D01*
X0039423Y0249183D02*
X0053329Y0249183D01*
X0052532Y0248184D02*
X0040031Y0248184D01*
X0040231Y0247186D02*
X0052080Y0247186D01*
X0051844Y0246187D02*
X0039586Y0246187D01*
X0049109Y0268155D02*
X0061446Y0268155D01*
X0064249Y0271150D02*
X0119900Y0271150D01*
X0119900Y0270152D02*
X0065247Y0270152D01*
X0066246Y0269153D02*
X0119900Y0269153D01*
X0119900Y0268155D02*
X0067245Y0268155D01*
X0068243Y0267156D02*
X0119900Y0267156D01*
X0119900Y0266158D02*
X0069242Y0266158D01*
X0063250Y0272149D02*
X0119900Y0272149D01*
X0119900Y0273147D02*
X0048808Y0273147D01*
X0089809Y0250181D02*
X0094191Y0250181D01*
X0093046Y0249183D02*
X0090954Y0249183D01*
X0091733Y0248184D02*
X0092267Y0248184D01*
X0099809Y0250181D02*
X0119900Y0250181D01*
X0119900Y0249183D02*
X0100954Y0249183D01*
X0101733Y0248184D02*
X0119900Y0248184D01*
X0119900Y0247186D02*
X0102147Y0247186D01*
X0102400Y0246187D02*
X0119900Y0246187D01*
X0119900Y0245189D02*
X0102400Y0245189D01*
X0102302Y0244190D02*
X0119900Y0244190D01*
X0119900Y0243192D02*
X0101889Y0243192D01*
X0108647Y0257171D02*
X0108897Y0257171D01*
X0108897Y0258170D02*
X0108647Y0258170D01*
X0108647Y0259168D02*
X0108897Y0259168D01*
X0108897Y0260167D02*
X0108647Y0260167D01*
X0108647Y0261165D02*
X0108897Y0261165D01*
X0108897Y0262164D02*
X0108647Y0262164D01*
X0108647Y0263162D02*
X0108897Y0263162D01*
X0108897Y0264161D02*
X0108647Y0264161D01*
X0126100Y0264161D02*
X0167440Y0264161D01*
X0166442Y0265159D02*
X0126100Y0265159D01*
X0126100Y0266158D02*
X0165443Y0266158D01*
X0164445Y0267156D02*
X0126100Y0267156D01*
X0126100Y0268155D02*
X0146891Y0268155D01*
X0146148Y0269153D02*
X0126100Y0269153D01*
X0126100Y0270152D02*
X0145850Y0270152D01*
X0145860Y0271150D02*
X0126100Y0271150D01*
X0126100Y0272149D02*
X0146273Y0272149D01*
X0147192Y0273147D02*
X0126100Y0273147D01*
X0126100Y0274146D02*
X0221900Y0274146D01*
X0221900Y0275144D02*
X0126100Y0275144D01*
X0126100Y0276143D02*
X0221900Y0276143D01*
X0221900Y0277141D02*
X0126100Y0277141D01*
X0126100Y0278140D02*
X0221900Y0278140D01*
X0221900Y0279138D02*
X0126100Y0279138D01*
X0126100Y0280137D02*
X0221900Y0280137D01*
X0221900Y0281135D02*
X0126100Y0281135D01*
X0126100Y0282134D02*
X0221900Y0282134D01*
X0221900Y0283132D02*
X0126100Y0283132D01*
X0126100Y0263162D02*
X0168439Y0263162D01*
X0169437Y0262164D02*
X0126100Y0262164D01*
X0126100Y0261165D02*
X0170436Y0261165D01*
X0171434Y0260167D02*
X0126100Y0260167D01*
X0126100Y0259168D02*
X0172433Y0259168D01*
X0173431Y0258170D02*
X0126100Y0258170D01*
X0126100Y0250181D02*
X0156734Y0250181D01*
X0155329Y0249183D02*
X0141423Y0249183D01*
X0142031Y0248184D02*
X0154532Y0248184D01*
X0154080Y0247186D02*
X0142231Y0247186D01*
X0141586Y0246187D02*
X0153844Y0246187D01*
X0153958Y0244190D02*
X0142003Y0244190D01*
X0142106Y0243192D02*
X0154340Y0243192D01*
X0158500Y0245189D02*
X0141337Y0245189D01*
X0134170Y0249704D02*
X0134170Y0249704D01*
X0131910Y0249183D02*
X0130787Y0249183D01*
X0128006Y0249183D02*
X0126100Y0249183D01*
X0126100Y0248184D02*
X0127297Y0248184D01*
X0127297Y0247186D02*
X0126100Y0247186D01*
X0126100Y0246187D02*
X0127297Y0246187D01*
X0126815Y0245189D02*
X0126100Y0245189D01*
X0126100Y0223222D02*
X0126193Y0223222D01*
X0126100Y0222223D02*
X0126857Y0222223D01*
X0126100Y0221225D02*
X0128047Y0221225D01*
X0129249Y0220226D02*
X0126100Y0220226D01*
X0126100Y0219228D02*
X0131992Y0219228D01*
X0119900Y0219228D02*
X0114008Y0219228D01*
X0116751Y0220226D02*
X0119900Y0220226D01*
X0119900Y0221225D02*
X0117953Y0221225D01*
X0119143Y0222223D02*
X0119900Y0222223D01*
X0119312Y0222365D02*
X0119312Y0222365D01*
X0119312Y0222365D01*
X0119807Y0223222D02*
X0119900Y0223222D01*
X0158500Y0246187D02*
X0159500Y0246187D01*
X0159500Y0247186D02*
X0158500Y0247186D01*
X0158500Y0248184D02*
X0159500Y0248184D01*
X0159500Y0249183D02*
X0158500Y0249183D01*
X0158500Y0250181D02*
X0159500Y0250181D01*
X0161266Y0250181D02*
X0166191Y0250181D01*
X0165046Y0249183D02*
X0162671Y0249183D01*
X0163468Y0248184D02*
X0164267Y0248184D01*
X0171809Y0250181D02*
X0176191Y0250181D01*
X0175046Y0249183D02*
X0172954Y0249183D01*
X0173733Y0248184D02*
X0174267Y0248184D01*
X0191809Y0250181D02*
X0196191Y0250181D01*
X0195046Y0249183D02*
X0192954Y0249183D01*
X0193733Y0248184D02*
X0194267Y0248184D01*
X0210647Y0257171D02*
X0210897Y0257171D01*
X0210897Y0258170D02*
X0210647Y0258170D01*
X0210647Y0259168D02*
X0210897Y0259168D01*
X0210897Y0260167D02*
X0210647Y0260167D01*
X0210647Y0261165D02*
X0210897Y0261165D01*
X0210897Y0262164D02*
X0210647Y0262164D01*
X0210647Y0263162D02*
X0210897Y0263162D01*
X0210897Y0264161D02*
X0210647Y0264161D01*
X0221900Y0266158D02*
X0171242Y0266158D01*
X0170243Y0267156D02*
X0221900Y0267156D01*
X0221900Y0268155D02*
X0169245Y0268155D01*
X0168246Y0269153D02*
X0221900Y0269153D01*
X0221900Y0270152D02*
X0167247Y0270152D01*
X0166249Y0271150D02*
X0221900Y0271150D01*
X0221900Y0272149D02*
X0165250Y0272149D01*
X0163446Y0268155D02*
X0151109Y0268155D01*
X0150808Y0273147D02*
X0221900Y0273147D01*
X0228100Y0274146D02*
X0323900Y0274146D01*
X0323900Y0275144D02*
X0228100Y0275144D01*
X0228100Y0276143D02*
X0323900Y0276143D01*
X0323900Y0277141D02*
X0228100Y0277141D01*
X0228100Y0278140D02*
X0323900Y0278140D01*
X0323900Y0279138D02*
X0228100Y0279138D01*
X0228100Y0280137D02*
X0323900Y0280137D01*
X0323900Y0281135D02*
X0228100Y0281135D01*
X0228100Y0282134D02*
X0323900Y0282134D01*
X0323900Y0283132D02*
X0228100Y0283132D01*
X0247295Y0302104D02*
X0323900Y0302104D01*
X0323900Y0301105D02*
X0248294Y0301105D01*
X0249292Y0300107D02*
X0323900Y0300107D01*
X0323900Y0299108D02*
X0250291Y0299108D01*
X0251289Y0298110D02*
X0323900Y0298110D01*
X0323900Y0297111D02*
X0252288Y0297111D01*
X0253286Y0296113D02*
X0323900Y0296113D01*
X0323900Y0295114D02*
X0254285Y0295114D01*
X0255283Y0294116D02*
X0323900Y0294116D01*
X0323900Y0293117D02*
X0317837Y0293117D01*
X0318739Y0292119D02*
X0323900Y0292119D01*
X0323900Y0291120D02*
X0319150Y0291120D01*
X0319150Y0290122D02*
X0323900Y0290122D01*
X0323900Y0289123D02*
X0318839Y0289123D01*
X0318080Y0288125D02*
X0323900Y0288125D01*
X0323900Y0287126D02*
X0269048Y0287126D01*
X0269150Y0288125D02*
X0313920Y0288125D01*
X0314163Y0293117D02*
X0256282Y0293117D01*
X0246297Y0303103D02*
X0323900Y0303103D01*
X0323900Y0304101D02*
X0245298Y0304101D01*
X0244300Y0305100D02*
X0323900Y0305100D01*
X0323900Y0306098D02*
X0244150Y0306098D01*
X0243748Y0307097D02*
X0323900Y0307097D01*
X0323900Y0308095D02*
X0242860Y0308095D01*
X0268583Y0286128D02*
X0323900Y0286128D01*
X0323807Y0223222D02*
X0323900Y0223222D01*
X0323900Y0222223D02*
X0323143Y0222223D01*
X0323312Y0222365D02*
X0323312Y0222365D01*
X0323312Y0222365D01*
X0323900Y0221225D02*
X0321953Y0221225D01*
X0320751Y0220226D02*
X0323900Y0220226D01*
X0323900Y0219228D02*
X0318008Y0219228D01*
X0323900Y0218229D02*
X0228100Y0218229D01*
X0228100Y0217231D02*
X0323900Y0217231D01*
X0323900Y0216232D02*
X0228100Y0216232D01*
X0228100Y0215234D02*
X0323900Y0215234D01*
X0323900Y0214235D02*
X0228100Y0214235D01*
X0228100Y0213237D02*
X0323900Y0213237D01*
X0323900Y0212238D02*
X0228100Y0212238D01*
X0228100Y0211239D02*
X0323900Y0211239D01*
X0323900Y0210241D02*
X0228100Y0210241D01*
X0228100Y0209242D02*
X0323900Y0209242D01*
X0323900Y0208244D02*
X0228100Y0208244D01*
X0228100Y0219228D02*
X0233992Y0219228D01*
X0231249Y0220226D02*
X0228100Y0220226D01*
X0228100Y0221225D02*
X0230047Y0221225D01*
X0228857Y0222223D02*
X0228100Y0222223D01*
X0228100Y0223222D02*
X0228193Y0223222D01*
X0228100Y0181284D02*
X0323900Y0181284D01*
X0323900Y0180286D02*
X0228100Y0180286D01*
X0228100Y0179287D02*
X0323900Y0179287D01*
X0323900Y0178289D02*
X0228100Y0178289D01*
X0228100Y0177290D02*
X0323900Y0177290D01*
X0323900Y0176292D02*
X0228100Y0176292D01*
X0228100Y0175293D02*
X0323900Y0175293D01*
X0323900Y0174295D02*
X0228100Y0174295D01*
X0228100Y0173296D02*
X0323900Y0173296D01*
X0323900Y0172298D02*
X0228100Y0172298D01*
X0221900Y0171299D02*
X0150474Y0171299D01*
X0119900Y0170301D02*
X0063099Y0170301D01*
X0064097Y0169302D02*
X0119900Y0169302D01*
X0119900Y0168303D02*
X0065096Y0168303D01*
X0066094Y0167305D02*
X0119900Y0167305D01*
X0119900Y0166306D02*
X0067093Y0166306D01*
X0068091Y0165308D02*
X0119900Y0165308D01*
X0119900Y0164309D02*
X0069090Y0164309D01*
X0070088Y0163311D02*
X0119900Y0163311D01*
X0119900Y0162312D02*
X0110748Y0162312D01*
X0110601Y0162398D02*
X0110219Y0162500D01*
X0108897Y0162500D01*
X0108897Y0158625D01*
X0111522Y0158625D01*
X0111522Y0161197D01*
X0111419Y0161579D01*
X0111222Y0161921D01*
X0110943Y0162200D01*
X0110601Y0162398D01*
X0111490Y0161314D02*
X0119900Y0161314D01*
X0119900Y0160315D02*
X0111522Y0160315D01*
X0111522Y0159317D02*
X0119900Y0159317D01*
X0119900Y0158318D02*
X0111522Y0158318D01*
X0111522Y0158375D02*
X0108897Y0158375D01*
X0108897Y0158625D01*
X0108647Y0158625D01*
X0108647Y0162500D01*
X0107383Y0162500D01*
X0107183Y0162700D01*
X0103274Y0162700D01*
X0102278Y0161704D01*
X0102278Y0160550D01*
X0094405Y0160550D01*
X0093784Y0161170D01*
X0092627Y0161650D01*
X0091373Y0161650D01*
X0090216Y0161170D01*
X0089330Y0160284D01*
X0088850Y0159127D01*
X0088850Y0157873D01*
X0089330Y0156716D01*
X0090216Y0155830D01*
X0091373Y0155350D01*
X0092627Y0155350D01*
X0093784Y0155830D01*
X0094405Y0156450D01*
X0102278Y0156450D01*
X0102278Y0155296D01*
X0103274Y0154300D01*
X0107183Y0154300D01*
X0107383Y0154500D01*
X0108647Y0154500D01*
X0108647Y0158375D01*
X0108897Y0158375D01*
X0108897Y0154500D01*
X0110219Y0154500D01*
X0110601Y0154602D01*
X0110943Y0154800D01*
X0111222Y0155079D01*
X0111419Y0155421D01*
X0111522Y0155803D01*
X0111522Y0158375D01*
X0111522Y0157320D02*
X0119900Y0157320D01*
X0119900Y0156321D02*
X0111522Y0156321D01*
X0111363Y0155323D02*
X0119900Y0155323D01*
X0119900Y0154324D02*
X0107207Y0154324D01*
X0108647Y0155323D02*
X0108897Y0155323D01*
X0108897Y0156321D02*
X0108647Y0156321D01*
X0108647Y0157320D02*
X0108897Y0157320D01*
X0108897Y0158318D02*
X0108647Y0158318D01*
X0108647Y0159317D02*
X0108897Y0159317D01*
X0108897Y0160315D02*
X0108647Y0160315D01*
X0108647Y0161314D02*
X0108897Y0161314D01*
X0108897Y0162312D02*
X0108647Y0162312D01*
X0102887Y0162312D02*
X0071087Y0162312D01*
X0072085Y0161314D02*
X0090562Y0161314D01*
X0089361Y0160315D02*
X0073084Y0160315D01*
X0074082Y0159317D02*
X0088929Y0159317D01*
X0088850Y0158318D02*
X0075081Y0158318D01*
X0076079Y0157320D02*
X0089079Y0157320D01*
X0089724Y0156321D02*
X0077078Y0156321D01*
X0078076Y0155323D02*
X0102278Y0155323D01*
X0102278Y0156321D02*
X0094276Y0156321D01*
X0093438Y0161314D02*
X0102278Y0161314D01*
X0103250Y0154324D02*
X0079075Y0154324D01*
X0080073Y0153326D02*
X0119900Y0153326D01*
X0119900Y0152327D02*
X0081072Y0152327D01*
X0082070Y0151329D02*
X0119900Y0151329D01*
X0119900Y0150330D02*
X0083069Y0150330D01*
X0084067Y0149332D02*
X0119900Y0149332D01*
X0119900Y0148333D02*
X0099442Y0148333D01*
X0100802Y0147335D02*
X0119900Y0147335D01*
X0119900Y0146336D02*
X0101670Y0146336D01*
X0102084Y0145338D02*
X0119900Y0145338D01*
X0119900Y0144339D02*
X0102400Y0144339D01*
X0102400Y0143341D02*
X0119900Y0143341D01*
X0119900Y0142342D02*
X0102365Y0142342D01*
X0101952Y0141344D02*
X0119900Y0141344D01*
X0126100Y0143341D02*
X0126967Y0143341D01*
X0127297Y0144339D02*
X0126100Y0144339D01*
X0126100Y0145338D02*
X0127297Y0145338D01*
X0127297Y0146336D02*
X0126100Y0146336D01*
X0126100Y0121373D02*
X0126106Y0121373D01*
X0126100Y0120375D02*
X0126682Y0120375D01*
X0126100Y0119376D02*
X0127866Y0119376D01*
X0129056Y0118378D02*
X0126100Y0118378D01*
X0126100Y0117379D02*
X0131575Y0117379D01*
X0094558Y0148333D02*
X0089442Y0148333D01*
X0090802Y0147335D02*
X0093198Y0147335D01*
X0092330Y0146336D02*
X0091670Y0146336D01*
X0074558Y0148333D02*
X0069442Y0148333D01*
X0070802Y0147335D02*
X0073198Y0147335D01*
X0072330Y0146336D02*
X0071670Y0146336D01*
X0064558Y0148333D02*
X0058952Y0148333D01*
X0060519Y0147335D02*
X0063198Y0147335D01*
X0062330Y0146336D02*
X0061367Y0146336D01*
X0061870Y0145338D02*
X0061916Y0145338D01*
X0027056Y0118378D02*
X0024100Y0118378D01*
X0024100Y0119376D02*
X0025866Y0119376D01*
X0024682Y0120375D02*
X0024100Y0120375D01*
X0024100Y0121373D02*
X0024106Y0121373D01*
X0062947Y0068452D02*
X0119900Y0068452D01*
X0119900Y0067454D02*
X0063945Y0067454D01*
X0108647Y0060464D02*
X0108897Y0060464D01*
X0108897Y0059466D02*
X0108647Y0059466D01*
X0108647Y0058467D02*
X0108897Y0058467D01*
X0108897Y0057469D02*
X0108647Y0057469D01*
X0108897Y0056470D02*
X0119900Y0056470D01*
X0119900Y0055472D02*
X0111522Y0055472D01*
X0111522Y0056375D02*
X0111522Y0053803D01*
X0111419Y0053421D01*
X0111222Y0053079D01*
X0110943Y0052800D01*
X0110601Y0052602D01*
X0110219Y0052500D01*
X0108897Y0052500D01*
X0108897Y0056375D01*
X0111522Y0056375D01*
X0111522Y0057469D02*
X0119900Y0057469D01*
X0119900Y0058467D02*
X0111522Y0058467D01*
X0111450Y0059466D02*
X0119900Y0059466D01*
X0119900Y0060464D02*
X0110352Y0060464D01*
X0108897Y0055472D02*
X0108647Y0055472D01*
X0108647Y0054473D02*
X0108897Y0054473D01*
X0108897Y0053475D02*
X0108647Y0053475D01*
X0111434Y0053475D02*
X0119900Y0053475D01*
X0119900Y0054473D02*
X0111522Y0054473D01*
X0126100Y0054473D02*
X0173128Y0054473D01*
X0174126Y0053475D02*
X0126100Y0053475D01*
X0126100Y0052476D02*
X0175125Y0052476D01*
X0176123Y0051478D02*
X0126100Y0051478D01*
X0126100Y0050479D02*
X0177122Y0050479D01*
X0178120Y0049481D02*
X0126100Y0049481D01*
X0126100Y0048482D02*
X0179119Y0048482D01*
X0180117Y0047484D02*
X0126100Y0047484D01*
X0126100Y0046485D02*
X0157515Y0046485D01*
X0158500Y0046485D02*
X0159500Y0046485D01*
X0160485Y0046485D02*
X0166924Y0046485D01*
X0165350Y0045487D02*
X0162360Y0045487D01*
X0163257Y0044488D02*
X0164393Y0044488D01*
X0163979Y0043490D02*
X0163821Y0043490D01*
X0159500Y0043490D02*
X0158500Y0043490D01*
X0158500Y0044488D02*
X0159500Y0044488D01*
X0159500Y0045487D02*
X0158500Y0045487D01*
X0155640Y0045487D02*
X0140967Y0045487D01*
X0141971Y0044488D02*
X0154743Y0044488D01*
X0154179Y0043490D02*
X0142170Y0043490D01*
X0141788Y0042491D02*
X0153892Y0042491D01*
X0153895Y0040494D02*
X0141800Y0040494D01*
X0142167Y0039496D02*
X0154185Y0039496D01*
X0158500Y0041493D02*
X0141135Y0041493D01*
X0138737Y0045487D02*
X0138472Y0045487D01*
X0136242Y0045487D02*
X0135788Y0045487D01*
X0134170Y0045704D02*
X0134170Y0045704D01*
X0132213Y0045487D02*
X0130484Y0045487D01*
X0128310Y0045487D02*
X0126100Y0045487D01*
X0126100Y0044488D02*
X0127312Y0044488D01*
X0127297Y0043490D02*
X0126100Y0043490D01*
X0126100Y0042491D02*
X0127297Y0042491D01*
X0127118Y0041493D02*
X0126100Y0041493D01*
X0126100Y0040494D02*
X0126120Y0040494D01*
X0126100Y0055472D02*
X0172129Y0055472D01*
X0171131Y0056470D02*
X0126100Y0056470D01*
X0126100Y0057469D02*
X0170132Y0057469D01*
X0169134Y0058467D02*
X0126100Y0058467D01*
X0126100Y0059466D02*
X0168135Y0059466D01*
X0167137Y0060464D02*
X0126100Y0060464D01*
X0126100Y0061463D02*
X0166138Y0061463D01*
X0165140Y0062461D02*
X0126100Y0062461D01*
X0126100Y0063460D02*
X0148108Y0063460D01*
X0149892Y0063460D02*
X0164141Y0063460D01*
X0172935Y0060464D02*
X0205038Y0060464D01*
X0204278Y0059466D02*
X0195071Y0059466D01*
X0192929Y0059466D02*
X0173933Y0059466D01*
X0174932Y0058467D02*
X0191512Y0058467D01*
X0190992Y0057469D02*
X0175930Y0057469D01*
X0176929Y0056470D02*
X0190850Y0056470D01*
X0191016Y0055472D02*
X0177927Y0055472D01*
X0178926Y0054473D02*
X0191572Y0054473D01*
X0193072Y0053475D02*
X0179924Y0053475D01*
X0181076Y0046485D02*
X0181116Y0046485D01*
X0176924Y0046485D02*
X0171076Y0046485D01*
X0172650Y0045487D02*
X0175350Y0045487D01*
X0174393Y0044488D02*
X0173607Y0044488D01*
X0186914Y0046485D02*
X0186924Y0046485D01*
X0191076Y0046485D02*
X0196924Y0046485D01*
X0195350Y0045487D02*
X0192650Y0045487D01*
X0193607Y0044488D02*
X0194393Y0044488D01*
X0194928Y0053475D02*
X0204278Y0053475D01*
X0159500Y0042491D02*
X0158500Y0042491D01*
X0146587Y0064458D02*
X0126100Y0064458D01*
X0126100Y0065457D02*
X0146023Y0065457D01*
X0145850Y0066455D02*
X0126100Y0066455D01*
X0126100Y0067454D02*
X0145986Y0067454D01*
X0146498Y0068452D02*
X0126100Y0068452D01*
D14*
X0112000Y0086500D03*
X0102000Y0106500D03*
X0139000Y0101500D03*
X0149000Y0106500D03*
X0159000Y0106500D03*
X0164000Y0084000D03*
X0149000Y0066500D03*
X0189000Y0066500D03*
X0194000Y0056500D03*
X0204000Y0066500D03*
X0214000Y0086500D03*
X0204000Y0106500D03*
X0241000Y0101500D03*
X0251000Y0106500D03*
X0261000Y0106500D03*
X0266000Y0084000D03*
X0251000Y0066500D03*
X0291000Y0066500D03*
X0296000Y0056500D03*
X0306000Y0066500D03*
X0316000Y0086500D03*
X0306000Y0106500D03*
X0296000Y0158500D03*
X0291000Y0168500D03*
X0306000Y0168500D03*
X0316000Y0188500D03*
X0306000Y0208500D03*
X0266000Y0186000D03*
X0251000Y0168500D03*
X0241000Y0203500D03*
X0251000Y0208500D03*
X0261000Y0208500D03*
X0214000Y0188500D03*
X0204000Y0168500D03*
X0194000Y0158500D03*
X0189000Y0168500D03*
X0164000Y0186000D03*
X0149000Y0168500D03*
X0139000Y0203500D03*
X0149000Y0208500D03*
X0159000Y0208500D03*
X0204000Y0208500D03*
X0194000Y0260500D03*
X0189000Y0270500D03*
X0204000Y0270500D03*
X0214000Y0290500D03*
X0204000Y0310500D03*
X0241000Y0305500D03*
X0251000Y0310500D03*
X0261000Y0310500D03*
X0266000Y0288000D03*
X0251000Y0270500D03*
X0291000Y0270500D03*
X0296000Y0260500D03*
X0306000Y0270500D03*
X0316000Y0290500D03*
X0306000Y0310500D03*
X0164000Y0288000D03*
X0149000Y0270500D03*
X0112000Y0290500D03*
X0102000Y0310500D03*
X0139000Y0305500D03*
X0149000Y0310500D03*
X0159000Y0310500D03*
X0102000Y0270500D03*
X0092000Y0260500D03*
X0087000Y0270500D03*
X0062000Y0288000D03*
X0047000Y0270500D03*
X0037000Y0305500D03*
X0047000Y0310500D03*
X0057000Y0310500D03*
X0057000Y0208500D03*
X0047000Y0208500D03*
X0037000Y0203500D03*
X0062000Y0186000D03*
X0047000Y0168500D03*
X0087000Y0168500D03*
X0092000Y0158500D03*
X0102000Y0168500D03*
X0112000Y0188500D03*
X0102000Y0208500D03*
X0057000Y0106500D03*
X0047000Y0106500D03*
X0037000Y0101500D03*
X0062000Y0084000D03*
X0047000Y0066500D03*
X0087000Y0066500D03*
X0092000Y0056500D03*
X0102000Y0066500D03*
D15*
X0105228Y0056500D02*
X0092000Y0056500D01*
X0087000Y0041500D02*
X0062000Y0066500D01*
X0047000Y0066500D01*
X0062000Y0084000D02*
X0062000Y0086500D01*
X0052000Y0086500D01*
X0037000Y0101500D01*
X0062000Y0086500D02*
X0112000Y0086500D01*
X0139000Y0101500D02*
X0154000Y0086500D01*
X0164000Y0086500D01*
X0164000Y0084000D01*
X0164000Y0086500D02*
X0214000Y0086500D01*
X0241000Y0101500D02*
X0256000Y0086500D01*
X0266000Y0086500D01*
X0266000Y0084000D01*
X0266000Y0086500D02*
X0316000Y0086500D01*
X0309228Y0056500D02*
X0296000Y0056500D01*
X0291000Y0041500D02*
X0266000Y0066500D01*
X0251000Y0066500D01*
X0207228Y0056500D02*
X0194000Y0056500D01*
X0189000Y0041500D02*
X0164000Y0066500D01*
X0149000Y0066500D01*
X0189000Y0143500D02*
X0164000Y0168500D01*
X0149000Y0168500D01*
X0154000Y0188500D02*
X0139000Y0203500D01*
X0154000Y0188500D02*
X0164000Y0188500D01*
X0164000Y0186000D01*
X0164000Y0188500D02*
X0214000Y0188500D01*
X0241000Y0203500D02*
X0256000Y0188500D01*
X0266000Y0188500D01*
X0266000Y0186000D01*
X0266000Y0188500D02*
X0316000Y0188500D01*
X0309228Y0158500D02*
X0296000Y0158500D01*
X0291000Y0143500D02*
X0266000Y0168500D01*
X0251000Y0168500D01*
X0207228Y0158500D02*
X0194000Y0158500D01*
X0112000Y0188500D02*
X0062000Y0188500D01*
X0062000Y0186000D01*
X0062000Y0188500D02*
X0052000Y0188500D01*
X0037000Y0203500D01*
X0047000Y0168500D02*
X0062000Y0168500D01*
X0087000Y0143500D01*
X0092000Y0158500D02*
X0105228Y0158500D01*
X0087000Y0245500D02*
X0062000Y0270500D01*
X0047000Y0270500D01*
X0062000Y0288000D02*
X0062000Y0290500D01*
X0052000Y0290500D01*
X0037000Y0305500D01*
X0062000Y0290500D02*
X0112000Y0290500D01*
X0139000Y0305500D02*
X0154000Y0290500D01*
X0164000Y0290500D01*
X0164000Y0288000D01*
X0164000Y0290500D02*
X0214000Y0290500D01*
X0241000Y0305500D02*
X0256000Y0290500D01*
X0266000Y0290500D01*
X0266000Y0288000D01*
X0266000Y0290500D02*
X0316000Y0290500D01*
X0309228Y0260500D02*
X0296000Y0260500D01*
X0291000Y0245500D02*
X0266000Y0270500D01*
X0251000Y0270500D01*
X0207228Y0260500D02*
X0194000Y0260500D01*
X0189000Y0245500D02*
X0164000Y0270500D01*
X0149000Y0270500D01*
X0105228Y0260500D02*
X0092000Y0260500D01*
M02*
