%
M48
M72
T01C0.0150
T02C0.0400
T03C0.1300
%
T01
X4700Y6650
X6200Y8400
X5700Y10650
X4700Y10650
X3700Y10150
X8700Y6650
X9200Y5650
X10200Y6650
X11200Y8650
X10200Y10650
X13900Y10150
X14900Y10650
X15900Y10650
X16400Y8400
X14900Y6650
X18900Y6650
X19400Y5650
X20400Y6650
X21400Y8650
X20400Y10650
X24100Y10150
X25100Y10650
X26100Y10650
X26600Y8400
X25100Y6650
X29100Y6650
X29600Y5650
X30600Y6650
X31600Y8650
X30600Y10650
X29600Y15850
X29100Y16850
X30600Y16850
X31600Y18850
X30600Y20850
X26600Y18600
X25100Y16850
X24100Y20350
X25100Y20850
X26100Y20850
X21400Y18850
X20400Y16850
X19400Y15850
X18900Y16850
X16400Y18600
X14900Y16850
X13900Y20350
X14900Y20850
X15900Y20850
X20400Y20850
X19400Y26050
X18900Y27050
X20400Y27050
X21400Y29050
X20400Y31050
X24100Y30550
X25100Y31050
X26100Y31050
X26600Y28800
X25100Y27050
X29100Y27050
X29600Y26050
X30600Y27050
X31600Y29050
X30600Y31050
X16400Y28800
X14900Y27050
X11200Y29050
X10200Y31050
X13900Y30550
X14900Y31050
X15900Y31050
X10200Y27050
X9200Y26050
X8700Y27050
X6200Y28800
X4700Y27050
X3700Y30550
X4700Y31050
X5700Y31050
X5700Y20850
X4700Y20850
X3700Y20350
X6200Y18600
X4700Y16850
X8700Y16850
X9200Y15850
X10200Y16850
X11200Y18850
X10200Y20850
T02
X5700Y4150
X6700Y4150
X7700Y4150
X8700Y4150
X9700Y4150
X15900Y4150
X16900Y4150
X17900Y4150
X18900Y4150
X19900Y4150
X26100Y4150
X27100Y4150
X28100Y4150
X29100Y4150
X30100Y4150
X30100Y14350
X29100Y14350
X28100Y14350
X27100Y14350
X26100Y14350
X19900Y14350
X18900Y14350
X17900Y14350
X16900Y14350
X15900Y14350
X9700Y14350
X8700Y14350
X7700Y14350
X6700Y14350
X5700Y14350
X5700Y24550
X6700Y24550
X7700Y24550
X8700Y24550
X9700Y24550
X15900Y24550
X16900Y24550
X17900Y24550
X18900Y24550
X19900Y24550
X26100Y24550
X27100Y24550
X28100Y24550
X29100Y24550
X30100Y24550
T03
X31600Y22850
X23600Y22850
X21400Y22850
X13400Y22850
X11200Y22850
X3200Y22850
X3200Y12650
X11200Y12650
X13400Y12650
X21400Y12650
X23600Y12650
X31600Y12650
X31600Y33050
X23600Y33050
X21400Y33050
X13400Y33050
X11200Y33050
X3200Y33050
M30
