G75*
%MOIN*%
%OFA0B0*%
%FSLAX25Y25*%
%IPPOS*%
%LPD*%
%AMOC8*
5,1,8,0,0,1.08239X$1,22.5*
%
%ADD10C,0.13800*%
%ADD11R,0.03300X0.05800*%
%ADD12C,0.08200*%
D10*
X0032000Y0126500D03*
X0112000Y0126500D03*
X0134000Y0126500D03*
X0214000Y0126500D03*
X0236000Y0126500D03*
X0316000Y0126500D03*
X0316000Y0228500D03*
X0236000Y0228500D03*
X0214000Y0228500D03*
X0134000Y0228500D03*
X0112000Y0228500D03*
X0032000Y0228500D03*
X0032000Y0330500D03*
X0112000Y0330500D03*
X0134000Y0330500D03*
X0214000Y0330500D03*
X0236000Y0330500D03*
X0316000Y0330500D03*
D11*
X0312772Y0260500D03*
X0309228Y0260500D03*
X0210772Y0260500D03*
X0207228Y0260500D03*
X0108772Y0260500D03*
X0105228Y0260500D03*
X0105228Y0158500D03*
X0108772Y0158500D03*
X0207228Y0158500D03*
X0210772Y0158500D03*
X0309228Y0158500D03*
X0312772Y0158500D03*
X0312772Y0056500D03*
X0309228Y0056500D03*
X0210772Y0056500D03*
X0207228Y0056500D03*
X0108772Y0056500D03*
X0105228Y0056500D03*
D12*
X0057000Y0041500D03*
X0067000Y0041500D03*
X0077000Y0041500D03*
X0087000Y0041500D03*
X0097000Y0041500D03*
X0159000Y0041500D03*
X0169000Y0041500D03*
X0179000Y0041500D03*
X0189000Y0041500D03*
X0199000Y0041500D03*
X0261000Y0041500D03*
X0271000Y0041500D03*
X0281000Y0041500D03*
X0291000Y0041500D03*
X0301000Y0041500D03*
X0301000Y0143500D03*
X0291000Y0143500D03*
X0281000Y0143500D03*
X0271000Y0143500D03*
X0261000Y0143500D03*
X0199000Y0143500D03*
X0189000Y0143500D03*
X0179000Y0143500D03*
X0169000Y0143500D03*
X0159000Y0143500D03*
X0097000Y0143500D03*
X0087000Y0143500D03*
X0077000Y0143500D03*
X0067000Y0143500D03*
X0057000Y0143500D03*
X0057000Y0245500D03*
X0067000Y0245500D03*
X0077000Y0245500D03*
X0087000Y0245500D03*
X0097000Y0245500D03*
X0159000Y0245500D03*
X0169000Y0245500D03*
X0179000Y0245500D03*
X0189000Y0245500D03*
X0199000Y0245500D03*
X0261000Y0245500D03*
X0271000Y0245500D03*
X0281000Y0245500D03*
X0291000Y0245500D03*
X0301000Y0245500D03*
M02*
